<?xml version="1.0" encoding="UTF-8"?>
<svg id="Capa_1" xmlns="http://www.w3.org/2000/svg" version="1.1" viewBox="0 0 354.3 212.6">
  <!-- Generator: Adobe Illustrator 30.1.0, SVG Export Plug-In . SVG Version: 2.1.1 Build 136)  -->
  <defs>
    <style>
      .st0 {
        stroke-width: 6.6px;
      }

      .st0, .st1, .st2 {
        fill: none;
        stroke: #fff;
        stroke-miterlimit: 10;
      }

      .st3 {
        fill: #fff;
      }

      .st1 {
        stroke-width: 6.4px;
      }

      .st2 {
        stroke-width: 4px;
      }
    </style>
  </defs>
  <rect class="st1" x="20.6" y="15.8" width="313.1" height="123.1" rx="61.5" ry="61.5"/>
  <circle class="st0" cx="176.3" cy="80" r="58.8"/>
  <rect class="st3" x="146.2" y="9.6" width="63.2" height="20"/>
  <rect class="st3" x="146.9" y="126.4" width="60.9" height="18.7"/>
  <polygon class="st3" points="20.6 92.7 26.9 81.8 33.2 70.9 20.6 70.9 8 70.9 14.3 81.8 20.6 92.7"/>
  <polygon class="st3" points="118.2 95.9 124.7 84.6 131.3 73.3 118.2 73.3 105.1 73.3 111.7 84.6 118.2 95.9"/>
  <polygon class="st3" points="232.3 92.8 238.6 81.9 244.9 71 232.3 71 219.7 71 226 81.9 232.3 92.8"/>
  <polygon class="st3" points="333.3 92.4 339.6 81.5 345.9 70.6 333.3 70.6 320.7 70.6 327 81.5 333.3 92.4"/>
  <path class="st3" d="M11.8,175h7.8v2h-10.1v-14.2h2.3v12.2Z"/>
  <path class="st3" d="M27.2,170.1c0-.6-.2-1.2-.6-1.7-.4-.4-1-.6-1.6-.6s-1.2.1-1.7.5-.9.9-1,1.5l-1.9-.8c.3-.9.8-1.6,1.6-2.1.9-.6,2-.8,3.1-.8s1.6.1,2.3.4c.6.3,1.2.7,1.6,1.3s.6,1.4.6,2.1v4.8c0,.4.2.7.6.8h.2c.3,0,.5,0,.7-.1v1.6c-.5.2-.9.3-1.4.2-.4,0-.8,0-1.2-.2-.4-.2-.7-.4-.9-.7-.2-.4-.3-.8-.3-1.3v-.2h.5c-.1.5-.4,1-.8,1.4s-.9.6-1.4.8-1.1.3-1.6.3-1.2-.1-1.8-.3c-1.1-.4-1.8-1.4-1.7-2.6,0-.7.3-1.5.8-2,.6-.6,1.4-.9,2.2-1.1l4.2-.8v1.6l-3.1.6c-.5,0-.9.2-1.4.5-.3.2-.5.6-.5.9s.2.7.5,1c.4.3.8.4,1.2.4s.7,0,1-.1c.3,0,.6-.2.9-.4s.5-.5.6-.8c.2-.3.2-.7.2-1.1v-3h0Z"/>
  <path class="st3" d="M37.9,177.2c-.6,0-1.2-.1-1.7-.4-.5-.2-1-.6-1.3-1-.4-.4-.6-.9-.8-1.5l.3-.4-.2,3h-2v-15.6h2.3v7.5l-.3-.4c.3-.7.8-1.4,1.4-1.8.7-.5,1.5-.7,2.4-.7s1.7.2,2.4.7,1.3,1.1,1.7,1.9c.4.9.7,2,.6,3,0,1-.2,2.1-.6,3-.4.8-1,1.5-1.7,1.9s-1.6.7-2.4.7h-.1ZM37.4,175.4c.8,0,1.7-.3,2.2-1,1-1.7,1-3.8,0-5.5-.5-.7-1.3-1-2.2-1s-1.1.1-1.6.5c-.5.3-.8.8-1,1.3-.5,1.3-.5,2.7,0,4,.2.5.6,1,1,1.3.5.3,1,.5,1.6.5h0Z"/>
  <path class="st3" d="M49.3,166c1,0,1.9.2,2.8.7.8.4,1.5,1.1,1.9,1.9.9,1.9.9,4.1,0,6-.4.8-1.1,1.5-1.9,1.9-1.7.9-3.8.9-5.6,0-.8-.4-1.5-1.1-1.9-1.9-.9-1.9-.9-4.1,0-6,.4-.8,1.1-1.5,1.9-1.9.9-.5,1.8-.7,2.8-.7ZM49.3,167.8c-.6,0-1.2.1-1.6.4-.5.3-.8.8-1,1.3-.5,1.3-.5,2.8,0,4.1.2.5.6,1,1,1.3.5.3,1.1.5,1.6.4.6,0,1.1-.1,1.6-.4.5-.3.8-.8,1-1.3.5-1.3.5-2.8,0-4.1-.2-.5-.6-1-1-1.3-.5-.3-1.1-.5-1.6-.4h0Z"/>
  <path class="st3" d="M56.5,177v-10.8h2l.2,1.9c.2-.7.7-1.2,1.3-1.6.6-.4,1.4-.6,2.1-.5h.6c.2,0,.4,0,.5.2l-.3,2c-.2,0-.3-.1-.5-.1h-.8c-.5,0-.9.1-1.3.4-.4.3-.8.6-1.1,1.1-.3.6-.4,1.2-.4,1.8v5.7h-2.3Z"/>
  <path class="st3" d="M70.3,170.1c0-.6-.2-1.2-.6-1.7-.4-.4-1-.6-1.6-.6s-1.2.1-1.7.5-.9.9-1,1.5l-1.9-.8c.3-.9.8-1.6,1.6-2.1.9-.6,2-.8,3.1-.8s1.6.1,2.3.4c.6.3,1.2.7,1.6,1.3s.6,1.4.6,2.1v4.8c0,.4.2.7.6.8h.2c.3,0,.5,0,.8-.1v1.6c-.5.2-1,.3-1.4.2-.4,0-.8,0-1.2-.2-.4-.2-.7-.4-.9-.7-.2-.4-.3-.8-.3-1.3v-.2h.5c0,.5-.4,1-.8,1.4s-.9.6-1.4.8-1.1.3-1.6.3-1.2-.1-1.8-.3c-1.1-.4-1.8-1.4-1.7-2.6,0-.7.3-1.5.8-2,.6-.6,1.4-.9,2.2-1.1l4.2-.8v1.6l-3.1.6c-.5,0-.9.2-1.4.5-.3.2-.5.6-.5.9s.2.7.5,1c.4.3.8.4,1.2.4s.7,0,1-.1c.3,0,.6-.2.9-.4s.5-.5.6-.8c.2-.3.2-.7.2-1.1v-2.9h0Z"/>
  <path class="st3" d="M81.7,166.2v1.8h-8.1v-1.8h8.1ZM78,163.1v10.7c0,.4,0,.9.4,1.2s.7.4,1.1.4.7,0,1-.2c.3-.1.6-.3.8-.5l.5,1.7c-.4.3-.8.5-1.2.7-.5.2-1.1.3-1.6.2-.6,0-1.2,0-1.7-.3-.5-.2-.9-.5-1.2-1-.3-.5-.5-1.2-.5-1.8v-10.4l2.3-.7h0Z"/>
  <path class="st3" d="M87.6,166c1,0,1.9.2,2.8.7.8.4,1.5,1.1,1.9,1.9.9,1.9.9,4.1,0,6-.4.8-1.1,1.5-1.9,1.9-1.7.9-3.8.9-5.6,0-.8-.4-1.5-1.1-1.9-1.9-.9-1.9-.9-4.1,0-6,.4-.8,1.1-1.5,1.9-1.9.9-.5,1.8-.7,2.8-.7ZM87.6,167.8c-.6,0-1.2.1-1.6.4-.5.3-.8.8-1,1.3-.5,1.3-.5,2.8,0,4.1.2.5.6,1,1,1.3.5.3,1.1.5,1.6.4.6,0,1.1-.1,1.6-.4.5-.3.8-.8,1-1.3.5-1.3.5-2.8,0-4.1-.2-.5-.6-1-1-1.3-.5-.3-1.1-.5-1.6-.4h0Z"/>
  <path class="st3" d="M94.8,177v-10.8h2l.2,1.9c.2-.7.7-1.2,1.3-1.6.6-.4,1.4-.6,2.1-.5h.6c.2,0,.4,0,.5.2l-.3,2c-.2,0-.3-.1-.5-.1h-.8c-.5,0-.9.1-1.3.4-.4.3-.8.6-1.1,1.1-.3.6-.4,1.2-.4,1.8v5.7h-2.3,0Z"/>
  <path class="st3" d="M103.8,164.4c-.4,0-.8-.1-1.2-.4-.3-.3-.4-.7-.4-1.1s0-.8.4-1.1.7-.4,1.2-.4.8.1,1.1.4c.3.3.4.7.4,1.1s0,.8-.4,1.1-.7.4-1.1.4ZM104.9,166.3v10.8h-2.3v-10.8h2.3Z"/>
  <path class="st3" d="M112.1,166c1,0,1.9.2,2.8.7.8.4,1.5,1.1,1.9,1.9.9,1.9.9,4.1,0,6-.4.8-1.1,1.5-1.9,1.9-1.7.9-3.8.9-5.6,0-.8-.4-1.5-1.1-1.9-1.9-.9-1.9-.9-4.1,0-6,.4-.8,1.1-1.5,1.9-1.9.9-.5,1.8-.7,2.8-.7ZM112.1,167.8c-.6,0-1.2.1-1.6.4-.5.3-.8.8-1,1.3-.5,1.3-.5,2.8,0,4.1.2.5.6,1,1,1.3.5.3,1.1.5,1.6.4.6,0,1.1-.1,1.6-.4.5-.3.8-.8,1-1.3.5-1.3.5-2.8,0-4.1-.2-.5-.6-1-1-1.3-.5-.3-1.1-.5-1.6-.4h0Z"/>
  <path class="st3" d="M129.4,177.2c-1.8,0-3.4-1-4.1-2.6-.4-.9-.6-2-.6-3s.2-2.1.7-3.1,1-1.5,1.8-1.9c.7-.4,1.6-.7,2.5-.7,1.7,0,3.2,1.1,3.6,2.7l-.3.2v-7.6h2.3v15.6h-2l-.2-2.9h.3c0,.6-.3,1.2-.7,1.7s-.8.8-1.4,1.1c-.6.3-1.2.4-1.8.4h-.1ZM129.9,175.4c.6,0,1.1-.1,1.6-.5.5-.3.8-.8,1-1.3.3-.7.4-1.4.4-2.1s-.1-1.3-.4-1.9c-.2-.5-.6-.9-1-1.2-1.2-.7-2.8-.5-3.8.6-.6.8-.9,1.8-.8,2.7,0,1,.2,1.9.8,2.7.5.7,1.3,1,2.2,1h0Z"/>
  <path class="st3" d="M142.4,177.2c-1,0-2-.2-2.8-.7-.8-.4-1.5-1.1-1.9-1.9-.9-1.9-.9-4.1,0-6,.4-.8,1.1-1.5,1.9-1.9.8-.5,1.8-.7,2.7-.7s1.9.2,2.7.6c.7.4,1.3,1,1.7,1.8s.6,1.7.6,2.5v1.3h-8.7v-1.8h7.6l-1.1.3c0-.8-.2-1.6-.7-2.2-.5-.5-1.3-.8-2-.8s-1.1.1-1.6.4c-.5.3-.8.8-1.1,1.3-.3.7-.4,1.4-.4,2.1s.1,1.4.4,2c.2.5.6,1,1.1,1.3s1.1.4,1.7.4,1.2-.1,1.7-.4c.4-.3.8-.7,1.1-1.1l1.8.9c-.3.5-.6,1-1,1.3-.5.4-1,.7-1.6.9s-1.3.3-2,.3h0Z"/>
  <path class="st3" d="M160.2,162.6c1.1,0,2.3.2,3.3.7s1.8,1.2,2.4,2.1l-1.5,1.5c-.5-.7-1.1-1.4-1.8-1.8-.7-.4-1.6-.6-2.4-.5-.6,0-1.2,0-1.7.3-.4.1-.7.4-1,.7-.2.3-.3.7-.3,1s.2.8.5,1.2c.5.4,1.1.7,1.7.8l2.9.6c1.4.3,2.4.8,2.9,1.4.6.6.9,1.5.9,2.3s-.2,1.6-.7,2.3-1.2,1.2-2,1.5c-.9.4-1.9.5-3,.5s-1.8-.1-2.7-.4c-.8-.2-1.5-.6-2.1-1.1-.6-.4-1.1-.9-1.5-1.5l1.6-1.6c.3.5.7,1,1.1,1.3.5.4,1,.7,1.6.9.7.2,1.3.3,2,.3s1.2,0,1.7-.2c.4-.1.8-.4,1.1-.7s.4-.7.4-1.1-.1-.8-.4-1.1c-.4-.4-1-.6-1.6-.7l-3.1-.7c-.7-.1-1.5-.4-2.1-.8-.5-.3-.9-.7-1.2-1.3-.3-.5-.4-1.1-.4-1.7s.2-1.5.7-2.2,1.1-1.2,1.9-1.6c.9-.4,1.9-.6,3-.6l-.2.2Z"/>
  <path class="st3" d="M172.5,177.2c-1,0-2-.2-2.8-.7-.8-.4-1.5-1.1-1.9-1.9-.9-1.9-.9-4.1,0-6,.4-.8,1.1-1.5,1.9-1.9.8-.5,1.8-.7,2.7-.7s1.9.2,2.7.6c.7.4,1.3,1,1.7,1.8s.6,1.7.6,2.5v1.3h-8.6v-1.8h7.6l-1.1.3c0-.8-.2-1.6-.7-2.2-.5-.5-1.3-.8-2-.8s-1.1.1-1.6.4c-.5.3-.8.8-1.1,1.3-.3.7-.4,1.4-.4,2.1s.1,1.4.4,2c.2.5.6,1,1.1,1.3s1.1.4,1.7.4,1.2-.1,1.7-.4c.4-.3.8-.7,1.1-1.1l1.8.9c-.3.5-.6,1-1,1.3-.5.4-1,.7-1.6.9s-1.3.3-2,.3h-.2Z"/>
  <path class="st3" d="M179.2,177v-10.8h1.9l.2,1.9c.2-.7.7-1.2,1.3-1.6.6-.4,1.4-.6,2.1-.5h.6c.2,0,.4,0,.5.2l-.3,2c-.2,0-.3-.1-.5-.1h-.8c-.5,0-.9.1-1.3.4-.4.3-.8.6-1.1,1.1-.3.6-.4,1.2-.4,1.8v5.7h-2.3.1Z"/>
  <path class="st3" d="M194.1,166.2h2.4l-4.3,10.8h-2.5l-4.3-10.8h2.5l3.1,8.8,3.1-8.8Z"/>
  <path class="st3" d="M198.6,164.4c-.4,0-.8-.1-1.2-.4-.3-.3-.4-.7-.4-1.1s.1-.8.4-1.1c.3-.3.7-.4,1.2-.4s.8.1,1.1.4c.3.3.4.7.4,1.1s-.1.8-.4,1.1c-.3.3-.7.4-1.1.4ZM199.7,166.3v10.8h-2.3v-10.8h2.3Z"/>
  <path class="st3" d="M206.9,166c.8,0,1.5.1,2.2.4.6.2,1.1.6,1.5,1.1s.7,1,1,1.6l-2.2.9c-.1-.6-.5-1.1-.9-1.5-.5-.4-1-.6-1.6-.5-.6,0-1.2.1-1.7.4-.5.3-.8.8-1,1.3-.3.7-.4,1.4-.4,2.1s.1,1.4.4,2c.2.5.6,1,1.1,1.3.9.5,2,.6,2.9.2.4-.2.7-.4.9-.7s.4-.7.5-1.1l2.1.7c-.2.6-.5,1.2-.9,1.7s-1,.9-1.6,1.1c-.7.3-1.4.4-2.2.4s-1.9-.2-2.8-.7c-.8-.4-1.5-1.1-1.9-1.9-.9-1.9-.9-4.1,0-6,.4-.8,1.1-1.5,1.9-1.9.8-.4,1.8-.7,2.7-.7v-.2Z"/>
  <path class="st3" d="M214.4,164.4c-.4,0-.8-.1-1.2-.4-.3-.3-.4-.7-.4-1.1s.1-.8.4-1.1c.3-.3.7-.4,1.2-.4s.8.1,1.1.4c.3.3.4.7.4,1.1s-.1.8-.4,1.1c-.3.3-.7.4-1.1.4ZM215.6,166.2v10.8h-2.3v-10.8h2.3Z"/>
  <path class="st3" d="M222.8,166c1,0,1.9.2,2.8.7.8.4,1.5,1.1,1.9,1.9.9,1.9.9,4.1,0,6-.4.8-1.1,1.5-1.9,1.9-1.7.9-3.8.9-5.6,0-.8-.4-1.5-1.1-1.9-1.9-.9-1.9-.9-4.1,0-6,.4-.8,1.1-1.5,1.9-1.9.9-.5,1.8-.7,2.8-.7ZM222.8,167.8c-.6,0-1.2.1-1.6.4-.5.3-.8.8-1,1.3-.5,1.3-.5,2.8,0,4.1.2.5.6,1,1,1.3.5.3,1.1.5,1.6.4.6,0,1.1-.1,1.6-.4.5-.3.8-.8,1-1.3.5-1.3.5-2.8,0-4.1-.2-.5-.6-1-1-1.3-.5-.3-1.1-.5-1.6-.4h0Z"/>
  <path class="st3" d="M234.1,177.2c-1,0-2-.2-2.9-.6-.9-.4-1.6-1-2.1-1.8l1.6-1.4c.3.6.8,1.1,1.4,1.4.7.4,1.4.6,2.1.5.5,0,1.1,0,1.6-.3s.7-1,.5-1.5c0,0,0-.1-.1-.2-.3-.3-.6-.4-1-.5l-2.3-.5c-1.1-.2-2-.6-2.5-1.1s-.8-1.2-.7-1.9c0-.6.2-1.2.5-1.6.4-.5.9-.9,1.5-1.2.8-.3,1.6-.5,2.4-.5s1.9.2,2.8.6c.7.4,1.3.9,1.7,1.6l-1.6,1.3c-.2-.5-.7-1-1.2-1.3s-1.1-.4-1.7-.4-.8,0-1.2.2c-.3,0-.5.3-.8.5-.2.2-.3.4-.3.7s.1.6.3.8c.3.3.7.4,1.2.5l2.5.5c1,.2,1.8.5,2.2,1s.6,1.1.6,1.8-.2,1.3-.5,1.8c-.4.5-.9,1-1.5,1.2-.8.3-1.6.5-2.4.4h-.1Z"/>
  <path class="st3" d="M257.9,162.8v8.8c0,1.9-.5,3.3-1.5,4.2s-2.4,1.4-4.3,1.4-3.3-.5-4.3-1.4-1.5-2.4-1.5-4.2v-8.8h2.3v8.5c0,1.3.3,2.3.9,3,.6.6,1.5,1,2.6,1s2.1-.3,2.6-1,.9-1.6.9-3v-8.5h2.3Z"/>
  <path class="st3" d="M260.4,177v-10.8h2v2.8c.1,0-.2-.3-.2-.3.2-.6.5-1.1.9-1.5s.8-.7,1.4-.9c.5-.2,1.1-.3,1.7-.3s1.4.1,2.1.4c.6.3,1.1.8,1.5,1.3.4.7.6,1.5.5,2.2v7h-2.3v-6.3c0-1.1-.2-1.8-.7-2.2-.4-.4-1-.6-1.6-.6s-1,.1-1.4.3c-.5.2-.8.6-1.1,1.1-.3.6-.5,1.3-.4,2v5.7h-2.4Z"/>
  <path class="st3" d="M273.8,164.4c-.4,0-.8-.1-1.2-.4-.3-.3-.4-.7-.4-1.1s.1-.8.4-1.1.7-.4,1.2-.4.8.1,1.1.4c.3.3.4.7.4,1.1s-.1.8-.4,1.1-.7.4-1.1.4ZM274.9,166.3v10.8h-2.3v-10.8h2.3Z"/>
  <path class="st3" d="M284,166.2v1.8h-7.7v-1.8h7.7ZM282,161.2c.4,0,.8,0,1.2.1.3,0,.6.2.8.4l-.4,1.7c-.2-.1-.3-.2-.5-.2h-.7c-.5,0-1,.1-1.4.4-.4.3-.6.8-.5,1.3v12.2h-2.3v-12.3c0-.5,0-1,.2-1.5.2-.4.4-.8.7-1.1.4-.3.8-.5,1.2-.7.5-.2,1-.2,1.6-.2h0ZM287.2,164.4c-.4,0-.8-.1-1.2-.4-.3-.3-.4-.7-.4-1.1s.1-.8.4-1.1.7-.4,1.2-.4.8.1,1.1.4c.3.3.4.7.4,1.1s-.1.8-.4,1.1-.7.4-1.1.4h0ZM288.4,166.2v10.8h-2.3v-10.8h2.3Z"/>
  <path class="st3" d="M295.5,166c.8,0,1.5.1,2.2.4.6.2,1.1.6,1.5,1.1s.7,1,.9,1.6l-2.2.9c-.1-.6-.4-1.1-.9-1.5s-1-.6-1.6-.5c-.6,0-1.2.1-1.7.4-.5.3-.8.8-1,1.3-.3.7-.4,1.4-.4,2.1s.1,1.4.4,2c.2.5.6,1,1.1,1.3.9.5,2,.6,2.9.2.4-.2.7-.4.9-.7.2-.3.4-.7.5-1.1l2.1.7c-.2.6-.5,1.2-.9,1.7s-1,.9-1.6,1.1c-.7.3-1.4.4-2.2.4s-1.9-.2-2.8-.7c-.8-.4-1.5-1.1-1.9-1.9-.9-1.9-.9-4.1,0-6,.4-.8,1.1-1.5,1.9-1.9s1.8-.7,2.8-.7v-.2Z"/>
  <path class="st3" d="M308.1,170.1c0-.6-.2-1.2-.6-1.7-.4-.4-1-.6-1.6-.6s-1.2.1-1.7.5-.9.9-1,1.5l-1.9-.8c.3-.9.8-1.6,1.6-2.1.9-.6,2-.8,3.1-.8s1.6.1,2.3.4c.6.3,1.2.7,1.6,1.3s.6,1.4.6,2.1v4.8c0,.4.2.7.6.8h.2c.3,0,.5,0,.8-.1v1.6c-.5.2-.9.3-1.4.2-.4,0-.8,0-1.2-.2-.4-.2-.7-.4-.9-.7-.2-.4-.3-.8-.3-1.3v-.2h.5c-.1.5-.4,1-.8,1.4s-.9.6-1.4.8-1.1.3-1.6.3-1.2,0-1.8-.3c-1.1-.4-1.8-1.4-1.7-2.6,0-.7.3-1.5.8-2s1.4-.9,2.2-1.1l4.2-.8v1.6l-3.1.6c-.5,0-.9.2-1.4.5-.3.2-.5.6-.4.9,0,.4.2.7.5,1,.4.3.8.4,1.2.4s.7,0,1-.1c.3,0,.6-.2.9-.4s.5-.5.6-.8c.2-.3.2-.7.2-1.1v-2.9h-.1Z"/>
  <path class="st3" d="M317.2,177.2c-1.8,0-3.4-1-4.1-2.6-.4-.9-.6-2-.6-3s.2-2.1.7-3.1c.4-.8,1-1.5,1.8-1.9.7-.4,1.6-.7,2.5-.7,1.7,0,3.2,1.1,3.6,2.7l-.3.2v-7.6h2.3v15.6h-2l-.2-2.9h.3c0,.6-.3,1.2-.7,1.7-.4.5-.8.8-1.4,1.1s-1.2.4-1.8.4h0ZM317.7,175.4c.6,0,1.1-.1,1.6-.5.5-.3.8-.8,1-1.3.3-.7.4-1.4.4-2.1s-.1-1.3-.4-1.9c-.2-.5-.6-.9-1-1.2-1.2-.7-2.8-.5-3.8.6-.6.8-.9,1.8-.8,2.7,0,1,.2,1.9.8,2.7.5.7,1.3,1,2.2,1h0Z"/>
  <path class="st3" d="M330.2,166c1,0,1.9.2,2.8.7.8.4,1.5,1.1,1.9,1.9.9,1.9.9,4.1,0,6-.4.8-1.1,1.5-1.9,1.9-1.7.9-3.8.9-5.6,0-.8-.4-1.5-1.1-1.9-1.9-.9-1.9-.9-4.1,0-6,.4-.8,1.1-1.5,1.9-1.9.9-.5,1.8-.7,2.8-.7h0ZM330.2,167.8c-.6,0-1.2.1-1.6.4-.5.3-.8.8-1,1.3-.5,1.3-.5,2.8,0,4.1.2.5.6,1,1,1.3.5.3,1.1.5,1.6.4.6,0,1.1-.1,1.6-.4.5-.3.8-.8,1-1.3.5-1.3.5-2.8,0-4.1-.2-.5-.6-1-1-1.3-.5-.3-1.1-.5-1.6-.4h0Z"/>
  <path class="st3" d="M341.5,177.2c-1,0-2-.2-2.9-.6-.9-.4-1.6-1-2.1-1.8l1.6-1.4c.3.6.8,1.1,1.4,1.4.7.4,1.4.6,2.1.5.5,0,1.1,0,1.6-.3s.7-1,.5-1.5c0,0,0-.1-.1-.2-.3-.3-.6-.4-1-.5l-2.3-.5c-1.1-.2-2-.6-2.5-1.1s-.8-1.2-.7-1.9c0-.6.2-1.2.5-1.6.4-.5.9-.9,1.5-1.2.8-.3,1.6-.5,2.4-.5s1.9.2,2.8.6c.7.4,1.3.9,1.7,1.6l-1.6,1.3c-.2-.5-.7-1-1.2-1.3s-1.1-.4-1.7-.4-.8,0-1.2.2c-.3,0-.5.3-.8.5-.2.2-.3.4-.3.7s.1.6.3.8c.3.3.7.4,1.2.5l2.5.5c1,.2,1.8.5,2.2,1,.4.5.6,1.1.6,1.8s-.2,1.3-.5,1.8c-.4.5-.9,1-1.5,1.2-.8.3-1.6.4-2.4.4h-.1Z"/>
  <path class="st3" d="M121,188.4c1.1,0,2.3.2,3.3.7s1.8,1.2,2.4,2.1l-1.5,1.5c-.5-.7-1.1-1.4-1.8-1.8-.7-.4-1.6-.6-2.4-.5-.6,0-1.2,0-1.7.3-.4.1-.7.4-1,.7-.2.3-.3.7-.3,1s.2.9.5,1.2c.5.4,1.1.7,1.7.8l2.9.6c1.4.3,2.4.8,2.9,1.4.6.6.9,1.5.9,2.3s-.2,1.6-.7,2.3-1.2,1.2-2,1.5c-.9.4-1.9.5-3,.5s-1.8-.1-2.7-.4c-.8-.2-1.5-.6-2.1-1.1-.6-.4-1.1-.9-1.5-1.5l1.6-1.6c.3.5.7,1,1.1,1.3.5.4,1,.7,1.6.9.7.2,1.3.3,2,.3s1.2,0,1.7-.2c.4-.1.8-.4,1.1-.7.3-.3.4-.7.4-1.1s0-.8-.4-1.1c-.4-.4-1-.6-1.6-.7l-3.1-.7c-.7-.1-1.5-.4-2.1-.8-.5-.3-1-.7-1.3-1.3-.3-.5-.4-1.1-.4-1.7s.2-1.5.7-2.2,1.1-1.2,1.9-1.6c.9-.4,1.9-.6,2.9-.6v.2Z"/>
  <path class="st3" d="M128.9,202.8v-14.2h10.3v2h-8v4.1h6.2v1.9h-6.2v4.2h8.3v2h-10.6Z"/>
  <path class="st3" d="M153.2,188.6v14.2h-2.7l-5.5-9-1.4-2.5h0v11.5h-2.1v-14.2h2.7l5.5,8.9,1.4,2.6h0v-11.5h2.1Z"/>
  <path class="st3" d="M154.6,202.8l5.4-14.2h2.8l5.4,14.2h-2.4l-3.7-10.2-.6-2h0l-.6,2-3.7,10.2h-2.6ZM157.5,199.1v-1.9h7.7v1.9h-7.7Z"/>
  <path class="st3" d="M181.8,196.1v2.1h-7.3v-2.1h7.3Z"/>
  <path class="st3" d="M202.5,199.1c-.5,1.6-1.7,2.9-3.3,3.5s-1.7.5-2.6.4c-1.2,0-2.5-.3-3.5-.9-1-.6-1.8-1.5-2.3-2.5-1.1-2.5-1.1-5.3,0-7.8.5-1.1,1.3-1.9,2.3-2.5,1.1-.6,2.3-.9,3.5-.9s1.7.1,2.5.4c.7.2,1.4.6,1.9,1.2.5.5,1,1.2,1.2,1.9l-2.2,1c-.2-.7-.6-1.4-1.2-1.9-.6-.4-1.4-.6-2.1-.6s-1.6.2-2.3.6c-.7.4-1.2,1.1-1.5,1.8-.4.9-.6,1.9-.5,2.9,0,1,.2,2,.5,2.9.3.7.8,1.4,1.5,1.8.7.4,1.5.6,2.3.6s1.6-.2,2.3-.7,1.2-1.2,1.4-2l2.2.7h0Z"/>
  <path class="st3" d="M204.4,202.8v-14.2h10.3v2h-8v4.1h6.2v1.9h-6.2v4.2h8.3v2h-10.6Z"/>
  <path class="st3" d="M217,202.8v-14.2h10.3v2h-8v4.1h6.2v1.9h-6.2v4.2h8.3v2h-10.6Z"/>
  <path class="st3" d="M240.2,188.6v2h-4.9v12.2h-2.3v-12.2h-4.9v-2h12.1Z"/>
  <line class="st2" x1="8.2" y1="155.1" x2="346.3" y2="155.1"/>
  <path class="st3" d="M80.3,105.7c-17.2,0-31-13.4-31-31v-31h10.1v28.1c0,12.1,8.5,23.4,21,23.4h16.8v10.4h-16.9,0Z"/>
  <path class="st3" d="M154.9,98.2l7.4-7c3.1,4.2,7.3,6,10.9,6,6.6,0,12.1-3.7,12.1-9.2,0-9.4-26.9-8.6-27.1-27.3v-.4c0-8.1,6-16.4,17.3-16.4s11.9,3.1,16.9,9.4l-7.4,7c-3.4-4.4-6.1-6-9.5-6-6,0-7.4,2.2-7.4,6.5,0,9.6,27.1,10.4,27.1,27.2s-10.4,19.7-22,19.7-13.3-3-18.3-9.4h0Z"/>
  <path class="st3" d="M314.5,75c0,17.5-14.4,31.7-31.9,31.7s-31.8-14.2-31.9-31.8h0v-31h10.4v30.9c-.2,11.9,9.3,21.6,21.2,21.8,11.9.2,21.6-9.3,21.8-21.2v-31.5h10.4v31.2h0Z"/>
</svg>