<?xml version="1.0" encoding="UTF-8"?>
<svg id="Capa_1" xmlns="http://www.w3.org/2000/svg" version="1.1" viewBox="0 0 586.5 212.6">
  <!-- Generator: Adobe Illustrator 30.1.0, SVG Export Plug-In . SVG Version: 2.1.1 Build 136)  -->
  <defs>
    <style>
      .st0 {
        fill: #fff;
      }
    </style>
  </defs>
  <path class="st0" d="M336.6,81.1c0,5.3-.1,10.5,0,15.8,0,1.7-.5,2.2-2.2,2.2h-21c-1.3,0-2.4-.7-2.9-1.8-10.3-20.3-21.7-40-30.5-61-.2-.3-.4-.6-.6-.8-.4.6-.5,1.3-.4,2,.5,19.7.2,39.3.3,59,0,2-.4,2.8-2.5,2.7-3.3-.2-6.6,0-9.8,0-1.8,0-2.5-.3-2.5-2.4V23.9c0-1.8.6-2.4,2.3-2.3h20.7c1.3,0,2.4.7,2.9,1.8,10,19.8,20.7,39.2,29.8,59.6.3.5.6,1.1,1,1.6,1.1-.6.7-1.5.7-2.3-.5-19.4,0-38.8-.3-58.1,0-1.9.6-2.6,2.5-2.5,3.5.1,6.9.1,10.4,0,1.5,0,2.1.4,2.1,2-.1,2.6,0,5.3,0,8.1,1.3-.4,1.7-1.5,2.4-2.2,4.1-3.6,9-4,14.1-3.3,1,.1,2,.3,2.9.5l6.5,3.2c1.1,1.2,2.4,2.1,3.9,2.7,1,1.9,2.5,3.4,4.4,4.4.2.9,1.1,1.2,1.5,1.8.7.9.7,2.1,0,2.9-.7.5-1.7.3-2.2-.4-.1-.2-.2-.4-.3-.7-.3-1.2-1.3-2.1-2.4-2.3-1.1-1.8-2.7-3.2-4.6-4.1-1.4-1.2-3.2-2.1-5-2.3-2.1-1.8-4.7-1.8-7.3-1.8-6.6.7-10.8,6-11,14-.4,3.4-.2,6.8.6,10.1,1.5,8.6,5.3,16.7,11.1,23.2-.8-.4-1.6-.9-2.2-1.5-3.3-2.7-5.6-6.4-8.3-9.6-.8-2.2-1.9-4.3-3.2-6.3-.6-1.4-.7-.7-.7.2,0,3.9,0,7.7-.1,11.6-4.8-7.1-5.4-14.6-2.3-22.6-4.4,4.4-6.2,12.2-5,18.3,1.1,5.2,4.1,9.5,7.5,13.6h-.3Z"/>
  <path class="st0" d="M193.3,35.2c.2,3.5.4,7,.5,10.5v50.2c0,2.5-.6,3.4-3.2,3.2-3.1-.2-6.2-.2-9.3,0-1.9,0-2.6-.5-2.5-2.4.1-4.5,0-9.1,0-13.6V24.6c0-2.3.5-3.2,3-3.1,6.5.2,12.9.1,19.4,0,1.7-.2,3.4.8,4,2.4,9.7,19.3,20.1,38.3,29.1,58.1.5,1.1,1.1,2.2,1.8,3.2.5-3.3,0-6.5,0-9.7V24.4c0-2.3.7-3,2.9-2.9,3,.2,6,.2,9,0,2.3-.1,2.9.6,2.9,2.9-.1,21.1,0,42.2,0,63.4s0,6.2,0,9.3-.6,2.1-2.2,2.1c-6.7,0-13.5,0-20.2,0-1.6.2-3.2-.7-3.8-2.3-10.4-20.5-21.9-40.5-30.7-61.8h-.8.1Z"/>
  <path class="st0" d="M72.4,99.8c-4.8,0-9.6-.4-14.3-1.2-9.1-1.7-12.9-5.6-14.2-14.7-.3-2.3-.2-4.7-.4-7.1-.2-1.9.7-2.5,2.6-2.4,3.2,0,6.4,0,9.6,0s2.4.4,2.4,2.3c.2,9.9,2.6,10.4,10.5,10.9,5.8.6,11.7.4,17.4-.6,2.5-.4,4.5-2.4,4.9-4.8.7-2.9.9-5.8.5-8.7-.4-3.9-2.1-5.6-6-6.3-5.1-.9-10.3-.8-15.5-1.2-5.4-.3-10.7-1.2-15.9-2.5-4.7-1-8.2-4.8-9.1-9.5-1.6-6.8-1.6-13.9,0-20.7,1.1-5.2,5.2-9.2,10.3-10.2,12.4-2.9,25.3-2.9,37.8,0,6,1.4,9.2,5.4,10.5,11.3,2.2,10,1.9,10.3-8,10.3h-.8c-3.1,0-5-1.5-5.6-4.6-.9-4.4-2.2-5.9-6.3-6.4-6-.7-12-.6-17.9.4-3.1.4-5.5,2.9-5.8,6,0,.9-.2,1.8-.2,2.7,0,8.5,1,9.6,9.5,10.5,8.7,1,17.6.8,26.2,2.9,6.1,1.5,9.8,4.9,10.8,11.1,1.3,7.2,1,14.6-.9,21.6-1.3,4.7-5.1,8.3-9.9,9.2-6.8,1.8-13.6,2.1-22.3,2.1v-.4Z"/>
  <path class="st0" d="M556.2,99.1c-5.1,0-8.4-2.4-10-7.3-1.6-4.9-5.1-7.4-10.4-7.6h-22.9c-1.5-.3-3,.8-3.2,2.3h0c-1,3.7-2.3,7.2-3.4,10.8-.2,1.2-1.3,2-2.5,1.8h0c-3.9,0-7.8,0-11.7,0-2,0-2-.7-1.5-2.3,8.2-24.4,16.3-48.8,24.4-73.2.2-1.4,1.5-2.3,2.9-2.1h0c5.9.1,11.8,0,17.7,0,1.5-.2,2.9.7,3.1,2.2,8.1,24.1,16.3,48.2,24.4,72.3q1,3.1-2.2,3.1h-4.7,0ZM527.2,34c-.3.4-.5.7-.7,1.1-4,12-7.9,24-11.8,36-.6,1.8.2,2,1.6,2h21.6c2.2,0,2.2-.7,1.6-2.4-1.5-4.4-2.9-8.8-4.4-13.2-2.6-7.6-5.1-15.3-7.9-23.5h0Z"/>
  <path class="st0" d="M114.5,60.3V24.5c0-2.5.7-3.1,3.1-3,15.8.1,31.5.1,47.2,0,2.4,0,3.2.7,3,3.1-.2,2.2-.2,4.4,0,6.5.2,2.4-.5,3.1-2.9,3.1-10.7,0-21.5,0-32.2,0-2.6,0-3.3.7-3.2,3.2.2,4.4.2,8.9,0,13.4-.1,2.4.5,3.3,3.1,3.3,10.2-.2,20.2,0,30.3,0,2.3,0,3.1.6,2.9,2.9-.3,2.5,1,5.8-.5,7.4s-5,.6-7.6.6h-25.4c-2.1,0-2.9.5-2.8,2.8.1,5.5.2,10.9,0,16.4,0,2.3.8,2.7,2.8,2.7,11,0,22,0,33,0,2.5,0,3.2.7,3,3.1-.1,2.5-.1,5.1,0,7.6,0,1.5-.5,1.9-1.9,1.9h-50c-2.3,0-1.9-1.5-1.9-2.8,0-12-.2-24-.2-36h.2Z"/>
  <path class="st0" d="M284.5,119.4h271.4c3.1,0,3.5.6,2.4,3.1-.2.7-.9,1.2-1.6,1.1H12.7c-2,0-3.7,0-3.3-2.7.2-1.2.6-1.6,1.7-1.6h273.4Z"/>
  <path class="st0" d="M420,28.4c-.3-1.1-.5-2.1-.8-3.2q-1.1-3.7,2.6-3.7h9.5c1.4-.2,2.7.7,2.9,2.1h0c6.3,20.1,13.8,39.8,19.2,60.2.1.5.1,1.1.9,1.5.9-1.5,1.5-3.2,1.8-5,5.3-19.1,12.1-37.7,18-56.7.3-1.5,1.7-2.4,3.1-2.2h0c3.5.1,6.9,0,10.4,0s3,0,2,3l-13.5,41.8c-3.2,9.9-6.5,19.9-9.6,29.8-.3,1.9-2.1,3.2-4.1,2.9h-.1c-5.6-.2-11.3,0-16.9,0-1.6.3-3.2-.8-3.4-2.4h0c-4.6-14.6-9.3-29.2-14.1-43.9-.3-1-.2-2.4-1.7-2.9.5-2-.4-4,0-6,3.4,3.7,3.7,8.6,4.7,13.1,1.7-7.4-.8-15-6.5-20-1-3-2.5-5.9-4.5-8.5h.1Z"/>
  <path class="st0" d="M373.7,14.5c-1-1-2.2-.5-3.4-.4-8.8.4-17.2,3.4-24.2,8.7-.6.8-1.6,1.2-2.6,1,2.3-2.9,5.2-5.4,8.5-7.3,15.3-8.9,30.9-9,46.7-1.6.7.3,1.5.7,2.2,1.1.4.6,1.1.8,1.7.6h0c-.1.4.1.9.5,1.1,6.1,4,10,9.8,13.2,16.1.5,1.6.9,3.2,1.3,4.8.7,2.3,1.2,4.6,1.5,6.9,0,1.8,0,3.6-.2,5.4-.7,9.4-7.9,16.9-17.2,18.2-3.4.5-6.6-.7-9.8-1.5-.4-.8-1.2-1.3-2-1.5-1.7-1.5-3.3-4.1-5.1-4.2-2.7-.2-2.2-1.6-2.3-3-.1-.9-.4-2.4,1.2-2,.9.2,3.4-1.5,2.7,1.7,0,.3.4.8.7,1.1,1.7,1.8,3.8,3.1,6.2,3.9.9.8,2.1,1.1,3.2,1,1.8.6,3.8.6,5.6,0,10.9-2.7,14-17.4,8.3-27.3-.1-1.7-.4-3.4-2.1-4.4,0-.6-.2-1.3-.6-1.8-3.2-5.2-7.8-9.3-13.4-11.9-.9-.8-2-1.4-3.2-1.6-5.4-2.5-11.4-3.7-17.4-3.2h0Z"/>
  <path class="st0" d="M418.9,89.3c-5.6,8.4-14,14.5-23.7,17.3-18.7,5.6-35.6,2.3-50.7-10.6-1.3-.9-2.3-2.3-2.9-3.8-.7-2.3,0-3.2,2.2-3.2s1.1,0,1.6-.2h0c-1.3,1.9.1,2.8,1.5,3.6,12.9,7.6,26.5,11.9,41.7,9.2,7.9-1.2,15.2-4.7,21.1-10.1l9.3-2.3h-.1Z"/>
  <path class="st0" d="M336.6,81.1c-3.4-4.1-6.4-8.3-7.5-13.7-1.2-6.1.6-13.8,5-18.3-3,8-2.4,15.5,2.3,22.6,1.3,2.4,3.1,4.5,5.2,6.2,11.1,9.9,24.4,13.1,38.9,11.7,3.4-.3,7-.8,9.9-3.1,1.6.4,3.2,1.1,4.6,2-2,1.7-4.3,3-6.8,3.9-13,4.9-27.5,3.8-39.7-2.9-.9-.5-1.7-1.7-3.1-.9h0c.6-.5.1-.8-.2-1-3-2-5.8-4.2-8.5-6.6h0Z"/>
  <path class="st0" d="M394.9,88.6c-1.4-.9-2.9-1.6-4.6-2l-7.9-5.6c-.2-1.2-1.1-2.1-2.3-2.3,0-.3,0-.6-.1-.8-3-3.7-5.4-7.8-7.1-12.2-.3-.9-1-1.1-1.9-.8s-1.2,0-1-1c.6-1.7,1.2-3.4,1.9-5.1.3-.7.7-1.1,1.5-.7,2,.8,3.9,1.8,5.6,3.1-2.1,1.5-2.3,1.6-1.8,2.4,2.9,5.5,5.8,10.9,11.2,14.4.1.8.8,1.4,1.6,1.3,1.9,1.8,4.2,3.1,6.7,3.9,1.1.8,2.3,1.3,3.6,1.3,1.4.9,3.2,1.1,4.8.7,1.5,2,3.6,1,5.5,1.1,1.7,0,3.4,0,5-.7l.7-.4h0c3-.5,5.7-2.2,7.6-4.6l.6-.9h0c3.7-3.5,4.4-8.1,4.6-12.8v-3c3.3,8.4.4,17.9-7,23-1,.7-2.1,1.4-3.2,2l-9.4,2.3c-1.9-.4-3.8-.4-5.6,0-1.1-1.9-3.2-.9-4.7-1.6l-4.3-1.2v.2Z"/>
  <path class="st0" d="M410.7,86.5c-1.9,0-4,.9-5.5-1.1l1.1-1.2c9.7-11,15.1-23.7,13.8-38.6,0-2.4-.9-4.6-1.3-7,3.1.6,5.8,2.5,7.5,5.2-.3,2,.6,4,0,6,0,1.5,0,3-.1,4.5-.5,4.9-2.5,9.4-3.4,14.2-.5.4-.7,1.1-.5,1.7h0c-.3.3-.7.5-.9.9-2.8,5.6-6.4,10.8-10.7,15.4Z"/>
  <path class="st0" d="M328,187.3c0,2.7.1,5.5,0,8.2-.2,3.7-2.1,6.2-5,7-3.5,1.1-7.8.1-9.5-2.3-.6-.8-1.8-1.9-.7-2.8s1.8.3,2.5,1.2c1.7,2,4.4,2.7,6.9,1.8,2.4-.7,3.1-2.6,3.4-4.8.1-1.3,0-2.2-1.8-1.3-5.9,3.1-11.5,0-12-6.7-.5-5.6,1.5-9.3,5.5-10.7,1.6-.6,3.4-.6,5.1,0,1.5.5,2.5,2.3,4.4.3.6-.7,1.6.2,1.6,1.5v8.5h-.4ZM325.6,186.7c0-1.5-.2-2.9-.8-4.2-.6-2.2-2.6-3.7-4.8-3.7-2.4-.2-4.5,1.3-5.3,3.5-1.3,2.8-1.1,6,.4,8.6,1.3,2.6,4.5,3.6,7.1,2.2,1-.5,1.7-1.3,2.2-2.2.7-1.3,1.2-2.7,1.2-4.2h0Z"/>
  <path class="st0" d="M122.2,160.4c-2.1.2-4.2-.1-6.1-.9-2.2-.8-3.9-2.6-4.4-4.9-.2-1-1-2.6.7-3s1.5,1.2,1.8,2.3c.3,1.5,1.4,2.8,2.8,3.5,2.7,1.4,5.9,1.4,8.7.2,1.8-.6,3-2.3,2.9-4.2,0-1.8-1.3-3.4-3-3.8-2.6-.8-5.3-1.5-7.9-2.1-3.9-1.1-5.6-3-5.5-6.1,0-3.3,2.5-6.1,5.8-6.7,3.3-1,6.8-.3,9.6,1.7,1.3.9,2.2,2.2,2.5,3.8.2.8.8,1.8-.6,2.2-1.1.2-1.5-.4-1.9-1.5-1.4-3.7-5.5-5.5-9.1-4.2-.2,0-.3.1-.5.2-1.9.6-3.2,2.4-3.1,4.4,0,2.2,1.5,3.2,3.3,3.7l6.6,1.8c4.7,1.3,6.7,3.4,6.4,7.1s-2.9,6.1-7.5,6.6h-1.7.2Z"/>
  <path class="st0" d="M186.9,150.4v-7.4c0-1.8.9-2.3,2.2-1.1.9.8,1.2.5,2,0,3.3-2,5.6-1.8,8.6.9.8.7,1.1.5,1.7,0,2-2.1,5.1-2.7,7.8-1.5,2.9,1.2,3.3,3.9,3.2,6.7v9.8c0,.9.2,1.9-1.2,2s-1.2-1-1.3-1.9v-10.4c0-3.1-1.3-4.5-3.8-4.7s-4.7,1.6-4.9,4.1c-.6,3.6-.1,7.3-.3,10.9,0,.8.3,1.9-1.1,2s-1.3-1-1.3-1.9v-10.2c0-3.4-1.2-4.8-3.5-4.9-2.6-.3-5,1.6-5.2,4.3v.2c-.3,3.4-.2,6.9-.2,10.4s.3,2.2-1.3,2.1-1.1-1.2-1.1-2c-.1-2.3,0-4.8,0-7.3h-.3Z"/>
  <path class="st0" d="M403.7,151.4c0,2.9.2,5.8,0,8.7-.2,3.1-1.6,5.7-4.9,6.5s-6.9.7-9.5-2.2c-.7-.7-1.8-1.9-.7-2.8s1.8.3,2.4,1.2c1.8,2.1,4.7,2.8,7.2,1.7,2.4-.8,3-2.7,3.1-4.9,0-1.2,0-2-1.6-1.1-6.1,3.3-11.9,0-12.2-7-.2-3.1.2-6,2.5-8.4,2.4-2.7,6.4-3.2,9.4-1.2.9.6,1.4,1.5,2.5,0,.7-1,2-.5,2,1.1v8.5h-.2ZM401.5,150.1c-.2-1.1-.5-2.3-.8-3.4-.5-2.2-2.5-3.8-4.7-3.9-2.4-.2-4.6,1.2-5.4,3.4-1.2,2.5-1.3,5.4-.2,7.9,1,2.8,4.1,4.3,6.9,3.3.7-.2,1.3-.6,1.8-1.1,1.6-1.7,2.4-4,2.3-6.3h.1Z"/>
  <path class="st0" d="M40.5,170.8h.8c11.4,0,16.9,8.5,12.3,19.1-1.7,4-5.2,5.5-9.2,5.8-2.7.2-5.5,0-8.2,0s-1.9-.5-1.9-1.9v-21c0-1.5.4-2.2,2-2,1.3.1,2.8,0,4.1,0h.1ZM36.8,183.2v8.7c0,1,0,1.8,1.5,1.7,2.5.1,5.1,0,7.6-.4,3.3-.5,5.8-3.2,6.1-6.5.4-2.4.4-4.9,0-7.3-.4-3.2-2.9-5.7-6-6.2-2.5-.4-5-.5-7.6-.4-1.5,0-1.5.8-1.5,1.9v8.4h0Z"/>
  <path class="st0" d="M258.2,143.3v-7.3c0-.9,0-1.9,1.3-1.9s1.2,1.1,1.2,2v21.8c0,.6.3,1.4-.5,1.7-.6.3-1.3.2-1.6-.4h0c-.7-1.5-1.4-.5-2.1-.1-5.7,3.2-11.4.5-12.5-5.9-.4-2-.3-4,.2-5.9,1.7-6.4,7.9-8.5,13.1-4.4.3.2.7.4,1,.6v-.2ZM258.2,150.6c0-1.6-.2-3.1-.9-4.5-1-2-3-3.3-5.3-3.3s-4.1,1.2-5,3.2c-1.5,3.1-1.4,6.7.3,9.7.9,1.7,2.6,2.7,4.5,2.6,4,0,6.4-2.8,6.4-7.8h0Z"/>
  <path class="st0" d="M107.5,186.9v4.6c0,.7,0,1.5.6,2s1.9.5,1.2,1.6c-.6.9-1.8,1.1-2.7.4,0,0-.2-.1-.3-.2-1.5-2.1-2.4-.9-3.8,0-2.3,1.4-5.2,1.5-7.6.2-1.8-.9-2.8-2.8-2.6-4.7,0-2.4,1.5-4.5,3.9-4.9,2.1-.5,4.3-.9,6.4-1.2,1.2-.2,2.2-.5,2.3-1.9.3-1.4-.4-2.8-1.6-3.5-2.5-1.5-5.7-.7-7.2,1.8,0,.2-.2.3-.3.5-.5,1-1,1.6-2,1.1s-.5-1.5-.2-2.1c1.1-3.1,4.4-4.6,8.6-4,3.4.5,5,2.3,5.2,5.9v4.4h0ZM105,188.2c0-.8.4-2.1-1.5-1.8-2.1.4-4.4.7-6.4,1.3-1.5.2-2.6,1.6-2.5,3.1,0,1.8,1.5,3.2,3.3,3.3,3.1.7,6.2-1.2,7-4.3,0-.5.2-1,0-1.6h0Z"/>
  <path class="st0" d="M509.5,186.9v4.6c0,.7-.1,1.5.6,1.9s1.9.5,1.1,1.6c-.6.8-1.8,1-2.7.4,0,0-.2-.1-.2-.2-1.5-2.2-2.4-.8-3.8,0-2.3,1.4-5.2,1.5-7.6.1-2.5-1.5-3.3-4.8-1.8-7.3.7-1.2,1.9-2,3.2-2.4,2-.5,4.1-.9,6.1-1.1,1.3-.2,2.4-.5,2.4-2,.2-1.5-.6-3-2-3.5-2.5-1.3-5.7-.3-7,2.2,0,.1-.1.3-.2.4-.4.9-1,1.5-1.9,1s-.6-1.2-.4-1.9c.9-3.1,3.8-4.7,8.2-4.4,3.6.3,5.4,1.9,5.7,5.4.1,1.6,0,3.3,0,4.9h0l.3.3ZM501.6,194.2c2.2-.1,4.2-1.5,5.1-3.6.6-1.2.6-2.7,0-3.9-.6-.9-2,0-3,.1-1.2.1-2.3.3-3.5.6-1.9.5-3.9,1.3-3.4,3.8s2.3,3.1,4.8,3h0Z"/>
  <path class="st0" d="M419.3,157.4c-1.9,2.6-5.3,3.7-8.4,2.7-2.3-.4-4-2.5-4-4.9-.3-2.5,1.3-4.8,3.7-5.3,2.1-.5,4.2-.9,6.4-1.1,1.1-.2,2.2-.5,2.4-1.8.2-1.2-.2-2.4-1.1-3.2-2.2-2-6.7-1.2-7.9,1.5-.5,1.1-.9,2.3-2.2,1.5s-.3-1.8.1-2.6c1.4-2.9,4.8-4.2,8.7-3.4,3.3.7,4.8,2.5,4.9,6.2v7.4c0,1.4-.4,2.8,1.5,3.7.9.4.5,1.5-.6,1.6-1.8.5-2.7-.6-3.4-2.2h-.1ZM419.5,152.2c-.4-.4.7-2-1.1-1.7-2.4.2-4.8.6-7.1,1.5-1.3.4-2.2,1.6-2.1,2.9,0,1.4.9,2.6,2.2,3.1,3.7,1.7,8.1-1.4,8.1-5.8Z"/>
  <path class="st0" d="M230.4,151.3v4.4c0,.7-.1,1.5.6,2s2.1.8,1.1,1.8c-.9.8-2.3.7-3.1-.2h-.1c-1-1.6-1.6-1.1-2.7-.2-2.1,1.6-5,2-7.5.9-2.2-.7-3.6-2.8-3.4-5-.2-2.2,1.2-4.2,3.4-4.7,2.2-.6,4.4-1,6.7-1.2,1.3-.2,2.4-.5,2.5-2,.3-1.4-.3-2.8-1.5-3.5-2.4-1.5-5.7-.8-7.2,1.7-.1.2-.2.4-.3.6-.4,1-1,1.6-2,1.2s-.6-1.4-.3-2.1c1.1-3.2,4.5-4.8,8.8-4.1,3.2.5,4.9,2.5,5,6.1v4.4h0ZM228,152.5c-.3-.6.6-2.2-1.2-1.9-2.3.2-4.6.7-6.9,1.5-1.3.6-2.4,1.5-2.3,3,0,1.5,1.1,2.8,2.6,3.1,3,1.1,6.3-.5,7.4-3.6.2-.7.3-1.4.3-2.1h0Z"/>
  <path class="st0" d="M344.5,151.3h-5.2c-1.5,0-2,.5-1.6,2,.6,2.6,2,4.5,4.8,5,2.4.6,4.8-.7,5.8-2.9.5-1,1-2,2.2-1.5s.1,1.7-.2,2.5c-1.1,2.5-3.6,4.1-6.3,3.9-3,.1-5.6-.6-7.3-3.4-2.2-3.6-2.3-8-.5-11.8,1.3-3.1,4.4-4.9,7.7-4.5,3.2.2,5.9,2.4,6.8,5.4.2.6.3,1.2.5,1.8.7,3.1.5,3.3-2.6,3.3h-4v.2ZM343.4,149.3h4.1c1.6,0,1.9-.7,1.5-2-.9-2.5-2.3-4.4-5.2-4.5-2.4-.2-4.7,1.3-5.5,3.6-1.1,2.4-.9,2.9,1.9,2.9h3.2Z"/>
  <path class="st0" d="M177.1,151.4h-4.9c-1.9-.1-2.2.7-1.8,2.3.4,2.4,2.4,4.3,4.8,4.6,2.3.5,4.7-.6,5.7-2.7.2-.3.3-.7.5-1,.2-.6,1-.9,1.6-.7,0,0,.2,0,.2.1.8.4.4,1.1.1,1.7-.8,2.5-2.9,4.3-5.5,4.6-3,.4-5.8,0-7.9-2.5-2.9-3.5-2.9-10.4-.2-14.1,2.2-2.9,6.2-3.9,9.5-2.4,2.9,1.4,5.3,5.9,4.8,8.8-.2,1-.8,1.1-1.5,1.1h-5.4v.2ZM175.8,149.3h4.1c1.8.1,2-.8,1.5-2.2-.5-2.4-2.5-4.2-5-4.4-2.3-.2-4.5,1.1-5.4,3.3-1.3,2.6-1,3.2,1.8,3.2h3,0Z"/>
  <path class="st0" d="M273.2,151.4h-5.2c-1.7,0-1.8.7-1.6,2,.3,2.4,2.1,4.4,4.6,4.8,2.4.7,4.9-.5,6-2.7.5-1,1-2.3,2.3-1.5s0,1.8-.4,2.6c-2.5,4.8-10.4,5.2-13.3.7-2.5-3.8-2.7-8.8-.4-12.7,1.9-3.3,5.9-4.8,9.4-3.4,3.5,1.6,5.7,5.2,5.4,9-.2,1.2-.9,1.2-1.8,1.2h-5.2.2ZM271.9,149.3h3.8c2.2.2,2.2-.9,1.6-2.5-.6-2.4-2.8-4-5.3-4s-4.6,1.6-5.3,3.9c-.7,1.6-.9,2.9,1.6,2.6h3.6Z"/>
  <path class="st0" d="M394.7,187.2h-4.9c-1.9-.1-2.1.7-1.7,2.3.4,2.4,2.3,4.3,4.7,4.8,2.4.6,4.9-.7,5.9-2.9.5-.9,1-2,2.2-1.5s.2,1.7-.2,2.5c-1.1,2.6-3.8,4.2-6.6,4-3,0-5.7-.8-7.1-3.6-2.3-4-2.2-8.9.3-12.7,2.9-4.7,10.2-4.4,13.1.4.6,1.2,1.1,2.5,1.4,3.8.6,2.3-.1,3.2-2.5,2.9h-4.6ZM393.5,185.2h3.8c2,.1,2.3-.8,1.7-2.5-.6-2.3-2.6-3.9-5-4-2.4-.2-4.7,1.2-5.6,3.6-1.1,2.4-.8,2.9,1.8,2.9h3.3Z"/>
  <path class="st0" d="M66.8,187.2h-5.5c-1.2,0-1.6.5-1.5,1.7.2,2.5,1.9,4.6,4.4,5.3,2.4.7,4.9-.4,6.1-2.5.2-.4.5-.8.6-1.2.3-.6,1.1-.9,1.7-.6h.2c.8.4.3,1.1,0,1.7-.9,2.7-3.3,4.5-6.1,4.7-3.2.3-6.1-.3-7.8-3.2-2.4-3.9-2.5-8.8,0-12.7,1.9-3.3,6-4.6,9.5-3.2,3.4,1.6,5.5,5.1,5.3,8.8,0,1.2-.9,1.2-1.7,1.2h-5.2ZM65.4,185.2h4.1c1.7.1,2.1-.7,1.6-2.2-.5-2.4-2.6-4.2-5-4.4s-4.7,1.2-5.6,3.5c-1.2,2.5-.9,2.9,1.9,2.9h3v.2Z"/>
  <path class="st0" d="M219.6,187.2c-1.6,0-3.3.1-4.9,0-1.9-.1-2.1.8-1.8,2.3.4,2.3,2.1,4.2,4.4,4.7,2.4.7,4.9-.4,6-2.7.2-.4.4-.8.7-1.2.4-.6,1.1-.8,1.7-.4,1,.3.5,1.1.3,1.6-.8,2.6-3.1,4.5-5.8,4.8-3.2.4-6.3,0-8.2-3.1-2.4-3.9-2.6-8.8-.3-12.7,1.9-3.4,6.1-4.8,9.7-3.2,3.1,1.2,5.7,5.8,5.2,8.9-.2,1-.8,1.1-1.6,1.1h-5.4,0ZM218.3,185.2h4.1c1.8.1,2-.8,1.5-2.2-.5-2.4-2.6-4.1-5.1-4.3s-4.7,1.3-5.6,3.6c-1.1,2.4-.9,2.9,1.7,2.9h3.4Z"/>
  <path class="st0" d="M182.5,186.6c0,6.1-3.7,10-9.2,9.8-3.5,0-6.5-2.4-7.6-5.7-1.5-4-.5-9.3,2.4-11.9,2.5-2.3,6.1-2.8,9.2-1.4,3.2,1.3,5.2,5,5.2,9.2h0ZM180.1,186.4c0-3.3-1.5-6-3.7-7.1-2.4-1.2-5.2-.6-6.9,1.5-2.4,3.2-2.5,7.6-.4,11,1.4,2.2,4.2,3.1,6.7,2.2,2.7-1,4.4-3.9,4.4-7.5h-.1Z"/>
  <path class="st0" d="M149.8,186.5c0,6.4-3.8,10.3-9.7,9.9-1.7-.1-3.4-.8-4.7-2-3-3.2-4-7.8-2.4-11.9,1.6-4,4.5-5.9,8.6-5.7,4.8.2,8.1,4.2,8.1,9.8h0ZM134.8,187.1c0,2.9,1.6,5.6,4.2,6.8,2.2,1,4.7.4,6.2-1.5,2.3-2.6,2.8-6.3,1.5-9.4-1.5-4.4-6.7-5.7-9.6-2.6-1.6,1.9-2.4,4.3-2.2,6.8h0Z"/>
  <path class="st0" d="M309.3,186.4c0,5.7-3.1,9.7-7.9,9.9-6.9.4-11.4-6.5-8.9-13.6,1.2-4.2,5.5-6.8,9.8-6,4.2.7,7,4.5,7.1,9.6h-.1ZM294.3,186.5c0,3.5,1.7,6.3,4.2,7.3,3,1.2,6.4-.3,7.6-3.2,0-.2.2-.4.2-.7,1.6-4.4,0-9.4-3.6-10.7-4.4-1.7-8.4,1.9-8.4,7.4h0Z"/>
  <path class="st0" d="M283.2,186.4c0,5.7-3.2,9.6-8,9.9-6.8.4-11.2-6.2-9-13.4,1.1-4.4,5.4-7.1,9.8-6.2,4.2.7,7.1,4.6,7.1,9.7h.1ZM268.1,186.5c.3,2.9.9,5.5,3.6,7,4.2,2.3,8.6-.7,9-6.3.4-2.9-.7-5.7-3.1-7.4-1.7-1.3-4.1-1.4-5.9-.3-2.8,1.5-3.3,4.3-3.6,7.1h0Z"/>
  <path class="st0" d="M555,186.6c0,4-1.4,7.4-5.3,9.1-3,1.5-6.7.9-9.1-1.5-3.3-3.2-3.7-7.3-2.4-11.4,1.1-4.4,5.5-7.1,9.9-6h0c4.2.8,7,4.7,6.9,9.8h0ZM540.1,186.5c0,3.5,1.6,6.3,4.1,7.3,2.1,1,4.7.4,6.2-1.3,2.3-2.6,2.9-6.2,1.6-9.4-.9-3.1-4.2-5-7.3-4.1-.9.2-1.7.7-2.3,1.3-1.6,1.7-2.4,3.9-2.3,6.2h0Z"/>
  <path class="st0" d="M360.9,160.4c-4,0-6.8-1.7-7.4-4.7-.1-.6-.7-1.5.4-1.8.9-.2,1.5.1,1.9,1,1.1,2.8,4.3,4.2,7.1,3.1.2,0,.3-.1.5-.2,1.3-.3,2.2-1.5,2.3-2.8,0-1.3-.9-2.5-2.2-2.8-1.8-.6-3.7-1-5.5-1.6-2.4-.8-4.4-2-4.2-4.9.1-2.5,2.1-4.4,5.1-4.9,3.6-.7,6.6.6,7.9,3.3.4.8,1.2,1.8.1,2.4s-1.7-.2-2.2-1.2c-1.1-2.3-3.9-3.3-6.3-2.1-1.2.3-2,1.3-2.2,2.6,0,1.2.8,2.3,2,2.6,1.5.5,3.1,1,4.7,1.4,3.7.9,5.4,2.7,5.2,5.6s-2.4,4.7-5.8,5.1h-1.4Z"/>
  <path class="st0" d="M83,196.3c-3.6,0-6.3-1.6-7.1-4.4-.2-.7-.8-1.7.3-2.1s1.5.2,2,1.2c1.3,2.9,4.7,4.1,7.5,2.8.2-.1.5-.2.7-.4,1-.5,1.6-1.5,1.6-2.7s-.8-2.1-1.8-2.5c-2-.7-4-1.3-6-1.7-2.3-.8-4.1-2-4-4.8s1.9-4.2,4.4-4.8c3.9-1,7.4.3,8.7,3.2.4.8,1,1.8,0,2.4s-1.5-.2-2-1.1c-1.2-2.4-4.1-3.4-6.4-2.2h0c-1.1.3-1.9,1.2-2,2.4s.7,2.4,1.9,2.7c1.5.6,3.1.9,4.7,1.3,3.7,1,5.4,2.8,5.2,5.6s-2.7,5-6.3,5.2h-1.4Z"/>
  <path class="st0" d="M422.1,186.5v-7.4c0-1.9,1-2.5,2.3-1.3,1,.9,1.5.5,2.2,0,5.6-3.2,10.4-.5,10.5,5.8v10.4c0,.8,0,1.7-1.2,1.7s-1.2-.8-1.2-1.7v-9.8c0-3.7-1.2-5.2-4-5.4-2.9-.3-5.5,1.8-5.8,4.7v.5c-.2,3.1,0,6.2-.1,9.3,0,1,.5,2.4-1.3,2.5s-1.2-1.5-1.3-2.4c-.1-2.2,0-4.5,0-6.8h-.1Z"/>
  <path class="st0" d="M356,185.2c0-3.5,2.2-6.7,5.4-8,3.2-1.3,6.9-.5,9.3,2,2.7,2.8,3.4,8.3,1.6,12.3-1.5,3.3-4.9,5.2-8.4,4.8-4.9-.2-8.1-4.3-7.9-11.1ZM371,186.5c0-5.7-4.3-9.2-8.7-7.3-3.1,1.5-3.9,4.2-3.9,7.3s.8,5.8,3.9,7.3c4.4,2,8.7-1.7,8.7-7.3h0Z"/>
  <path class="st0" d="M459.3,186.4c0-4,1.3-7.3,5.2-9.1,3.2-1.4,6.9-.7,9.3,1.7,2.9,2.8,3.6,8.3,1.8,12.5-1.4,3.3-4.8,5.2-8.4,4.8-4.8-.2-7.9-4.1-7.9-9.9ZM474.2,187.1c0-1.6-.2-3.1-.8-4.5-1-3-4.4-4.6-7.4-3.6-1.7.6-3.1,2-3.7,3.8-1,2.4-1,5.1,0,7.5.8,2.5,3.2,4.1,5.8,4.1s4.7-1.8,5.4-4.2c.3-.9.5-1.9.6-2.9h0v-.2Z"/>
  <path class="st0" d="M147.8,160.4c-3.9,0-6.5-1.6-7.3-4.5-.2-.7-.9-1.7.4-2,.9-.3,1.5.1,1.9,1.1,1.1,2.8,4.3,4.2,7.2,3.1.2,0,.3-.1.5-.2,1.3-.4,2.2-1.5,2.2-2.8s-.9-2.5-2.2-2.8c-1.9-.6-3.9-1-5.8-1.7-2.3-.7-4-2-3.9-4.6,0-2.5,1.9-4.6,4.4-4.9,3.9-1,7.4.2,8.7,3.2.3.8,1.1,1.8,0,2.4s-1.7-.2-2.2-1.3c-1.2-2.4-4.2-3.3-6.5-2h0c-1.1.4-1.8,1.3-1.9,2.4,0,1.1.6,2.2,1.7,2.5,1.4.5,2.7.9,4.2,1.3,4.4,1,6.2,2.8,5.9,5.8s-3,5.1-7.2,5.1h0Z"/>
  <path class="st0" d="M449.5,150.6c0-7.3,5.6-11.6,11.8-9.3,4.7,1.8,6.9,8.1,4.8,13.7-1.6,4.4-6.4,6.6-10.8,5-.1,0-.3-.1-.4-.2-3.5-1.3-5.3-4.6-5.3-9.3h-.1ZM464.4,150.6c0-5.5-4.1-9.1-8.3-7.4-3.2,1.3-4.1,4-4.2,7,0,3,.7,6,3.9,7.5,4.4,2.1,8.6-1.4,8.7-7.1h-.1Z"/>
  <path class="st0" d="M441.1,186.5v-7.4c0-1.9,1.1-2.5,2.3-1.3s1.5.4,2.2,0c5.8-3.1,10.5-.5,10.6,6.1v10.2c0,.9,0,1.7-1.2,1.7s-1.3-.8-1.3-1.7v-9.8c0-3.7-1.3-5.3-4.3-5.4-3-.1-5.6,2.3-5.7,5.3h0c-.2,3.2,0,6.3-.1,9.4,0,.9.4,2.2-1.2,2.2s-1.3-1.2-1.3-2.1v-7.1h0Z"/>
  <path class="st0" d="M247.6,186.3v-7.4c0-.6-.2-1.4.7-1.6.6-.1,1.5-.3,1.7.5.4,1.4.9.9,1.6.3,2.4-1.8,5.6-2.1,8.2-.6,2.7,1.4,2.8,4,2.8,6.6v9c0,.9.6,2.5-1.1,2.5s-1.2-1.6-1.3-2.6v-9c0-3.5-1.5-5.1-4.2-5.2-3-.2-5.5,2-5.7,5h0c-.2,3.3,0,6.5-.1,9.8,0,1,.2,2.1-1.4,2.1s-1.1-1.2-1.1-2c-.1-2.4,0-4.9,0-7.4h0Z"/>
  <path class="st0" d="M472.5,143.2c1-.7,2-1.4,3.1-1.9,4.7-2,9.1.7,9.2,5.8.1,3.6,0,7.3,0,10.9s0,1.9-1.3,1.8-1.1-1-1.1-1.8v-9.8c0-3.3-1.5-5.2-4.1-5.3-3-.2-5.6,2.1-5.8,5.2h0c-.2,3.2,0,6.4-.1,9.5,0,.9.3,2.2-1.3,2.1s-1.2-1.3-1.2-2.2v-13.9c0-.8-.5-1.9.9-2.2s1.8.6,1.8,1.7h-.1Z"/>
  <path class="st0" d="M303.4,143.3c1.5-1.7,3.6-2.6,5.8-2.6,3.9,0,6.2,2,6.4,5.9s0,7.6,0,11.4,0,1.7-1.2,1.7-1.3-.8-1.3-1.6v-9.8c0-3.6-1.5-5.4-4.3-5.5-3,0-5.6,2.3-5.7,5.4h0c-.2,3.1,0,6.2-.1,9.3,0,.9.5,2.2-1.2,2.3-1.9,0-1.3-1.5-1.3-2.4v-13.6c0-.8-.5-1.9.8-2.3s1.7.7,2,1.9h.1Z"/>
  <path class="st0" d="M201.8,184.1v-9.5c0-1.3-.4-1.8-1.7-1.7h-5.4c-1.8,0-1.5,0-1.5-1.1s.8-1,1.5-1h16.9c.7,0,1.5,0,1.6,1s-.7,1.1-1.5,1.1h-.8c-4.3,0-6.4,2.3-6.4,6.6v14.2c0,.9.3,2.1-1.3,2.1s-1.4-1.1-1.4-2.1v-9.5h0Z"/>
  <path class="st0" d="M433.8,140.7c3-.2,5.8,1.5,7,4.2.2.7.8,1.5,0,1.9-.6.4-1.5.2-1.9-.4,0,0,0-.2-.1-.3-1.2-2.7-3.2-4-6.1-3.3-3.2.8-4.4,3.3-4.8,6.3-.4,2.3.1,4.6,1.4,6.5,1.5,2.5,4.8,3.3,7.3,1.8.9-.5,1.6-1.4,2.1-2.3.2-.4.4-.8.5-1.2.3-1,1.1-.9,1.8-.8,1.2.3.6,1.1.4,1.7-1.3,4.2-5.8,6.5-10,5.2-1.1-.3-2-.9-2.9-1.6-4.4-3.8-4.1-12.9.6-16.3,1.4-1,3.1-1.6,4.8-1.5h0Z"/>
  <path class="st0" d="M228.5,186.8c0-7.7,5.8-12.1,12.1-9.5,1.7.7,3,2.1,3.6,3.9.2.7.6,1.5-.4,1.8-.7.3-1.5,0-1.8-.6h0c-1.1-3.2-3.4-4-6.3-3.3-2.6.6-4.4,3.2-4.6,6.4-.3,2.3.3,4.6,1.6,6.5,1.5,2.4,4.7,3.1,7.2,1.6.9-.6,1.7-1.5,2.1-2.5.2-.4.3-.8.5-1.3.3-.7,1-.7,1.6-.6.9.2.6.9.5,1.5-1.1,4.1-5.3,6.6-9.4,5.6-1.1-.3-2.1-.8-3-1.5-2.4-1.9-3.7-4.8-3.6-7.9h-.1Z"/>
  <path class="st0" d="M337.7,186.9c0-7.8,5.7-12.1,12-9.6,1.5.5,2.7,1.6,3.3,3.1.3.8,1.1,1.8,0,2.4s-1.8-.1-2.2-1.2c-.5-1.5-1.9-2.6-3.5-2.7-2.1-.4-4.3.4-5.6,2.1-2.3,3.3-2.3,7.7,0,11,1.6,2.4,4.9,3.1,7.3,1.4.9-.6,1.6-1.5,2-2.5.2-.4.3-.9.5-1.3.4-.7,1-.7,1.7-.5.9.3.6,1,.4,1.6-.9,2.8-2.5,4.9-5.5,5.5-3,.8-6.2-.2-8.2-2.6-1.6-1.8-2.5-4.2-2.4-6.7h.2Z"/>
  <path class="st0" d="M512.9,186.9c0-7.8,5.7-12.1,12-9.6,1.7.7,3.1,2.1,3.6,3.8.2.6.6,1.5-.5,1.8-.7.3-1.5,0-1.7-.7h0c-.4-1.5-1.6-2.7-3.2-3.1-2-.6-4.1,0-5.6,1.4-3.1,2.9-3.1,9.4,0,12.4,2.1,2,5.4,2,7.5,0,.4-.4.8-.9,1-1.5.2-.5.3-1,.6-1.5.3-.7,1-.7,1.7-.6,1,.2.6.9.5,1.5-.5,2.7-2.5,4.8-5.2,5.4-3.1.9-6.4,0-8.4-2.5-1.6-1.9-2.4-4.3-2.3-6.7h0Z"/>
  <path class="st0" d="M422.8,68.6c1-4.8,2.9-9.3,3.4-14.2,1.2,7.6.7,15.4-1.5,22.8-.2.9-1,1.8-.3,2.8h0c-.6,0-.6.4-.6.9-1.9,2.5-4.6,4.1-7.7,4.6-.2-1.1.7-1.8,1.1-2.6,2.4-3.9,4.1-8.2,4.9-12.7h0c.6-.4.4-1,.6-1.6h.1Z"/>
  <path class="st0" d="M486,193.1c1.7-4.9,3.2-9.1,4.7-13.3.2-.7.5-1.4.8-2,.5-.8,1.3-.6,2-.4s.2.9,0,1.4c-1.9,5.1-3.8,10.2-5.7,15.3-.3.9-.7,1.6-1.9,1.6s-1.5-.7-1.9-1.6c-1.9-4.9-3.8-9.8-5.6-14.8-.2-.6-1.3-1.5,0-2,.8-.4,1.8,0,2.2.8,0,.1.1.3.1.4,1.2,3.4,2.4,6.7,3.5,10l1.7,4.5h0Z"/>
  <path class="st0" d="M325.9,157.2c1.8-5,3.2-9.1,4.7-13.3.2-.6.4-1.2.7-1.8.4-.9,1.2-.8,1.9-.6,1,.3.3,1.1.2,1.6-1.9,5.1-3.7,10.2-5.6,15.3-.3.8-.7,1.5-1.7,1.5s-1.8-.6-2-1.5c-1.9-5-3.9-10-5.7-15-.2-.5-1.1-1.4,0-1.8.8-.4,1.8-.1,2.2.7,0,.1.1.3.2.4.8,2.3,1.6,4.6,2.4,6.9.8,2.3,1.7,4.5,2.8,7.6h-.1Z"/>
  <path class="st0" d="M159.4,150.5v-4.6c0-1.5,0-2.6-1.9-2.4-.6,0-1.1-.1-1.2-.9s.2-1.2.9-1.1c2.4.2,2.2-1.5,2.2-3s-.5-2.2,1.2-2.2,1.3,1.2,1.3,2.1c0,1.7-.2,3.4,2.4,3.1.7-.1,1.2.4,1.1,1.2s-.8,1-1.5.9c-2.1-.3-2.2,1-2.1,2.5v8.7c0,1.7,0,3.2,2.4,3.1.5-.1,1,.2,1.2.8v.4c0,.7-.6.8-1.1.9-3,.6-4.8-.7-4.9-3.8v-5.7Z"/>
  <path class="st0" d="M570.9,183.3c-.9-3.6-2.2-4.7-5-4.5-2.9,0-5.2,2.4-5.2,5.3-.3,3.1,0,6.2-.2,9.2,0,.9.5,2.2-1.1,2.3-1.6,0-1.2-1.3-1.2-2.2v-14.2c0-.7-.3-1.6.6-1.9.6-.3,1.4,0,1.7.6v.2c.3.8,1,.8,1.5.3,1.8-2.1,4.3-1.2,6.4-1.3s4.4,2.7,4.5,5.3c0,3.9,0,7.8,0,11.7s-.3,1.8-1.6,1.3v-4c-.2-2.7.7-5.5-.5-8.1h0Z"/>
  <path class="st0" d="M372.6,150.7v-4.4c0-1.5.3-3.3-2.2-2.9-.6,0-1-.3-1-1s.4-1.1,1-1c2.6.3,2.1-1.5,2.2-3,0-.9-.5-2.2,1.2-2.2s1.2,1.3,1.2,2.2c0,1.8,0,3.3,2.5,2.9.5,0,1,.3,1.1.8v.2c0,.9-.5,1.1-1.2,1.1-2.4-.4-2.3,1.2-2.3,2.8v9c0,1.5.3,2.5,2.1,2.4.8,0,1.5.2,1.4,1.2s-.8.8-1.5.9c-3.1.3-4.4-.8-4.5-3.9v-5.1h0Z"/>
  <path class="st0" d="M125.6,180c1.2-1.4,2.7-2.3,4.5-2.6.7,0,1.7-.4,1.9.9.1,1-.6,1-1.4,1.2-3.8,1-5.2,2.9-5.2,6.9v7.6c0,.8,0,1.7-1.2,1.8s-1.5-.9-1.5-1.8v-13.9c0-.9-.6-2.4,1.1-2.6s.9,1.7,1.8,2.6h0Z"/>
  <path class="st0" d="M296,147.2v10.7c0,.9.1,1.9-1.3,1.9s-1.3-.9-1.3-1.8v-21.8c0-.9-.2-1.9,1.2-1.9s1.4,1.1,1.4,2.1v10.9h0Z"/>
  <path class="st0" d="M415,182.9v-10.6c0-.9-.4-2.2,1.3-2.1s1.2,1.1,1.2,2v21.6c0,.9.3,2-1.2,2s-1.3-1.2-1.3-2.1v-10.8Z"/>
  <path class="st0" d="M286.3,182.7v-10.6c0-.9-.2-1.9,1.2-1.9s1.3,1,1.3,1.9v21.5c0,1,.1,2.2-1.5,2.1s-1.1-1.2-1.1-2v-10.9h.1Z"/>
  <path class="st0" d="M114.5,179.9c1.2-1.4,2.9-2.3,4.8-2.6.7,0,1.5-.2,1.6.9,0,.8-.4,1-1.1,1.2-4.4,1.4-5.5,2.9-5.5,7.5v6.5c0,.9.5,2.2-1.1,2.3-1.8,0-1.3-1.5-1.3-2.4v-13.4c0-.9-.7-2.4,1.1-2.6s.8,1.7,1.6,2.6h0Z"/>
  <path class="st0" d="M155.3,183.2v10.6c0,.9.1,1.9-1.3,1.9s-1-1.1-1-1.9v-21.8c0-.9-.2-1.9,1.3-1.8,1.4.1,1,1.1,1,1.8v11.2Z"/>
  <path class="st0" d="M161.9,183v10.6c0,.8.3,2-1.1,2.1s-1.2-1-1.2-1.9v-21.8c0-.8-.2-1.7,1.1-1.8s1.2,1,1.2,1.9v10.9Z"/>
  <path class="st0" d="M446.9,150.5v7.6c0,.8,0,1.7-1.2,1.7s-1.3-.7-1.3-1.6v-14.9c0-1,0-1.9,1.4-1.8s1.1.9,1.1,1.7v7.3Z"/>
  <path class="st0" d="M532.1,186.4v-7.3c0-.8,0-1.7,1.2-1.7s1.4.9,1.4,1.8v14.7c0,1,0,1.9-1.4,1.9s-1.2-1.1-1.2-2v-7.4Z"/>
  <path class="st0" d="M137.1,150.6v7.3c0,.8.1,1.7-1.1,1.7s-1.3-.6-1.3-1.5v-14.9c0-1,.2-1.9,1.5-1.8s.9,1.1,1,1.8v7.3h0Z"/>
  <path class="st0" d="M334.4,186.5v7.7c0,.8-.1,1.5-1.1,1.5s-1.2-.6-1.2-1.5v-15.2c0-.9,0-1.7,1.3-1.6s1,.8,1,1.6v7.6h0Z"/>
  <path class="st0" d="M384.1,150.8v7.1c0,.8.2,1.7-1.1,1.8s-1.2-.8-1.2-1.6v-15c0-.8,0-1.5,1.1-1.6s1.2.8,1.2,1.7v7.6Z"/>
  <path class="st0" d="M490.4,164.1c-.4-.4-.4-1,0-1.5,1-1.2,1.6-2.3,0-3.6-.7-.6-.5-2,0-2.9s1.3-.5,2-.4c.3,0,.6.3.8.5,1.2,2.1-.4,6.6-2.8,7.8h0Z"/>
  <path class="st0" d="M456.6,139.1c1.5-1.9,1.7-5.4,6.1-4.6-2.2,1.9-3.2,4.3-6.1,4.6Z"/>
  <path class="st0" d="M551.3,170.7c-1.8,1.5-3.2,2.7-4.5,3.9-.5.4-1,1-1.6.6-.9-.7,0-1.2.5-1.7,1.1-1.6,1.8-4,5.7-2.7h-.1Z"/>
  <path class="st0" d="M304.9,170.5c-1.5,1.6-2.9,3-4.2,4.4-.3.4-.9.5-1.3.2h-.1c-.3-.5,0-1,.3-1.3,1.4-1.5,1.8-4.5,5.4-3.3h0Z"/>
  <path class="st0" d="M570.9,183.3c1.1,2.7.3,5.4.5,8.2,0,1.3,0,2.7,0,4-.6,0-.8-.3-.8-.8.2-3.8-.3-7.6.3-11.4Z"/>
  <path class="st0" d="M577.1,120.8c-.5.9,0,2.7-2,2.9-.9,0-1.6-.3-1.2-1.2s0-2.9,2-3c.9,0,1.4.2,1.2,1.4h0Z"/>
  <path class="st0" d="M444.4,136.1c0-1,0-1.8,1.3-1.8s1.3,1,1.3,1.9.2,1.9-1.2,2-1.4-1.1-1.4-2h0Z"/>
  <path class="st0" d="M384.3,136c0,1,0,2.1-1.5,2.1s-1.2-1-1.2-1.9-.2-1.9,1.2-1.9,1.5.8,1.4,1.8h.1Z"/>
  <path class="st0" d="M567.9,120.5c-.6,1,0,2.9-2.1,3.1-.6,0-1.3-.2-1-.8.5-1.2,0-3.1,1.9-3.4.7,0,1.3,0,1.1,1.2h0Z"/>
  <path class="st0" d="M534.7,171.5c0,1.2.2,2.3-1.2,2.3s-1.5-.8-1.5-1.8-.3-1.9,1.2-1.9,1.5.6,1.5,1.4Z"/>
  <path class="st0" d="M332,171.6c0-.7,0-1.5,1.5-1.5s1.2,1,1.2,1.9,0,1.9-1.4,1.8-1.3-1-1.3-2.2h0Z"/>
  <path class="st0" d="M135,137.4c-.1-.5-.2-1.1-.3-1.6,0-.9.2-1.6,1.4-1.5s1,.9,1,1.6.1,1.1-.3,1.5h-1.8Z"/>
  <path class="st0" d="M135,137.4h1.7c-.6,1-1.2,1-1.7,0Z"/>
  <path class="st0" d="M367.3,38.2c-4.2,2-7.7,5.1-10.4,8.9-4.4,6.5-4.8,13.1-.6,19.8-.4,1.9-.9,3.9-1.3,5.8-7.8-6.1-9.4-18.5-3.7-27.9,2.8-4.5,6.7-8.2,11.3-10.8,1.9.9,3.5,2.3,4.6,4.1h.1Z"/>
  <path class="st0" d="M357.6,31.8c-6.6,4.4-12.3,9.6-15.6,17-.8,1.7-1.4,3.5-2,5.3-.8-3.3-1-6.7-.6-10.1,2.9-5.2,6.6-10,11-14.1,2.6,0,5.1,0,7.3,1.8h0Z"/>
  <path class="st0" d="M340.5,66.3c-.3,1.8,1,3.3,1,5.1-2.5-3.3-3.9-7.3-4.2-11.4,1.3,2,2.3,4.1,3.2,6.3Z"/>
  <path class="st0" d="M416.3,33.9c2.9.6,5.6,1.7,8.1,3.1,5.7,5,8.2,12.6,6.5,20-1-4.6-1.4-9.4-4.7-13.1-1.7-2.7-4.4-4.6-7.5-5.2h-1.1c-.4-1.6-.9-3.2-1.3-4.8Z"/>
  <path class="st0" d="M394.9,40.5c-15.4,4.2-27.3,12.7-34.1,27.5-.6,1.1-1,2.3-1,3.6-.8,1.4-1.2,3-1.2,4.6-.3,2.4-1.3,4.9.7,7.3.5.6,0,1-.4,1.4s-.9.9-1.5.5c-.9-.9-2.3-.9-2.2-3.2,0-3.1,0-6.1-.3-9.2.4-1.9.9-3.9,1.3-5.8,3.2-8.9,8.8-16.7,16.3-22.6,4.6-3.6,9.9-5.5,15.1-7.9l8-2.3c1.8,0,3.6-.5,5.4-1l4.2-.3,3.2.2c1.7,1,1.9,2.7,2.1,4.4l-2.4.4c-1-.2-2,0-2.9.3-1.6,0-3.2.3-4.7.9-1.9,0-3.7.6-5.4,1.4l-.2-.2Z"/>
  <path class="st0" d="M400.4,39c4.8,8.4,3.2,19.1-3.9,25.7-1.2,0-2.3-.2-3.2-1,3.5-4.5,5.8-9.3,5.2-15.2-.3-3-1.5-5.8-3.5-8,1.7-.9,3.6-1.4,5.5-1.5h-.1Z"/>
  <path class="st0" d="M392,67.9c-1.2,1-2.4,1.9-3.6,2.6-.8.4-2.1.7-2.6-.5s.3-1.7,1.5-1.8c1-.3,2-.9,2.7-1.7.9,0,1.6.6,2,1.4Z"/>
  <path class="st0" d="M358.6,76.2c0-1.6.4-3.2,1.2-4.6,5.8,5.1,13.1,6.5,20.5,7.3,1.2.2,2.1,1.1,2.3,2.3-7.3,1.1-14.7,0-21.3-3.5-.9-.5-1.8-1-2.6-1.5h-.1Z"/>
  <path class="st0" d="M403.9,91.5c-5,4.2-11.1,5.8-17.3,7.1-3.2.7-6.4,1-9.6.6v-.5c.8,0,1.5-.7,2.4-.4.4.3.7.2,1-.2,6.1-1.5,12.1-3.2,17.3-6.8.7-.3,1.2-.8,1.6-1.5,1.4.8,3.5-.3,4.7,1.6h-.1Z"/>
  <path class="st0" d="M396.7,83.4c1.7-1.6,3.4-3.2,5-4.9.9-.9,2.2-1.7,2.2-3.2s.9-1,1.6-1c1,0,.8.8.9,1.4.2,1.2-.2,2.5-1.1,3.3-1.8,1.8-3.4,3.7-5,5.7-1.3,0-2.6-.5-3.6-1.3Z"/>
  <path class="st0" d="M388.4,78.2l7.9-2.5c.1,0,.3,0,.6.2-2.1,1.6-4.4,2.8-6.9,3.6-.8,0-1.5-.5-1.6-1.3Z"/>
  <path class="st0" d="M415.7,85.8c.1-.2.3-.5.7-.4l-.7.4Z"/>
  <path class="st0" d="M423.9,80.9c0-.5,0-.8.6-.9l-.6.9Z"/>
  <path class="st0" d="M422.8,68.6c-.1.6,0,1.2-.5,1.7-.2-.6,0-1.3.5-1.7Z"/>
  <path class="st0" d="M408,37.8c.2,2.5,2.6,4.8.6,7.5-.4.5-.5,1.6-1.5,1-.8-.4-2.1-1.5-1.7-1.9,1.9-2.4-.5-4.2-.4-6.3.9-.5,2-.6,2.9-.3h.1Z"/>
  <path class="st0" d="M376.9,98.8c0,.2.1.3,0,.5-2.3.9-4.6,0-6.9.4v-.9h6.9Z"/>
  <path class="st0" d="M380.2,98.1c-.2.4-.6.6-1,.2.2-.5.6-.6,1-.2Z"/>
</svg>