<?xml version="1.0" encoding="UTF-8"?>
<svg id="Capa_1" xmlns="http://www.w3.org/2000/svg" version="1.1" viewBox="0 0 530.1 212.6">
  <!-- Generator: Adobe Illustrator 30.1.0, SVG Export Plug-In . SVG Version: 2.1.1 Build 136)  -->
  <defs>
    <style>
      .st0 {
        stroke-width: .2px;
      }

      .st0, .st1, .st2, .st3, .st4 {
        stroke: #fff;
        stroke-miterlimit: 10;
      }

      .st0, .st2, .st5, .st3, .st4 {
        fill: none;
      }

      .st6 {
        opacity: .6;
      }

      .st1, .st7, .st8 {
        fill: #fff;
      }

      .st8 {
        fill-rule: evenodd;
      }

      .st9 {
        opacity: .4;
      }

      .st2 {
        stroke-width: 5px;
      }

      .st10, .st11 {
        isolation: isolate;
      }

      .st3 {
        stroke-width: 4.2px;
      }

      .st11 {
        opacity: .9;
      }

      .st4 {
        stroke-width: 2px;
      }

      .st12 {
        opacity: .5;
      }
    </style>
  </defs>
  <circle class="st2" cx="99" cy="103.2" r="90.5"/>
  <g class="st10">
    <g>
      <path class="st7" d="M251.1,98c-24.5,0-44.5-19-44.5-44.2s20.1-44.2,44.5-44.2h24.1v14.8h-24c-16.8,0-30.1,12.6-30.1,29.4s13.4,29.4,30.1,29.4h24v14.8h-24.1Z"/>
      <path class="st7" d="M330.1,98l-24.6-37.2h-1.9v37.2h-14.1V9.7h23.3c22.1,0,32.2,10,32.2,26.2s-7,21.6-23.1,24.1l25.4,37.9h-17.2,0ZM303.7,24.4v22.1h9.1c14,0,17.4-5.5,17.4-10.2,0-8.7-4.3-11.9-17.4-11.9,0,0-9.1,0-9.1,0Z"/>
      <path class="st7" d="M402,99.2c-25.1,0-45.4-19.7-45.4-44.8s20.3-44.8,45.4-44.8h26.3v14.8h-26.4c-17,0-30.6,13.1-30.6,29.9s13.6,30,30.4,30h.3c17.6,0,28.6-11,30.4-23.3h-32.3v-14.4h47.4v11.7c0,24.5-22.9,40.9-45.5,40.9h0Z"/>
      <path class="st7" d="M502.5,98l-24.6-37.2h-1.9v37.2h-14.1V9.7h23.3c22.1,0,32.2,10,32.2,26.2s-7,21.6-23.1,24.1l25.4,37.9h-17.2,0ZM476,24.4v22.1h9.1c14,0,17.4-5.5,17.4-10.2,0-8.7-4.3-11.9-17.4-11.9,0,0-9.1,0-9.1,0Z"/>
    </g>
  </g>
  <g class="st10">
    <g>
      <path class="st7" d="M213.9,160.9c-5.7,0-9.3-3.9-9.3-10.2s3.6-10.2,9.3-10.2,6.7,1.6,7.9,4.9l-3,1.4c-.8-2.3-2.2-3.4-4.7-3.4-3.7,0-6.1,2.7-6.1,7.4s2.2,7.4,6,7.4,4.3-1.3,5.1-3.8l3,1c-1.2,3.6-4.3,5.5-8.1,5.5h0Z"/>
      <path class="st7" d="M237.5,154.4h-11c.4,2.6,1.9,4.1,4.3,4.1s3.3-.7,3.8-2l2.7,1.1c-1.1,2.2-3.2,3.5-6.5,3.5-4.7,0-7.5-2.9-7.5-7.8s2.6-7.8,7.3-7.8,7,3,7,7.3v1.7h-.1ZM226.6,151.9h8.1c-.3-2.5-1.7-4-4-4s-3.8,1.4-4.1,4Z"/>
    </g>
  </g>
  <g class="st10">
    <path class="st7" d="M253.8,150.9v9.7h-3.2v-8.7c0-3-1.4-4-3.2-4s-4.1,1.3-4.1,4.7v7.9h-3.2v-15h2.8l.2,2.5c1-2,2.9-2.8,5.1-2.8,3.2,0,5.7,1.9,5.7,5.6h-.1Z"/>
  </g>
  <g class="st10">
    <path class="st7" d="M266.8,159.8c-1,.8-2.4,1.3-4,1.3-2.6,0-4.6-1.2-4.6-4.3v-8.5h-2.8v-2.5h2.8v-3.5l3.2-.9v4.4h5.2v2.5h-5.2v8c0,1.5.9,2.1,2.2,2.1s1.8-.4,2.4-1l.7,2.4h0Z"/>
  </g>
  <g class="st10">
    <path class="st7" d="M277.7,145.7l-.5,3c-.4-.3-1.1-.4-1.9-.4-1.8,0-3.8,1.4-3.8,4.5v7.9h-3.2v-15h2.7l.3,2.7c.8-1.9,2.4-3,4.7-3s1.2,0,1.6.3h0Z"/>
  </g>
  <g class="st10">
    <g>
      <path class="st7" d="M293,153.2c0,4.9-2.8,7.8-7.5,7.8s-7.5-2.9-7.5-7.8,2.8-7.8,7.5-7.8,7.5,2.9,7.5,7.8ZM281.2,153.2c0,3.4,1.5,5.3,4.2,5.3s4.3-1.9,4.3-5.3-1.6-5.3-4.3-5.3-4.2,1.9-4.2,5.3Z"/>
      <path class="st7" d="M317.6,138.9v21.7h-2.8l-.2-2.7c-.9,1.8-2.7,3-5.1,3-4.1,0-6.6-2.9-6.6-7.8s2.6-7.8,6.7-7.8,3.9,1.1,4.8,2.7v-9.2h3.2ZM314.5,153.4v-.4c0-3.1-1.6-5-4.1-5s-4.1,1.9-4.1,5.2,1.6,5.2,4.1,5.2,4.1-1.9,4.1-5Z"/>
      <path class="st7" d="M334.5,154.4h-11c.4,2.6,1.9,4.1,4.3,4.1s3.3-.7,3.8-2l2.7,1.1c-1.1,2.2-3.2,3.5-6.5,3.5-4.7,0-7.5-2.9-7.5-7.8s2.6-7.8,7.3-7.8,7,3,7,7.3v1.7h0ZM323.5,151.9h8.1c-.3-2.5-1.7-4-4-4s-3.8,1.4-4.1,4Z"/>
    </g>
  </g>
  <g class="st10">
    <path class="st7" d="M353,152.8h-4.3v7.9h-3.2v-19.8h8.1c4.3,0,6.9,2.2,6.9,6s-1.6,4.8-4.2,5.6l5.4,8.3h-3.7l-5.1-7.9h.1ZM348.7,150.2h4.6c2.6,0,3.9-1.1,3.9-3.3s-1.3-3.3-3.9-3.3h-4.6v6.5h0Z"/>
  </g>
  <g class="st10">
    <g>
      <path class="st7" d="M376.6,154.4h-11c.4,2.6,1.9,4.1,4.3,4.1s3.3-.7,3.8-2l2.7,1.1c-1.1,2.2-3.2,3.5-6.5,3.5-4.7,0-7.5-2.9-7.5-7.8s2.6-7.8,7.3-7.8,7,3,7,7.3,0,1.3,0,1.7h0ZM365.7,151.9h8.1c-.3-2.5-1.7-4-4-4s-3.8,1.4-4.1,4Z"/>
      <path class="st7" d="M392.7,162.2c0,3.1-3.4,4.9-7.7,4.9s-7.1-1.6-7.1-3.8,1-2.4,2.7-2.9c-1.2-.5-2.1-1.5-2.1-2.8s.9-2.5,2.3-3c-1.5-.9-2.3-2.3-2.3-4.1,0-3,2.6-5.1,6.5-5.1s2.2.2,3,.5c.5-2.1,1.9-3.4,4.4-3.3l.5,2.5c-1.9,0-3.1.5-3.5,1.5,1.3.9,2.1,2.2,2.1,3.9,0,3-2.6,5.1-6.5,5.1s-1.7,0-2.5-.3c-1,.3-1.4.8-1.4,1.6s.7,1.4,1.9,1.4h5c3,0,4.8,1.4,4.8,3.8h0ZM390,162.6c0-1-.6-1.5-2.6-1.5h-4.1c-1.8,0-2.7.6-2.7,1.6s1.5,2.1,4.7,2.1,4.7-1,4.7-2.2h0ZM381.8,150.4c0,1.7,1.4,2.8,3.2,2.8s3.3-1.1,3.3-2.8-1.4-2.8-3.3-2.8-3.2,1.1-3.2,2.8Z"/>
      <path class="st7" d="M407.6,154.4h-11c.4,2.6,1.9,4.1,4.3,4.1s3.3-.7,3.8-2l2.7,1.1c-1.1,2.2-3.2,3.5-6.5,3.5-4.7,0-7.5-2.9-7.5-7.8s2.6-7.8,7.3-7.8,7,3,7,7.3v1.7h0ZM396.7,151.9h8.1c-.3-2.5-1.7-4-4-4s-3.8,1.4-4.1,4Z"/>
      <path class="st7" d="M424,150.9v9.7h-3.2v-8.7c0-3-1.4-4-3.2-4s-4.1,1.3-4.1,4.7v7.9h-3.2v-15h2.8l.2,2.5c1-2,2.9-2.8,5.1-2.8,3.2,0,5.7,1.9,5.7,5.6h0Z"/>
      <path class="st7" d="M440.6,154.4h-11c.4,2.6,1.9,4.1,4.3,4.1s3.3-.7,3.8-2l2.7,1.1c-1.1,2.2-3.2,3.5-6.5,3.5-4.7,0-7.5-2.9-7.5-7.8s2.6-7.8,7.3-7.8,7,3,7,7.3v1.7h0ZM429.6,151.9h8.1c-.3-2.5-1.7-4-4-4s-3.8,1.4-4.1,4Z"/>
    </g>
  </g>
  <g class="st10">
    <path class="st7" d="M452.1,145.7l-.5,3c-.4-.3-1.1-.4-1.9-.4-1.8,0-3.8,1.4-3.8,4.5v7.9h-3.2v-15h2.7l.3,2.7c.8-1.9,2.4-3,4.7-3s1.2,0,1.6.3h0Z"/>
  </g>
  <g class="st10">
    <path class="st7" d="M467.5,158.4l-.2,2.2c-.5.2-1.1.4-1.9.4-1.6,0-2.7-.6-3-2.2-.9,1.4-2.8,2.2-5.1,2.2s-4.9-1.3-4.9-3.9,1.9-4,5.8-4.7l3.8-.7v-.8c0-1.8-1.1-3-3-3s-3.3.8-3.9,2.7l-2.5-1.3c.7-2.4,3-3.9,6.3-3.9s6.3,1.7,6.3,5.3v6.8c0,.8.3,1.1,1.1,1.1s.8-.1,1.1-.2h.1ZM462,155.7v-1.8l-3.3.7c-2,.4-3,1.1-3,2.3s.8,1.7,2.2,1.7c2,0,4.1-1,4.1-2.8h0Z"/>
  </g>
  <g class="st10">
    <g>
      <path class="st7" d="M482,149.7l-3,1.2c-.5-1.9-1.6-2.8-3.5-2.8-2.7,0-4.2,1.9-4.2,5.3s1.6,5.2,4.2,5.2,3.3-1.1,3.7-2.9l3,1c-.8,2.7-3.1,4.5-6.5,4.5s-7.5-2.9-7.5-7.8,2.8-7.8,7.5-7.8,5.5,1.7,6.5,4.2h-.2Z"/>
      <path class="st7" d="M483.8,141.2c0-1.3.8-2,2.2-2s2.1.7,2.1,2-.8,2-2.1,2-2.2-.8-2.2-2ZM487.6,160.7h-3.2v-15h3.2v15Z"/>
      <path class="st7" d="M505.1,153.2c0,4.9-2.8,7.8-7.5,7.8s-7.5-2.9-7.5-7.8,2.8-7.8,7.5-7.8,7.5,2.9,7.5,7.8ZM493.5,153.2c0,3.4,1.5,5.3,4.2,5.3s4.3-1.9,4.3-5.3-1.6-5.3-4.3-5.3-4.2,1.9-4.2,5.3ZM501.5,138.4l-3,5h-2.4l2.2-5h3.2,0Z"/>
      <path class="st7" d="M521.5,150.9v9.7h-3.2v-8.7c0-3-1.4-4-3.2-4s-4.1,1.3-4.1,4.7v7.9h-3.2v-15h2.8l.2,2.5c1-2,2.9-2.8,5.1-2.8,3.2,0,5.7,1.9,5.7,5.6h0Z"/>
    </g>
  </g>
  <g class="st10">
    <g>
      <path class="st7" d="M225,174.9v21.7h-2.8l-.2-2.7c-.9,1.8-2.7,3-5.1,3-4.1,0-6.6-2.9-6.6-7.8s2.6-7.8,6.7-7.8,3.9,1.1,4.8,2.7v-9.2h3.2ZM221.8,189.4v-.4c0-3.1-1.6-5-4.1-5s-4.1,1.9-4.1,5.2,1.6,5.2,4.1,5.2,4.1-1.9,4.1-5Z"/>
      <path class="st7" d="M241.8,190.4h-11c.4,2.6,1.9,4.1,4.3,4.1s3.3-.7,3.8-2l2.7,1.1c-1.1,2.2-3.2,3.5-6.5,3.5-4.7,0-7.5-2.9-7.5-7.8s2.6-7.8,7.3-7.8,7,3,7,7.3v1.7h-.1ZM230.9,187.9h8.1c-.3-2.5-1.7-4-4-4s-3.8,1.4-4.1,4Z"/>
      <path class="st7" d="M269.7,186.4v10.2h-2.4v-2.5c-1.2,1.8-3.3,2.8-6.2,2.8-5.5,0-9.2-3.8-9.2-10.2s3.7-10.2,9.4-10.2,6.6,1.5,8.1,4.7l-3,1.4c-.8-2.2-2.7-3.3-5.1-3.3-3.7,0-6.1,2.7-6.1,7.4s2.1,7.4,6.2,7.4,5.3-1.5,5.3-4.6v-.5h-6v-2.6h9Z"/>
      <path class="st7" d="M287,194.4l-.2,2.2c-.5.2-1.1.4-1.9.4-1.6,0-2.7-.6-3-2.2-.9,1.4-2.8,2.2-5.1,2.2s-4.9-1.3-4.9-3.9,1.9-4,5.8-4.7l3.8-.7v-.8c0-1.8-1.1-3-3-3s-3.3.8-3.9,2.7l-2.5-1.3c.7-2.4,3-3.9,6.3-3.9s6.3,1.7,6.3,5.3v6.8c0,.8.3,1.1,1.1,1.1s.8-.1,1.1-.2h.1ZM281.5,191.7v-1.8l-3.3.7c-2,.4-3,1.1-3,2.3s.8,1.7,2.2,1.7c2,0,4.1-1.1,4.1-2.9h0Z"/>
    </g>
  </g>
  <g class="st10">
    <path class="st7" d="M287.2,193.9l2.2-1.9c.8,1.8,2.5,2.5,4.6,2.5s3.2-.8,3.2-1.8-.9-1.5-3.5-2c-4.5-.8-6-2.1-6-4.6s2.3-4.6,6.3-4.6,5.2,1.1,6.3,3.4l-2.3,1.7c-.8-1.8-2-2.5-4-2.5s-3.1.9-3.1,1.8.9,1.6,3.7,2.2c4.3.8,5.8,2.1,5.8,4.6s-2.4,4.5-6.5,4.5-5.4-.9-6.7-3.1v-.2h0Z"/>
  </g>
  <g class="st10">
    <g>
      <path class="st7" d="M316.1,190.4h-11c.4,2.6,1.9,4.1,4.3,4.1s3.3-.7,3.8-2l2.7,1.1c-1.1,2.2-3.2,3.5-6.5,3.5-4.7,0-7.5-2.9-7.5-7.8s2.6-7.8,7.3-7.8,7,3,7,7.3v1.7h0ZM305.2,187.9h8.1c-.3-2.5-1.7-4-4-4s-3.8,1.4-4.1,4Z"/>
      <path class="st7" d="M317.5,193.9l2.2-1.9c.8,1.8,2.5,2.5,4.6,2.5s3.2-.8,3.2-1.8-.9-1.5-3.5-2c-4.5-.8-6-2.1-6-4.6s2.3-4.6,6.3-4.6,5.2,1.1,6.3,3.4l-2.3,1.7c-.8-1.8-2-2.5-4-2.5s-3.1.9-3.1,1.8.9,1.6,3.7,2.2c4.3.8,5.8,2.1,5.8,4.6s-2.4,4.5-6.5,4.5-5.4-.9-6.7-3.1v-.2h0Z"/>
    </g>
  </g>
  <g class="st10">
    <path class="st7" d="M349.2,188.8h-4.3v7.9h-3.2v-19.8h8.1c4.3,0,6.9,2.2,6.9,6s-1.6,4.8-4.2,5.6l5.4,8.3h-3.7l-5.1-7.9h.1ZM345,186.1h4.6c2.6,0,3.9-1.1,3.9-3.3s-1.3-3.3-3.9-3.3h-4.6v6.5h0Z"/>
  </g>
  <g class="st10">
    <path class="st7" d="M373,190.4h-11c.4,2.6,1.9,4.1,4.3,4.1s3.3-.7,3.8-2l2.7,1.1c-1.1,2.2-3.2,3.5-6.5,3.5-4.7,0-7.5-2.9-7.5-7.8s2.6-7.8,7.3-7.8,7,3,7,7.3v1.7h0ZM362,187.9h8.1c-.3-2.5-1.7-4-4-4s-3.8,1.4-4.1,4Z"/>
  </g>
  <g class="st10">
    <g>
      <path class="st7" d="M379.6,181.7h4.9v2.5h-4.8v12.5h-3.2v-12.5h-2.8v-2.5h2.8v-2.2c0-3,1.9-4.8,5.2-4.8s2.2.3,2.8.7l-.6,2.3c-.5-.3-1-.5-1.7-.5-1.7,0-2.6.7-2.6,2.4v1.9h0v.2h0Z"/>
      <path class="st7" d="M395.2,181.7l-.5,3c-.4-.3-1.1-.4-1.9-.4-1.8,0-3.8,1.4-3.8,4.5v7.9h-3.2v-15h2.7l.3,2.7c.8-1.9,2.4-3,4.7-3s1.2,0,1.6.3h0Z"/>
      <path class="st7" d="M396.2,177.2c0-1.3.8-2,2.2-2s2.1.7,2.1,2-.8,2-2.1,2-2.2-.8-2.2-2ZM400,196.7h-3.2v-15h3.2v15Z"/>
      <path class="st7" d="M417,198.2c0,3.1-3.4,4.9-7.7,4.9s-7.1-1.6-7.1-3.8,1-2.4,2.7-2.9c-1.2-.5-2.1-1.5-2.1-2.8s.9-2.5,2.3-3c-1.5-.9-2.3-2.3-2.3-4.1,0-3,2.6-5.1,6.5-5.1s2.2.2,3,.5c.5-2.1,1.9-3.4,4.4-3.3l.5,2.5c-1.9,0-3.1.5-3.5,1.5,1.3.9,2.1,2.2,2.1,3.9,0,3-2.6,5.1-6.5,5.1s-1.7,0-2.5-.3c-1,.3-1.4.8-1.4,1.6s.7,1.4,1.9,1.4h5c3,0,4.8,1.4,4.8,3.8h0ZM414.2,198.4c0-1-.6-1.5-2.6-1.5h-4.1c-1.8,0-2.7.6-2.7,1.6s1.5,2.1,4.7,2.1,4.7-1,4.7-2.2h0ZM406,186.4c0,1.7,1.4,2.8,3.2,2.8s3.3-1.1,3.3-2.8-1.4-2.8-3.3-2.8-3.2,1.1-3.2,2.8Z"/>
      <path class="st7" d="M431.8,190.4h-11c.4,2.6,1.9,4.1,4.3,4.1s3.3-.7,3.8-2l2.7,1.1c-1.1,2.2-3.2,3.5-6.5,3.5-4.7,0-7.5-2.9-7.5-7.8s2.6-7.8,7.3-7.8,7,3,7,7.3v1.7h0ZM421,187.9h8.1c-.3-2.5-1.7-4-4-4s-3.8,1.4-4.1,4Z"/>
    </g>
  </g>
  <g class="st10">
    <path class="st7" d="M443.5,181.7l-.5,3c-.4-.3-1.1-.4-1.9-.4-1.8,0-3.8,1.4-3.8,4.5v7.9h-3.2v-15h2.7l.3,2.7c.8-1.9,2.4-3,4.7-3s1.2,0,1.6.3h0Z"/>
  </g>
  <g class="st10">
    <path class="st7" d="M458.8,194.4l-.2,2.2c-.5.2-1.1.4-1.9.4-1.6,0-2.7-.6-3-2.2-.9,1.4-2.8,2.2-5.1,2.2s-4.9-1.3-4.9-3.9,1.9-4,5.8-4.7l3.8-.7v-.8c0-1.8-1.1-3-3-3s-3.3.8-3.9,2.7l-2.5-1.3c.7-2.4,3-3.9,6.3-3.9s6.3,1.7,6.3,5.3v6.8c0,.8.3,1.1,1.1,1.1s.8-.1,1.1-.2h.1ZM453.3,191.7v-1.8l-3.3.7c-2,.4-3,1.1-3,2.3s.8,1.7,2.2,1.7c2,0,4.1-1.1,4.1-2.9h0Z"/>
  </g>
  <g class="st10">
    <path class="st7" d="M474,186.9v9.7h-3.2v-8.7c0-3-1.4-4-3.2-4s-4.1,1.3-4.1,4.7v8h-3.2v-15h2.8l.2,2.5c1-2,2.9-2.8,5.1-2.8,3.2,0,5.7,1.9,5.7,5.6h0Z"/>
  </g>
  <g class="st10">
    <g>
      <path class="st7" d="M487,195.7c-1,.8-2.4,1.3-4,1.3-2.6,0-4.6-1.2-4.6-4.3v-8.5h-2.8v-2.5h2.8v-3.5l3.2-.9v4.4h5.2v2.5h-5.2v8c0,1.5.9,2.1,2.2,2.1s1.8-.4,2.4-1l.7,2.4h0Z"/>
      <path class="st7" d="M501.7,190.4h-11c.4,2.6,1.9,4.1,4.3,4.1s3.3-.7,3.8-2l2.7,1.1c-1.1,2.2-3.2,3.5-6.5,3.5-4.7,0-7.5-2.9-7.5-7.8s2.6-7.8,7.3-7.8,7,3,7,7.3v1.7h0ZM490.8,187.9h8.1c-.3-2.5-1.7-4-4-4s-3.8,1.4-4.1,4Z"/>
      <path class="st7" d="M503.1,193.9l2.2-1.9c.8,1.8,2.5,2.5,4.6,2.5s3.2-.8,3.2-1.8-.9-1.5-3.5-2c-4.5-.8-6-2.1-6-4.6s2.3-4.6,6.3-4.6,5.2,1.1,6.3,3.4l-2.3,1.7c-.8-1.8-2-2.5-4-2.5s-3.1.9-3.1,1.8.9,1.6,3.7,2.2c4.3.8,5.8,2.1,5.8,4.6s-2.4,4.5-6.5,4.5-5.4-.9-6.7-3.1v-.2h0Z"/>
    </g>
  </g>
  <line class="st3" x1="210.8" y1="121.2" x2="392.7" y2="121.2"/>
  <g class="st10">
    <g>
      <path class="st7" d="M402.5,116.2c.9,0,1.7,0,2.4.4.7.3,1.3.7,1.8,1.2l-1.2,1.6c-.4-.5-.9-.8-1.4-1s-1.1-.3-1.6-.3h-.9c-.2,0-.4.2-.5.3,0,0-.1.3-.1.5s0,.4.3.5c.2,0,.5.3.9.4l1.6.4c1,.2,1.7.5,2.2,1s.7,1,.7,1.7-.2,1.3-.5,1.7-.8.8-1.5,1.1-1.4.4-2.1.4-1.3,0-1.9-.2-1.1-.3-1.6-.6-.9-.6-1.2-.9l1.2-1.7c.3.3.5.5.9.8s.8.4,1.2.5c.4,0,.8.2,1.3.2h.8c.2,0,.4-.2.5-.3.1,0,.2-.3.2-.5s0-.4-.2-.5-.4-.3-.8-.4l-1.8-.4c-.5,0-1.1-.3-1.5-.5s-.8-.5-1-.8c-.3-.4-.4-.8-.4-1.4s.2-1.1.5-1.6.8-.8,1.4-1.1,1.4-.4,2.2-.4v-.2h.1Z"/>
      <path class="st7" d="M407.5,126.1v-9.8h7.6v2h-5.1v2h4v1.9h-4v2h5.2v2h-7.8,0Z"/>
      <path class="st7" d="M425,116.2v9.8h-2.8l-3-5.3-.8-1.4h0v6.7h-2.2v-9.8h2.8l3,5.3.8,1.4h0v-6.7h2.2Z"/>
    </g>
  </g>
  <g class="st10">
    <path class="st7" d="M435.2,126.1h-2.6l-.7-2.2h-3.3l-.7,2.2h-2.6l3.4-9.8h3l3.4,9.8h.1ZM429.1,122.1h2.4l-1.2-3.9-1.2,3.9h0Z"/>
  </g>
  <g class="st10">
    <g>
      <path class="st7" d="M454.5,123.2c-.2.7-.5,1.2-.9,1.7-.4.4-.9.8-1.5,1s-1.2.3-1.9.3-1.9-.2-2.6-.6-1.3-1-1.6-1.7-.6-1.6-.6-2.7.2-1.9.6-2.7.9-1.3,1.6-1.7c.7-.4,1.6-.6,2.5-.6s1.3,0,1.9.3,1.1.5,1.4.9c.4.4.7.9.8,1.5l-2.2.9c-.1-.6-.4-1-.7-1.3-.3-.2-.7-.3-1.2-.3s-.8,0-1.2.3c-.3.2-.6.5-.8,1s-.3,1-.3,1.7,0,1.2.3,1.7.4.8.8,1,.8.3,1.3.3.9,0,1.2-.4.5-.7.7-1.2l2.4.6h0Z"/>
      <path class="st7" d="M455.1,126.1v-9.8h7.6v2h-5.1v2h4v1.9h-4v2h5.2v2h-7.8,0Z"/>
      <path class="st7" d="M463.7,126.1v-9.8h7.6v2h-5.1v2h4v1.9h-4v2h5.2v2h-7.8,0Z"/>
    </g>
  </g>
  <g class="st10">
    <path class="st7" d="M480.5,116.2v2h-3.2v7.8h-2.5v-7.8h-3.2v-2h8.9Z"/>
  </g>
  <line class="st3" x1="485.1" y1="121.2" x2="513.8" y2="121.2"/>
  <line class="st3" x1="437.8" y1="121.2" x2="442.1" y2="121.2"/>
  <path class="st1" d="M102.6,42.9l26.5.2c3.2-.6,1.9-3.4,1.9-3.4l-63.6-.3c-1,2.7,2.2,3.2,2.2,3.2l24.5.2s4.1-3.5,8.5,0h0Z"/>
  <path class="st7" d="M68.2,40s0,1.4,1,1.6c0,0,2.2.4,2.6-1.6l55.4.8s.5,1.6,1.6,1.3c0,0,1.9.6,2.3-2.4l-62.9-.5s0,.8,0,.8Z"/>
  <path class="st7" d="M127.2,43.1v-14.1c-1.5.8-28,1.4-28,1.4-20.3.3-27.6-2.1-27.6-2.1l.3,14.4.2,10.3-.7.7.3,14.7,2.4,1v-5.1s20.3-2.7,51.5.7v4.3l1.9,1v-27.2s-.3,0-.3,0Z"/>
  <path class="st4" d="M132.9,117.6l1.1-34.9s.8-9.9-6.6-14.3c0,0-28.7-12.2-55.7-.4,0,0-6.4,2.9-7.5,12.2l.9,36.9s33.6,14.6,67.7.5h0Z"/>
  <g>
    <path class="st1" d="M132,148.6c-.2,5.7-7.4,11.5-7.4,11.5-2.2,1.6-4.3,2.3-6.5,3.1-6.6,2.3-13,2.8-18.7,2.7-12.1-.2-21-3.7-21-3.7-12.9-5.4-12.4-16.7-12.4-16.7l-.7-28.4s30.6,14.4,67.7.5l-1,31h0Z"/>
    <path class="st0" d="M132,148.6c-.2,5.7-7.4,11.5-7.4,11.5-2.2,1.6-4.3,2.3-6.5,3.1-6.6,2.3-13,2.8-18.7,2.7-12.1-.2-21-3.7-21-3.7-12.9-5.4-12.4-16.7-12.4-16.7l-.7-28.4s30.6,14.4,67.7.5l-1,31h0Z"/>
  </g>
  <polygon class="st7" points="71.9 45.3 71.6 28.3 72 28.1 72.5 28.3 74.1 35.7 73.8 66.9 71.6 68 71.3 53.7 72.1 53 71.9 45.3"/>
  <path class="st7" d="M71.8,28.3s.7-.5,1.2,0l1.4,7.9-.3,33.2-.8-.4.5-33.4-2.1-7.3h.1Z"/>
  <path class="st7" d="M126.5,29s.4-.8.7,0l.2,41.2-.8-29.3-.2-11.8h.1Z"/>
  <path class="st7" d="M120.4,62.8l-.8-3.7c0-.4-.5-.7-.9-.7h0c-.4,0-.8.3-.9.7h0c-.2.5-.7.8-1.1.6-.3,0-.5-.3-.6-.7l-.7-2.9c0-.4-.4-.6-.8-.7l-7-1.1c-.3,0-.7,0-.9.3l-2.1,2.7c-.2.2-.4.3-.7.4l-7.9.5c-.5,0-.9-.3-1-.8l-.3-1.6c0-.5-.5-.8-.9-.8h-7.3c-.3,0-.5,0-.7.3l-3,3.6c-.3.4-.9.4-1.3,0,0,0-.2-.3-.3-.4l-1.8-5c0-.4-.5-.6-.9-.6h-2.4c-.5,0-.9.5-.9,1v8.1c0,.5.4.9.9.9h0c14.4-1.4,28.9-1.1,43.2.8.5,0,1-.3,1.1-.8v-.4.2h0Z"/>
  <path class="st7" d="M74.3,42.7h10.3v8.7l-.3.7c0,.3-.3.5-.5.7l-.6.5h-8.9v-10.6Z"/>
  <path class="st7" d="M112.6,43h13v10.6l-11.9-.4-.6-.5s-.2-.2-.2-.3l-.3-.5v-9h0Z"/>
  <path class="st7" d="M102.6,42.9c-4.3-3.6-8.6,0-8.6,0-2.2,1.7-3.2,4.6-2.4,7.2,0,0,1.1,5.8,7.5,5.6,0,0,7-.8,6.3-7.9-.2-1.9-1.2-3.7-2.8-4.9Z"/>
  <path class="st7" d="M96.4,47.9s1.7-1.9,3-1.8c0,0,2.7.8,3,1.9l3.8-4.3,1.2-.4,3,2.8v1.1l-6.5,5.4v3.8h-.8v1.6s-2.8,1.1-7.5.4v-2.2h-.4v-3.4l-3-2.9h-.3l-3.4-3.1v-.8l3-3.2s4.9,5.1,4.9,5.1Z"/>
  <path class="st7" d="M88.8,41.9s.2-.2.3,0h0l4.4,5.5,1.6,2h0c.2.4,1.6,3.3,3.1,4h.3c.5-.4,2.1-1.9,2.4-2.4h0l6.6-8.4h.3l1.1,2v.5l-6.4,7.6v1.5s-.2.3-.3.3c-.9.4-4.9,1.9-7,0v-.3l-.2-1.6v-.3l-7.2-8.3v-.6l.9-1.6.2.2h-.1Z"/>
  <path class="st7" d="M96.7,48.7s1.5-1.6,2.6-1.6c0,0,2.4.7,2.6,1.7l3.3-3.8,1.1-.4,2.6,2.4v.9l-5.8,4.8v3.4h-.7v1.5s-2.5.9-6.6.3v-1.9h-.3v-3l-2.7-2.6h-.3l-3-2.8v-.8l2.7-2.8,4.6,4.5v.2h0Z"/>
  <path class="st1" d="M99.3,86.2s31.4,0,34.4-2.6c0,0,.7-.6,0-5.6,0,0-1.3-7-6.3-9.7,0,0-3.1-2.6-13.4-5.5-.4,0-.8-.2-1.3-.2-4.5,0-30.9-.8-35.6,2.6,0,0-7,2.7-9.8,6.5,0,0-3.3,3.9-3,11.3,0,0,23.1,3.8,35,3.3h0Z"/>
  <path class="st7" d="M99.3,121.8s-31.6-.3-34.2-7.2c0,0-.7.2-.7,1.7,0,0,0,2,.8,2.4,0,0,3,6.5,34.1,6.8,0,0,31.2-.4,33.5-6.1.5-1.1.8-2.2.8-3.3,0,0,0-1.6-.7-1.2,0,0-1.6,6.4-33.6,6.9h0Z"/>
  <path class="st1" d="M70.7,161.8v-4.8s5.4,8.3,28.7,8.9c0,0,10.9.7,22-3.9,4.1-1.7,4.7-3.6,5.2-3.7v4.6c0,.7-.2,1.4-.5,2.1-.8,1.5-2.9,4-8,5.6-6,2.1-12.3,3.2-18.7,3.2,0,0-17.3-1.3-22.4-4.1,0,0-3.8-2.1-5.7-5.5-.4-.8-.6-1.6-.5-2.4h0Z"/>
  <path class="st7" d="M72.1,162.2l1.1,1.5h0c.2.4.3.9.3,1.4,0,0,0,.6-.5.5l-1.3-2.3v-1.1s.3-.1.4,0h0Z"/>
  <path class="st7" d="M85.7,166.9c.9.3,1.6,1,2,1.9,0,0,.4,1.6-1.2,1.9h-.5c-.6-.3-2-1.1-1.9-2,0,0,0-1.4,1.2-1.7h.4Z"/>
  <path class="st7" d="M98.9,169.4s1.2.3,1.4,1.4c0,.7-.7,1.3-1.4,1.4-.7,0-1.4-.6-1.5-1.3,0,0,.3-1.5,1.5-1.4h0Z"/>
  <path class="st7" d="M112.9,168.7s-2.6.2-3.3.7c0,0-1.3.9-1,1.8,0,.5.5.9,1.1,1,0,0,2.4-.1,3-.5,0,0,1.1-.6,1.2-1.6,0-.5-.2-1.1-.7-1.2h-.3s0-.2,0-.2Z"/>
  <path class="st7" d="M72.4,162.9l.8,1.1h0c.2.3.2.7.2,1,0,0,0,.5-.4.4l-1-1.7v-.8c0-.1.2-.2.3,0h0Z"/>
  <path class="st7" d="M85.5,167.4c.8.2,1.4.8,1.6,1.5s-.2,1.4-.9,1.5h-.4c-.5-.2-1.6-.8-1.5-1.6,0,0,0-1.1,1-1.4h.3,0Z"/>
  <path class="st7" d="M129.6,71.9c.3.3.5.6.7,1,.5.9.3,2-.6,2.6-.5.3-1.1.4-1.6.2-4.4-1.4-14.6-4.3-21.3-1.7h-14.1c-.4,0-.8,0-1.1.4-1.6,1.2-7.4,4.8-17.6,1.7h-1.1l-4.6,1.3c-1,.3-2-.3-2.3-1.3v-1.1c.7-2.3,2.6-5.4,7.6-7.1l4.6-2c.8-.3,1.6,0,2.2.5.4.5,1.5,1,4.3.6h0c.7,0,6.9-.4,10.7-3.3.2,0,.3-.2.5-.3,2.4-.8,18.7-5.4,33.3,8.3h.3v.2h.1Z"/>
  <path class="st7" d="M98.9,169.7c.6.1,1.1.6,1.2,1.2,0,.6-.6,1.1-1.2,1.1s-1.1-.5-1.3-1.1c0,0,.3-1.2,1.3-1.2Z"/>
  <path class="st7" d="M112.1,169.4s-1.9.1-2.4.5c0,0-1,.7-.8,1.3,0,.4.4.7.8.7,0,0,1.8,0,2.2-.4,0,0,.8-.5.9-1.2,0-.4,0-.8-.5-.9h-.2Z"/>
  <g class="st11">
    <path class="st7" d="M80.3,65.7s-.7,4.9,12.3,0l1.5-.8.7-.8s11.6-1.1,11.9-1.5c0,0,6.2,1.1,6.9.7l.2-.5s-.3-.4-.5-3.2c0,0-5-.4-5.4-.2v2.2s0,.4-1,.3c0,0-2.6-1.6-2.2-3.6l-.8-.4s-6.5,1.1-8.3.4l-.8.2s-.3,3.5-1.8,3v-1.9l-.5-.5h-10.3"/>
  </g>
  <polygon class="st7" points="110.1 52.3 111.3 52.3 112.9 55.7 112.9 58.3 112.4 59.6 108.5 59.4 108.1 58 108.1 55.7 110.1 52.3"/>
  <polygon class="st7" points="110.1 52.7 111.1 52.7 112.4 55.9 112.4 58.3 112 59.5 108.8 59.3 108.5 58 108.5 55.9 110.1 52.7"/>
  <polygon class="st7" points="110.3 53.3 110.9 53.3 111.7 55.2 111.7 57 112.4 57.8 112.4 59.4 109.5 59.2 110.3 53.3"/>
  <path class="st7" d="M83.6,57s7.1.5,7.8.3v1.8h-7.8v-2.1Z"/>
  <polygon class="st7" points="84.9 53.3 90.6 53.4 90.6 52.3 89.4 52.3 89.4 49.8 85.7 49.8 85.7 52.3 84.6 52.3 84.6 53.3 84.9 53.3"/>
  <polygon class="st7" points="91.4 53.4 91.4 54.8 92.5 54.8 92.5 57.2 82.7 57.2 82.7 54.4 83.3 54.4 83.1 53.3 91.4 53.4"/>
  <path class="st7" d="M95.1,51.4s1.4-.4,1.6-1.2c0,0,.6-1.6-.5-2.4,0,0-1.6-1.1-3.2,0,0,0-1.7,3.6,2.2,3.6h0Z"/>
  <path class="st7" d="M95,51.5s1.1-.4,1.3-1.1c0,0,.5-1.4-.5-2.2,0,0-1.4-1.1-2.7,0,0,0-1.4,3.3,1.9,3.3Z"/>
  <circle class="st7" cx="94.8" cy="49.4" r=".9"/>
  <path class="st7" d="M105.2,51.2s1.3-.4,1.6-1.2c0,0,.6-1.6-.5-2.4,0,0-1.6-1.1-3.2,0,0,0-1.7,3.6,2.2,3.6h0Z"/>
  <path class="st7" d="M105.1,51.3s1.1-.4,1.3-1.1c0,0,.5-1.4-.5-2.2,0,0-1.4-1.1-2.7,0,0,0-1.4,3.3,1.9,3.3Z"/>
  <circle class="st7" cx="104.9" cy="49.2" r=".9"/>
  <g class="st11">
    <path class="st7" d="M96,56.1h6.8v1.8s-5.8.7-7,0l.2-1.9h0Z"/>
  </g>
  <path class="st7" d="M95.4,59.3h.8-.5"/>
  <path class="st7" d="M108.4,60.4h1.1"/>
  <line class="st5" x1="108.4" y1="61" x2="108.7" y2="60.9"/>
  <line class="st5" x1="108.5" y1="61.4" x2="108.7" y2="61.5"/>
  <g>
    <path class="st7" d="M83.2,65.9l4.6-.9c.9-.2,1.8-.4,2.7-.7"/>
    <path class="st7" d="M93.4,61.9h.3v.3h.5v.2h.3l.5.8.2.2"/>
    <path class="st7" d="M95.3,59.3c1.7-.2,3.5.2,5.2.3"/>
    <path class="st7" d="M95.3,59.5h1.5"/>
    <line class="st7" x1="95.6" y1="59.9" x2="96.1" y2="59.9"/>
    <line class="st7" x1="108.5" y1="60.6" x2="109.1" y2="60.6"/>
    <line class="st7" x1="108.5" y1="61.6" x2="108.5" y2="61.7"/>
    <path class="st7" d="M113.2,62v.8h-.5"/>
    <path class="st7" d="M113.1,62.2s0,.3-.2.4c0,.2-.4.3-.6.3"/>
    <path class="st7" d="M112.9,62.3l-.3.2c-.3.2-.5.3-.9.3"/>
  </g>
  <path class="st7" d="M86.2,47.1c2.5-1.4,4.8-3.3,6.7-5.4,0,0,.9-.9.4-1.5,0,0-1.3-3.1-2.7-4,0,0-.7-.8-2,.3,0,0-5.6,3.9-6.7,5.8,0,0-1,1.1-.4,2.1l2.8,2.7s1.1.5,1.9,0Z"/>
  <g class="st6">
    <path class="st7" d="M89.9,37c1.3,1,2.2,2.4,2.7,4,0,.4.8.2.6-.2-.5-1.7-1.6-3.3-3-4.3h-.4v.4h.1Z"/>
  </g>
  <g class="st6">
    <path class="st7" d="M89.5,36.3c-.5.7-1.5.9-2.2,1.4s-1.4,1.2-2.1,1.8c-1.4,1.3-2.9,2.5-3.8,4.1v.4c0,0,.3,0,.4,0,.9-1.7,2.5-2.9,3.9-4.2.6-.7,1.4-1.3,2.1-1.8l1.2-.6c.3-.2.6-.5.8-.8.3-.3-.3-.6-.5-.3,0,0,.2,0,.2,0Z"/>
  </g>
  <g class="st12">
    <path class="st7" d="M84.2,40.9c1.1,1.9,3,3,4.9,4.1h.4v-.4c-1.7-1-3.5-2.1-4.6-3.9-.3-.3-.8,0-.5.3h-.2Z"/>
  </g>
  <g class="st9">
    <path class="st7" d="M92,42.2c-.5-.8-1.1-1.5-1.9-2.1l-2.4-2c-.3-.3-.8.2-.5.5l2.3,2c.7.5,1.3,1.2,1.8,2,0,.2.3.2.4,0,.2,0,.2-.3,0-.5h.3,0Z"/>
  </g>
  <path class="st7" d="M112.3,47.3c-2.4-1.5-4.6-3.4-6.5-5.7,0,0-.9-.9-.3-1.5,0,0,1.4-3.1,2.8-3.9,0,0,.7-.7,1.9.3,0,0,5.4,4.1,6.5,6,0,0,.9,1.2.3,2.1l-2.9,2.6s-1.1.4-1.9,0h0Z"/>
  <path class="st1" d="M108.3,36.4c-1.3,1.2-2.2,2.7-2.5,4.4,0,.4.5.5.6.2.4-1.6,1.2-3,2.4-4.1.3-.3-.2-.7-.5-.5h0Z"/>
  <path class="st1" d="M108.7,36.8c.2.3.5.6.8.8.4.3.8.4,1.2.6.8.5,1.5,1.1,2.1,1.8l2.1,2c.7.6,1.3,1.4,1.8,2.2.2.4.8,0,.5-.3-.9-1.6-2.4-2.9-3.8-4.2-.6-.6-1.3-1.2-1.9-1.7-.8-.5-1.8-.8-2.3-1.6-.3-.3-.8,0-.5.3h0Z"/>
  <g class="st6">
    <path class="st0" d="M132.7,116.2s-7.7,9.6-48.8,5.1c0,0,39.1,3.2,48.8-5.1Z"/>
    <path class="st0" d="M65.7,119s7.7,9.6,48.8,5.1c0,0-39.1,3.2-48.8-5.1Z"/>
  </g>
  <path class="st1" d="M111.1,38c-1.7,1.3-2.6,3.3-3.5,5.2-.2.4.4.7.5.3.8-1.9,1.7-3.8,3.4-5.1.3-.3,0-.7-.5-.5h0Z"/>
  <path class="st1" d="M110.7,45.9c.7-.6,1.4-1.3,1.9-2.1.6-.9,1.2-1.8,1.8-2.6.2-.3-.3-.7-.5-.3-.5.8-1.1,1.7-1.7,2.5-.5.8-1,1.4-1.7,2,0,0-.2.3,0,.4,0,.2.3.3.4.2h-.2Z"/>
  <g>
    <path class="st8" d="M98.9,93.8c1.4,0,2.5,1.1,2.6,2.5,0,1.4-1.1,2.5-2.5,2.6s-2.5-1.1-2.6-2.5h0c0-1.4,1.1-2.6,2.5-2.6"/>
    <path class="st8" d="M89.8,101.9h0c0,.2,0,.3.2.4h1.2s.2,0,.2-.2-.3-.3-.8-.3h-.3c-.5,0-1.1-.3-1.6-.5l-.3-.3v-.4c0-.3.3-.6.6-.8.5-.2,1.1-.3,1.7-.3s1.1,0,1.6.3c.3,0,.5.4.5.8h-1.4s0-.2-.2-.3h-1.1s-.2,0-.2.2.3.3.9.3h.3c.3,0,.6.2.9.3.2,0,.3,0,.5.2,0,0,.3.2.3.3v.4c0,.3-.2.6-.6.8-.6.2-1.2.3-1.8.3s-1.1,0-1.7-.3c-.3-.2-.5-.5-.5-.8h1.6ZM93.6,103.1v-3.3h4v.8h-2.5v.5h2.3v.7h-2.3v.6h2.6v.7s-4.1,0-4.1,0ZM98.3,103.1v-3.3h1.9l2,2.2v-2.2h1.4v3.3h-1.9l-1.9-2.2v2.2h-1.5ZM107.4,101.7l-.7-1.2-.8,1.2h1.5ZM105.2,103.1h-1.5l2.3-3.3h1.6l2.2,3.3h-1.6l-.3-.6h-2.3s-.4.6-.4.6Z"/>
    <path class="st8" d="M91.6,114.8l-1.4-1.3,4.1-7c.2-.3,0-.6-.3-.8h-6.9v-1.8h10.7s-6.2,10.9-6.2,10.9Z"/>
    <path class="st8" d="M106,114.8l1.4-1.3-4.1-7c-.2-.3,0-.6.3-.8h6.9v-1.8h-10.7s6.2,10.9,6.2,10.9Z"/>
    <path class="st8" d="M98.8,105.8h0l6,9.9-1.6.8-3.9-6.5c-.2-.3-.5-.4-.8-.2,0,0-.2,0-.2.2l-3.8,6.5-1.6-.8,5.9-10"/>
  </g>
</svg>