<?xml version="1.0" encoding="UTF-8"?>
<svg id="Capa_1" xmlns="http://www.w3.org/2000/svg" version="1.1" viewBox="0 0 530.1 212.6">
  <!-- Generator: Adobe Illustrator 30.1.0, SVG Export Plug-In . SVG Version: 2.1.1 Build 136)  -->
  <defs>
    <style>
      .st0 {
        stroke: #fff;
      }

      .st0, .st1, .st2, .st3 {
        fill: none;
      }

      .st0, .st2 {
        stroke-width: .2px;
      }

      .st0, .st2, .st3 {
        stroke-miterlimit: 10;
      }

      .st4 {
        fill: #143b4c;
      }

      .st5 {
        fill: #32363d;
      }

      .st6 {
        fill: #719ca8;
      }

      .st7 {
        opacity: .6;
      }

      .st8 {
        fill: #232126;
      }

      .st9 {
        fill: #fff;
      }

      .st10 {
        opacity: .4;
      }

      .st11 {
        fill: #f7db0d;
        fill-rule: evenodd;
      }

      .st12 {
        fill: #ffce40;
      }

      .st13, .st14 {
        isolation: isolate;
      }

      .st15 {
        fill: #00324d;
      }

      .st16 {
        fill: #8d9ca3;
      }

      .st17 {
        fill: #53565e;
      }

      .st2, .st3 {
        stroke: #00324d;
      }

      .st3 {
        stroke-width: 4.2px;
      }

      .st14 {
        opacity: .9;
      }

      .st18 {
        opacity: .5;
      }
    </style>
  </defs>
  <g>
    <circle class="st15" cx="101" cy="103.2" r="93.7"/>
    <circle class="st9" cx="100.3" cy="103.2" r="90.5"/>
  </g>
  <g class="st13">
    <g>
      <path class="st12" d="M252.4,97.9c-24.5,0-44.5-19-44.5-44.2s20.1-44.2,44.5-44.2h24.1v14.8h-24c-16.8,0-30.1,12.6-30.1,29.4s13.4,29.4,30.1,29.4h24v14.8h-24.1Z"/>
      <path class="st12" d="M331.4,97.9l-24.6-37.2h-1.9v37.2h-14.1V9.6h23.3c22.1,0,32.2,10,32.2,26.2s-7,21.6-23.1,24.1l25.4,37.9h-17.2ZM305,24.3v22.1h9.1c14,0,17.4-5.5,17.4-10.2,0-8.7-4.3-11.9-17.4-11.9,0,0-9.1,0-9.1,0Z"/>
      <path class="st12" d="M403.3,99.1c-25.1,0-45.4-19.7-45.4-44.8s20.3-44.8,45.4-44.8h26.3v14.8h-26.4c-17,0-30.6,13.1-30.6,29.9s13.6,30,30.4,30h.3c17.6,0,28.6-11,30.4-23.3h-32.3v-14.4h47.4v11.7c0,24.5-22.9,40.9-45.5,40.9h0Z"/>
      <path class="st12" d="M503.8,97.9l-24.6-37.2h-1.9v37.2h-14.1V9.6h23.3c22.1,0,32.2,10,32.2,26.2s-7,21.6-23.1,24.1l25.4,37.9h-17.2ZM477.2,24.3v22.1h9.1c14,0,17.4-5.5,17.4-10.2,0-8.7-4.3-11.9-17.4-11.9,0,0-9.1,0-9.1,0Z"/>
    </g>
  </g>
  <g class="st13">
    <g>
      <path class="st15" d="M215.2,160.9c-5.7,0-9.3-3.9-9.3-10.2s3.6-10.2,9.3-10.2,6.7,1.6,7.9,4.9l-3,1.4c-.8-2.3-2.2-3.4-4.7-3.4-3.7,0-6.1,2.7-6.1,7.4s2.2,7.4,6,7.4,4.3-1.3,5.1-3.8l3,1c-1.2,3.6-4.3,5.5-8.1,5.5h0Z"/>
      <path class="st15" d="M238.8,154.3h-11c.4,2.6,1.9,4.1,4.3,4.1s3.3-.7,3.8-2l2.7,1.1c-1.1,2.2-3.2,3.5-6.5,3.5-4.7,0-7.5-2.9-7.5-7.8s2.6-7.8,7.3-7.8,7,3,7,7.3v1.7h-.1ZM227.9,151.9h8.1c-.3-2.5-1.7-4-4-4s-3.8,1.4-4.1,4Z"/>
    </g>
  </g>
  <g class="st13">
    <path class="st15" d="M255.1,150.9v9.7h-3.2v-8.7c0-3-1.4-4-3.2-4s-4.1,1.3-4.1,4.7v7.9h-3.2v-15h2.8l.2,2.5c1-2,2.9-2.8,5.1-2.8,3.2,0,5.7,1.9,5.7,5.6h-.1Z"/>
  </g>
  <g class="st13">
    <path class="st15" d="M268.1,159.7c-1,.8-2.4,1.3-4,1.3-2.6,0-4.6-1.2-4.6-4.3v-8.5h-2.8v-2.5h2.8v-3.5l3.2-.9v4.4h5.2v2.5h-5.2v8c0,1.5.9,2.1,2.2,2.1s1.8-.4,2.4-1l.7,2.4h0Z"/>
  </g>
  <g class="st13">
    <path class="st15" d="M279,145.6l-.5,3c-.4-.3-1.1-.4-1.9-.4-1.8,0-3.8,1.4-3.8,4.5v7.9h-3.2v-15h2.7l.3,2.7c.8-1.9,2.4-3,4.7-3s1.2,0,1.6.3h0Z"/>
  </g>
  <g class="st13">
    <g>
      <path class="st15" d="M294.2,153.2c0,4.9-2.8,7.8-7.5,7.8s-7.5-2.9-7.5-7.8,2.8-7.8,7.5-7.8,7.5,2.9,7.5,7.8ZM282.5,153.2c0,3.4,1.5,5.3,4.2,5.3s4.3-1.9,4.3-5.3-1.6-5.3-4.3-5.3-4.2,1.9-4.2,5.3Z"/>
      <path class="st15" d="M318.9,138.9v21.7h-2.8l-.2-2.7c-.9,1.8-2.7,3-5.1,3-4.1,0-6.6-2.9-6.6-7.8s2.6-7.8,6.7-7.8,3.9,1.1,4.8,2.7v-9.2h3.2ZM315.7,153.3v-.4c0-3.1-1.6-5-4.1-5s-4.1,1.9-4.1,5.2,1.6,5.2,4.1,5.2,4.1-1.9,4.1-5Z"/>
      <path class="st15" d="M335.7,154.3h-11c.4,2.6,1.9,4.1,4.3,4.1s3.3-.7,3.8-2l2.7,1.1c-1.1,2.2-3.2,3.5-6.5,3.5-4.7,0-7.5-2.9-7.5-7.8s2.6-7.8,7.3-7.8,7,3,7,7.3v1.7h0ZM324.7,151.9h8.1c-.3-2.5-1.7-4-4-4s-3.8,1.4-4.1,4Z"/>
    </g>
  </g>
  <g class="st13">
    <path class="st15" d="M354.2,152.7h-4.3v7.9h-3.2v-19.8h8.1c4.3,0,6.9,2.2,6.9,6s-1.6,4.8-4.2,5.6l5.4,8.3h-3.7l-5.1-7.9h.1ZM350,150.1h4.6c2.6,0,3.9-1.1,3.9-3.3s-1.3-3.3-3.9-3.3h-4.6v6.5h0Z"/>
  </g>
  <g class="st13">
    <g>
      <path class="st15" d="M377.9,154.3h-11c.4,2.6,1.9,4.1,4.3,4.1s3.3-.7,3.8-2l2.7,1.1c-1.1,2.2-3.2,3.5-6.5,3.5-4.7,0-7.5-2.9-7.5-7.8s2.6-7.8,7.3-7.8,7,3,7,7.3,0,1.3,0,1.7h0ZM367,151.9h8.1c-.3-2.5-1.7-4-4-4s-3.8,1.4-4.1,4Z"/>
      <path class="st15" d="M394,162.1c0,3.1-3.4,4.9-7.7,4.9s-7.1-1.6-7.1-3.8,1-2.4,2.7-2.9c-1.2-.5-2.1-1.5-2.1-2.8s.9-2.5,2.3-3c-1.5-.9-2.3-2.3-2.3-4.1,0-3,2.6-5.1,6.5-5.1s2.2.2,3,.5c.5-2.1,1.9-3.4,4.4-3.3l.5,2.5c-1.9,0-3.1.5-3.5,1.5,1.3.9,2.1,2.2,2.1,3.9,0,3-2.6,5.1-6.5,5.1s-1.7,0-2.5-.3c-1,.3-1.4.8-1.4,1.6s.7,1.4,1.9,1.4h5c3,0,4.8,1.4,4.8,3.8h0ZM391.3,162.5c0-1-.6-1.5-2.6-1.5h-4.1c-1.8,0-2.7.6-2.7,1.6s1.5,2.1,4.7,2.1,4.7-1,4.7-2.2h0ZM383.1,150.4c0,1.7,1.4,2.8,3.2,2.8s3.3-1.1,3.3-2.8-1.4-2.8-3.3-2.8-3.2,1.1-3.2,2.8Z"/>
      <path class="st15" d="M408.9,154.3h-11c.4,2.6,1.9,4.1,4.3,4.1s3.3-.7,3.8-2l2.7,1.1c-1.1,2.2-3.2,3.5-6.5,3.5-4.7,0-7.5-2.9-7.5-7.8s2.6-7.8,7.3-7.8,7,3,7,7.3v1.7h0ZM398,151.9h8.1c-.3-2.5-1.7-4-4-4s-3.8,1.4-4.1,4Z"/>
      <path class="st15" d="M425.2,150.9v9.7h-3.2v-8.7c0-3-1.4-4-3.2-4s-4.1,1.3-4.1,4.7v7.9h-3.2v-15h2.8l.2,2.5c1-2,2.9-2.8,5.1-2.8,3.2,0,5.7,1.9,5.7,5.6h0Z"/>
      <path class="st15" d="M441.9,154.3h-11c.4,2.6,1.9,4.1,4.3,4.1s3.3-.7,3.8-2l2.7,1.1c-1.1,2.2-3.2,3.5-6.5,3.5-4.7,0-7.5-2.9-7.5-7.8s2.6-7.8,7.3-7.8,7,3,7,7.3v1.7h0ZM430.9,151.9h8.1c-.3-2.5-1.7-4-4-4s-3.8,1.4-4.1,4Z"/>
    </g>
  </g>
  <g class="st13">
    <path class="st15" d="M453.4,145.6l-.5,3c-.4-.3-1.1-.4-1.9-.4-1.8,0-3.8,1.4-3.8,4.5v7.9h-3.2v-15h2.7l.3,2.7c.8-1.9,2.4-3,4.7-3s1.2,0,1.6.3h0Z"/>
  </g>
  <g class="st13">
    <path class="st15" d="M468.7,158.4l-.2,2.2c-.5.2-1.1.4-1.9.4-1.6,0-2.7-.6-3-2.2-.9,1.4-2.8,2.2-5.1,2.2s-4.9-1.3-4.9-3.9,1.9-4,5.8-4.7l3.8-.7v-.8c0-1.8-1.1-3-3-3s-3.3.8-3.9,2.7l-2.5-1.3c.7-2.4,3-3.9,6.3-3.9s6.3,1.7,6.3,5.3v6.8c0,.8.3,1.1,1.1,1.1s.8-.1,1.1-.2h.1ZM463.2,155.6v-1.8l-3.3.7c-2,.4-3,1.1-3,2.3s.8,1.7,2.2,1.7c2,0,4.1-1,4.1-2.8h0Z"/>
  </g>
  <g class="st13">
    <g>
      <path class="st15" d="M483.3,149.6l-3,1.2c-.5-1.9-1.6-2.8-3.5-2.8-2.7,0-4.2,1.9-4.2,5.3s1.6,5.2,4.2,5.2,3.3-1.1,3.7-2.9l3,1c-.8,2.7-3.1,4.5-6.5,4.5s-7.5-2.9-7.5-7.8,2.8-7.8,7.5-7.8,5.5,1.7,6.5,4.2h-.2Z"/>
      <path class="st15" d="M485.1,141.1c0-1.3.8-2,2.2-2s2.1.7,2.1,2-.8,2-2.1,2-2.2-.8-2.2-2ZM488.9,160.6h-3.2v-15h3.2v15Z"/>
      <path class="st15" d="M506.4,153.2c0,4.9-2.8,7.8-7.5,7.8s-7.5-2.9-7.5-7.8,2.8-7.8,7.5-7.8,7.5,2.9,7.5,7.8ZM494.7,153.2c0,3.4,1.5,5.3,4.2,5.3s4.3-1.9,4.3-5.3-1.6-5.3-4.3-5.3-4.2,1.9-4.2,5.3ZM502.7,138.3l-3,5h-2.4l2.2-5h3.2,0Z"/>
      <path class="st15" d="M522.7,150.9v9.7h-3.2v-8.7c0-3-1.4-4-3.2-4s-4.1,1.3-4.1,4.7v7.9h-3.2v-15h2.8l.2,2.5c1-2,2.9-2.8,5.1-2.8,3.2,0,5.7,1.9,5.7,5.6h0Z"/>
    </g>
  </g>
  <g class="st13">
    <g>
      <path class="st15" d="M226.3,174.9v21.7h-2.8l-.2-2.7c-.9,1.8-2.7,3-5.1,3-4.1,0-6.6-2.9-6.6-7.8s2.6-7.8,6.7-7.8,3.9,1.1,4.8,2.7v-9.2h3.2ZM223.1,189.3v-.4c0-3.1-1.6-5-4.1-5s-4.1,1.9-4.1,5.2,1.6,5.2,4.1,5.2,4.1-1.9,4.1-5Z"/>
      <path class="st15" d="M243.1,190.3h-11c.4,2.6,1.9,4.1,4.3,4.1s3.3-.7,3.8-2l2.7,1.1c-1.1,2.2-3.2,3.5-6.5,3.5-4.7,0-7.5-2.9-7.5-7.8s2.6-7.8,7.3-7.8,7,3,7,7.3v1.7h-.1ZM232.2,187.9h8.1c-.3-2.5-1.7-4-4-4s-3.8,1.4-4.1,4Z"/>
      <path class="st15" d="M271,186.4v10.2h-2.4v-2.5c-1.2,1.8-3.3,2.8-6.2,2.8-5.5,0-9.2-3.8-9.2-10.2s3.7-10.2,9.4-10.2,6.6,1.5,8.1,4.7l-3,1.4c-.8-2.2-2.7-3.3-5.1-3.3-3.7,0-6.1,2.7-6.1,7.4s2.1,7.4,6.2,7.4,5.3-1.5,5.3-4.6v-.5h-6v-2.6h9Z"/>
      <path class="st15" d="M288.2,194.4l-.2,2.2c-.5.2-1.1.4-1.9.4-1.6,0-2.7-.6-3-2.2-.9,1.4-2.8,2.2-5.1,2.2s-4.9-1.3-4.9-3.9,1.9-4,5.8-4.7l3.8-.7v-.8c0-1.8-1.1-3-3-3s-3.3.8-3.9,2.7l-2.5-1.3c.7-2.4,3-3.9,6.3-3.9s6.3,1.7,6.3,5.3v6.8c0,.8.3,1.1,1.1,1.1s.8-.1,1.1-.2h.1ZM282.8,191.6v-1.8l-3.3.7c-2,.4-3,1.1-3,2.3s.8,1.7,2.2,1.7c2,0,4.1-1.1,4.1-2.9h0Z"/>
    </g>
  </g>
  <g class="st13">
    <path class="st15" d="M288.5,193.8l2.2-1.9c.8,1.8,2.5,2.5,4.6,2.5s3.2-.8,3.2-1.8-.9-1.5-3.5-2c-4.5-.8-6-2.1-6-4.6s2.3-4.6,6.3-4.6,5.2,1.1,6.3,3.4l-2.3,1.7c-.8-1.8-2-2.5-4-2.5s-3.1.9-3.1,1.8.9,1.6,3.7,2.2c4.3.8,5.8,2.1,5.8,4.6s-2.4,4.5-6.5,4.5-5.4-.9-6.7-3.1v-.2Z"/>
  </g>
  <g class="st13">
    <g>
      <path class="st15" d="M317.4,190.3h-11c.4,2.6,1.9,4.1,4.3,4.1s3.3-.7,3.8-2l2.7,1.1c-1.1,2.2-3.2,3.5-6.5,3.5-4.7,0-7.5-2.9-7.5-7.8s2.6-7.8,7.3-7.8,7,3,7,7.3v1.7h0ZM306.5,187.9h8.1c-.3-2.5-1.7-4-4-4s-3.8,1.4-4.1,4Z"/>
      <path class="st15" d="M318.8,193.8l2.2-1.9c.8,1.8,2.5,2.5,4.6,2.5s3.2-.8,3.2-1.8-.9-1.5-3.5-2c-4.5-.8-6-2.1-6-4.6s2.3-4.6,6.3-4.6,5.2,1.1,6.3,3.4l-2.3,1.7c-.8-1.8-2-2.5-4-2.5s-3.1.9-3.1,1.8.9,1.6,3.7,2.2c4.3.8,5.8,2.1,5.8,4.6s-2.4,4.5-6.5,4.5-5.4-.9-6.7-3.1v-.2Z"/>
    </g>
  </g>
  <g class="st13">
    <path class="st15" d="M350.5,188.7h-4.3v7.9h-3.2v-19.8h8.1c4.3,0,6.9,2.2,6.9,6s-1.6,4.8-4.2,5.6l5.4,8.3h-3.7l-5.1-7.9h.1ZM346.3,186h4.6c2.6,0,3.9-1.1,3.9-3.3s-1.3-3.3-3.9-3.3h-4.6v6.5h0Z"/>
  </g>
  <g class="st13">
    <path class="st15" d="M374.2,190.3h-11c.4,2.6,1.9,4.1,4.3,4.1s3.3-.7,3.8-2l2.7,1.1c-1.1,2.2-3.2,3.5-6.5,3.5-4.7,0-7.5-2.9-7.5-7.8s2.6-7.8,7.3-7.8,7,3,7,7.3v1.7h0ZM363.2,187.9h8.1c-.3-2.5-1.7-4-4-4s-3.8,1.4-4.1,4Z"/>
  </g>
  <g class="st13">
    <g>
      <path class="st15" d="M380.9,181.6h4.9v2.5h-4.8v12.5h-3.2v-12.5h-2.8v-2.5h2.8v-2.2c0-3,1.9-4.8,5.2-4.8s2.2.3,2.8.7l-.6,2.3c-.5-.3-1-.5-1.7-.5-1.7,0-2.6.7-2.6,2.4v1.9h0v.2Z"/>
      <path class="st15" d="M396.5,181.6l-.5,3c-.4-.3-1.1-.4-1.9-.4-1.8,0-3.8,1.4-3.8,4.5v7.9h-3.2v-15h2.7l.3,2.7c.8-1.9,2.4-3,4.7-3s1.2,0,1.6.3h0Z"/>
      <path class="st15" d="M397.5,177.1c0-1.3.8-2,2.2-2s2.1.7,2.1,2-.8,2-2.1,2-2.2-.8-2.2-2ZM401.2,196.6h-3.2v-15h3.2v15Z"/>
      <path class="st15" d="M418.2,198.1c0,3.1-3.4,4.9-7.7,4.9s-7.1-1.6-7.1-3.8,1-2.4,2.7-2.9c-1.2-.5-2.1-1.5-2.1-2.8s.9-2.5,2.3-3c-1.5-.9-2.3-2.3-2.3-4.1,0-3,2.6-5.1,6.5-5.1s2.2.2,3,.5c.5-2.1,1.9-3.4,4.4-3.3l.5,2.5c-1.9,0-3.1.5-3.5,1.5,1.3.9,2.1,2.2,2.1,3.9,0,3-2.6,5.1-6.5,5.1s-1.7,0-2.5-.3c-1,.3-1.4.8-1.4,1.6s.7,1.4,1.9,1.4h5c3,0,4.8,1.4,4.8,3.8h0ZM415.5,198.4c0-1-.6-1.5-2.6-1.5h-4.1c-1.8,0-2.7.6-2.7,1.6s1.5,2.1,4.7,2.1,4.7-1,4.7-2.2h0ZM407.3,186.4c0,1.7,1.4,2.8,3.2,2.8s3.3-1.1,3.3-2.8-1.4-2.8-3.3-2.8-3.2,1.1-3.2,2.8Z"/>
      <path class="st15" d="M433.1,190.3h-11c.4,2.6,1.9,4.1,4.3,4.1s3.3-.7,3.8-2l2.7,1.1c-1.1,2.2-3.2,3.5-6.5,3.5-4.7,0-7.5-2.9-7.5-7.8s2.6-7.8,7.3-7.8,7,3,7,7.3v1.7h0ZM422.2,187.9h8.1c-.3-2.5-1.7-4-4-4s-3.8,1.4-4.1,4Z"/>
    </g>
  </g>
  <g class="st13">
    <path class="st15" d="M444.8,181.6l-.5,3c-.4-.3-1.1-.4-1.9-.4-1.8,0-3.8,1.4-3.8,4.5v7.9h-3.2v-15h2.7l.3,2.7c.8-1.9,2.4-3,4.7-3s1.2,0,1.6.3h0Z"/>
  </g>
  <g class="st13">
    <path class="st15" d="M460.1,194.4l-.2,2.2c-.5.2-1.1.4-1.9.4-1.6,0-2.7-.6-3-2.2-.9,1.4-2.8,2.2-5.1,2.2s-4.9-1.3-4.9-3.9,1.9-4,5.8-4.7l3.8-.7v-.8c0-1.8-1.1-3-3-3s-3.3.8-3.9,2.7l-2.5-1.3c.7-2.4,3-3.9,6.3-3.9s6.3,1.7,6.3,5.3v6.8c0,.8.3,1.1,1.1,1.1s.8-.1,1.1-.2h.1ZM454.6,191.6v-1.8l-3.3.7c-2,.4-3,1.1-3,2.3s.8,1.7,2.2,1.7c2,0,4.1-1.1,4.1-2.9h0Z"/>
  </g>
  <g class="st13">
    <path class="st15" d="M475.3,186.9v9.7h-3.2v-8.7c0-3-1.4-4-3.2-4s-4.1,1.3-4.1,4.7v8h-3.2v-15h2.8l.2,2.5c1-2,2.9-2.8,5.1-2.8,3.2,0,5.7,1.9,5.7,5.6h0Z"/>
  </g>
  <g class="st13">
    <g>
      <path class="st15" d="M488.2,195.6c-1,.8-2.4,1.3-4,1.3-2.6,0-4.6-1.2-4.6-4.3v-8.5h-2.8v-2.5h2.8v-3.5l3.2-.9v4.4h5.2v2.5h-5.2v8c0,1.5.9,2.1,2.2,2.1s1.8-.4,2.4-1l.7,2.4h0Z"/>
      <path class="st15" d="M503,190.3h-11c.4,2.6,1.9,4.1,4.3,4.1s3.3-.7,3.8-2l2.7,1.1c-1.1,2.2-3.2,3.5-6.5,3.5-4.7,0-7.5-2.9-7.5-7.8s2.6-7.8,7.3-7.8,7,3,7,7.3v1.7h0ZM492.1,187.9h8.1c-.3-2.5-1.7-4-4-4s-3.8,1.4-4.1,4Z"/>
      <path class="st15" d="M504.4,193.8l2.2-1.9c.8,1.8,2.5,2.5,4.6,2.5s3.2-.8,3.2-1.8-.9-1.5-3.5-2c-4.5-.8-6-2.1-6-4.6s2.3-4.6,6.3-4.6,5.2,1.1,6.3,3.4l-2.3,1.7c-.8-1.8-2-2.5-4-2.5s-3.1.9-3.1,1.8.9,1.6,3.7,2.2c4.3.8,5.8,2.1,5.8,4.6s-2.4,4.5-6.5,4.5-5.4-.9-6.7-3.1v-.2Z"/>
    </g>
  </g>
  <line class="st3" x1="212.1" y1="121.1" x2="394" y2="121.1"/>
  <g class="st13">
    <g>
      <path class="st15" d="M403.8,116.1c.9,0,1.7,0,2.4.4.7.3,1.3.7,1.8,1.2l-1.2,1.6c-.4-.5-.9-.8-1.4-1s-1.1-.3-1.6-.3-.7,0-.9,0c-.2,0-.4.2-.5.3,0,0-.1.3-.1.5s0,.4.3.5c.2,0,.5.3.9.4l1.6.4c1,.2,1.7.5,2.2,1s.7,1,.7,1.7-.2,1.3-.5,1.7-.8.8-1.5,1.1-1.4.4-2.1.4-1.3,0-1.9-.2-1.1-.3-1.6-.6-.9-.6-1.2-.9l1.2-1.7c.3.3.5.5.9.8s.8.4,1.2.5c.4,0,.8.2,1.3.2h.8c.2,0,.4-.2.5-.3.1,0,.2-.3.2-.5s0-.4-.2-.5-.4-.3-.8-.4l-1.8-.4c-.5,0-1.1-.3-1.5-.5s-.8-.5-1-.8c-.3-.4-.4-.8-.4-1.4s.2-1.1.5-1.6.8-.8,1.4-1.1,1.4-.4,2.2-.4v-.2Z"/>
      <path class="st15" d="M408.8,126v-9.8h7.6v2h-5.1v2h4v1.9h-4v2h5.2v2h-7.8,0Z"/>
      <path class="st15" d="M426.2,116.2v9.8h-2.8l-3-5.3-.8-1.4h0v6.7h-2.2v-9.8h2.8l3,5.3.8,1.4h0v-6.7h2.2Z"/>
    </g>
  </g>
  <g class="st13">
    <path class="st15" d="M436.5,126h-2.6l-.7-2.2h-3.3l-.7,2.2h-2.6l3.4-9.8h3l3.4,9.8h.1ZM430.4,122h2.4l-1.2-3.9-1.2,3.9h0Z"/>
  </g>
  <g class="st13">
    <g>
      <path class="st15" d="M455.7,123.2c-.2.7-.5,1.2-.9,1.7-.4.4-.9.8-1.5,1s-1.2.3-1.9.3-1.9-.2-2.6-.6-1.3-1-1.6-1.7-.6-1.6-.6-2.7.2-1.9.6-2.7.9-1.3,1.6-1.7c.7-.4,1.6-.6,2.5-.6s1.3,0,1.9.3,1.1.5,1.4.9c.4.4.7.9.8,1.5l-2.2.9c-.1-.6-.4-1-.7-1.3-.3-.2-.7-.3-1.2-.3s-.8,0-1.2.3c-.3.2-.6.5-.8,1s-.3,1-.3,1.7,0,1.2.3,1.7.4.8.8,1,.8.3,1.3.3.9,0,1.2-.4.5-.7.7-1.2l2.4.6h0Z"/>
      <path class="st15" d="M456.4,126v-9.8h7.6v2h-5.1v2h4v1.9h-4v2h5.2v2h-7.8,0Z"/>
      <path class="st15" d="M465,126v-9.8h7.6v2h-5.1v2h4v1.9h-4v2h5.2v2h-7.8,0Z"/>
    </g>
  </g>
  <g class="st13">
    <path class="st15" d="M481.8,116.2v2h-3.2v7.8h-2.5v-7.8h-3.2v-2h8.9Z"/>
  </g>
  <line class="st3" x1="486.4" y1="121.1" x2="515.1" y2="121.1"/>
  <line class="st3" x1="439.1" y1="121.1" x2="443.4" y2="121.1"/>
  <g class="st14">
    <path class="st6" d="M103.9,42.8l26.5.2c3.2-.6,1.9-3.4,1.9-3.4l-63.6-.3c-1,2.7,2.2,3.2,2.2,3.2l24.5.2s4.1-3.5,8.5,0h0Z"/>
  </g>
  <path class="st15" d="M69.5,39.9s0,1.4,1,1.6c0,0,2.2.4,2.6-1.6l55.4.8s.5,1.6,1.6,1.3c0,0,1.9.6,2.3-2.4l-62.9-.5s0,.8,0,.8Z"/>
  <path class="st5" d="M128.5,43v-14.1c-1.5.8-28,1.4-28,1.4-20.3.3-27.6-2.1-27.6-2.1l.3,14.4.2,10.3-.7.7.3,14.7,2.4,1v-5.1s20.3-2.7,51.5.7v4.3c0,0,1.9,1,1.9,1v-27.2h-.3Z"/>
  <g>
    <path class="st9" d="M134.2,117.5l1.1-34.9s.8-9.9-6.6-14.3c0,0-28.7-12.2-55.7-.4,0,0-6.4,2.9-7.5,12.2l.9,36.9s33.6,14.6,67.7.5h0Z"/>
    <path class="st2" d="M134.2,117.5l1.1-34.9s.8-9.9-6.6-14.3c0,0-28.7-12.2-55.7-.4,0,0-6.4,2.9-7.5,12.2l.9,36.9s33.6,14.6,67.7.5h0Z"/>
  </g>
  <g>
    <path class="st15" d="M133.3,148.5c-.2,5.7-7.4,11.5-7.4,11.5-2.2,1.6-4.3,2.3-6.5,3.1-6.6,2.3-13,2.8-18.7,2.7-12.1-.2-21-3.7-21-3.7-12.9-5.4-12.4-16.7-12.4-16.7l-.7-28.4s30.6,14.4,67.7.5l-1,31h0Z"/>
    <path class="st2" d="M133.3,148.5c-.2,5.7-7.4,11.5-7.4,11.5-2.2,1.6-4.3,2.3-6.5,3.1-6.6,2.3-13,2.8-18.7,2.7-12.1-.2-21-3.7-21-3.7-12.9-5.4-12.4-16.7-12.4-16.7l-.7-28.4s30.6,14.4,67.7.5l-1,31h0Z"/>
  </g>
  <polygon class="st15" points="73.2 45.2 72.9 28.2 73.3 28 73.8 28.2 75.4 35.6 75.1 66.8 72.9 67.9 72.6 53.6 73.4 52.9 73.2 45.2"/>
  <path class="st4" d="M73.1,28.2s.7-.5,1.2,0l1.4,7.9-.3,33.2-.8-.4.5-33.4-2.1-7.3h.1Z"/>
  <path class="st4" d="M127.8,28.9s.4-.8.7,0l.2,41.2-.8-29.3-.2-11.8h.1Z"/>
  <path class="st5" d="M121.7,62.7l-.8-3.7c0-.4-.5-.7-.9-.7h0c-.4,0-.8.3-.9.7h0c-.2.5-.7.8-1.1.6-.3,0-.5-.3-.6-.7l-.7-2.9c0-.4-.4-.6-.8-.7l-7-1.1c-.3,0-.7,0-.9.3l-2.1,2.7c-.2.2-.4.3-.7.4l-7.9.5c-.5,0-.9-.3-1-.8l-.3-1.6c0-.5-.5-.8-.9-.8h-7.3c-.3,0-.5,0-.7.3l-3,3.6c-.3.4-.9.4-1.3,0,0,0-.2-.3-.3-.4l-1.8-5c0-.4-.5-.6-.9-.6h-2.4c-.5,0-.9.5-.9,1v8.1c0,.5.4.9.9.9h0c14.4-1.4,28.9-1.1,43.2.8.5,0,1-.3,1.1-.8v-.4.2Z"/>
  <path class="st9" d="M75.6,42.6h10.3v8.7c0,0-.3.7-.3.7,0,.3-.3.5-.5.7l-.6.5h-8.9s0-10.6,0-10.6Z"/>
  <path class="st9" d="M113.9,42.9h13v10.6l-11.9-.4-.6-.5s-.2-.2-.2-.3l-.3-.5v-9h0Z"/>
  <path class="st9" d="M103.9,42.8c-4.3-3.6-8.6,0-8.6,0-2.2,1.7-3.2,4.6-2.4,7.2,0,0,1.1,5.8,7.5,5.6,0,0,7-.8,6.3-7.9-.2-1.9-1.2-3.7-2.8-4.9Z"/>
  <path class="st15" d="M97.7,47.8s1.7-1.9,3-1.8c0,0,2.7.8,3,1.9l3.8-4.3,1.2-.4,3,2.8v1.1c0,0-6.5,5.4-6.5,5.4v3.8h-.8v1.6s-2.8,1.1-7.5.4v-2.2h-.4v-3.4l-3-2.9h-.3l-3.4-3.1v-.8l3-3.2s4.9,5.1,4.9,5.1Z"/>
  <path class="st16" d="M90.1,41.8c0,0,.2-.2.3,0h0l4.4,5.5,1.6,2h0c.2.4,1.6,3.3,3.1,4h.3c.5-.4,2.1-1.9,2.4-2.4h0c0,0,6.6-8.4,6.6-8.4,0,0,.3,0,.3,0s0,0,0,0l1.1,2v.5l-6.4,7.6v1.5c0,0-.2.3-.3.3-.9.4-4.9,1.9-7,0,0,0,0-.2,0-.3l-.2-1.6v-.3l-7.2-8.3c0-.2,0-.4,0-.6l.9-1.6.2.2Z"/>
  <path class="st17" d="M98,48.6s1.5-1.6,2.6-1.6c0,0,2.4.7,2.6,1.7l3.3-3.8,1.1-.4,2.6,2.4v.9c0,0-5.8,4.8-5.8,4.8v3.4h-.7v1.5s-2.5.9-6.6.3v-1.9h-.3v-3l-2.7-2.6h-.3l-3-2.8v-.8l2.7-2.8,4.6,4.5v.2Z"/>
  <path class="st15" d="M100.6,86.2s31.4,0,34.4-2.6c0,0,.7-.6,0-5.6,0,0-1.3-7-6.3-9.7,0,0-3.1-2.6-13.4-5.5-.4,0-.8-.2-1.3-.2-4.5,0-30.9-.8-35.6,2.6,0,0-7,2.7-9.8,6.5,0,0-3.3,3.9-3,11.3,0,0,23.1,3.8,35,3.3h0Z"/>
  <path class="st12" d="M100.6,121.7s-31.6-.3-34.2-7.2c0,0-.7.2-.7,1.7,0,0,0,2,.8,2.4,0,0,3,6.5,34.1,6.8,0,0,31.2-.4,33.5-6.1.5-1.1.8-2.2.8-3.3,0,0,0-1.6-.7-1.2,0,0-1.6,6.4-33.6,6.9h0Z"/>
  <g class="st14">
    <path class="st6" d="M72,161.7v-4.8s5.4,8.3,28.7,8.9c0,0,10.9.7,22-3.9,4.1-1.7,4.7-3.6,5.2-3.7v4.6c0,.7-.2,1.4-.5,2.1-.8,1.5-2.9,4-8,5.6-6,2.1-12.3,3.2-18.7,3.2,0,0-17.3-1.3-22.4-4.1,0,0-3.8-2.1-5.7-5.5-.4-.8-.6-1.6-.5-2.4h0Z"/>
  </g>
  <path class="st8" d="M73.4,162.1l1.1,1.5h0c.2.4.3.9.3,1.4,0,0,0,.6-.5.5l-1.3-2.3v-1.1c0,0,.3-.1.4,0h0Z"/>
  <path class="st8" d="M87,166.8c.9.3,1.6,1,2,1.9,0,0,.4,1.6-1.2,1.9h-.5c-.6-.3-2-1.1-1.9-2,0,0,0-1.4,1.2-1.7h.4Z"/>
  <path class="st8" d="M100.2,169.3s1.2.3,1.4,1.4c0,.7-.7,1.3-1.4,1.4-.7,0-1.4-.6-1.5-1.3,0,0,.3-1.5,1.5-1.4h0Z"/>
  <path class="st8" d="M114.2,168.6s-2.6.2-3.3.7c0,0-1.3.9-1,1.8,0,.5.5.9,1.1,1,0,0,2.4-.1,3-.5,0,0,1.1-.6,1.2-1.6,0-.5-.2-1.1-.7-1.2h-.3v-.2Z"/>
  <path class="st9" d="M73.7,162.9l.8,1.1h0c.2.3.2.7.2,1,0,0,0,.5-.4.4l-1-1.7v-.8c0-.1.2-.2.3,0h0Z"/>
  <path class="st9" d="M86.8,167.3c.8.2,1.4.8,1.6,1.5s-.2,1.4-.9,1.5h-.4c-.5-.2-1.6-.8-1.5-1.6,0,0,0-1.1,1-1.4h.3,0Z"/>
  <path class="st4" d="M130.9,71.8c.3.3.5.6.7,1,.5.9.3,2-.6,2.6-.5.3-1.1.4-1.6.2-4.4-1.4-14.6-4.3-21.3-1.7-.2,0-.5,0-.7,0h-13.4c-.4,0-.8,0-1.1.4-1.6,1.2-7.4,4.8-17.6,1.7h-1.1l-4.6,1.3c-1,.3-2-.3-2.3-1.3v-1.1c.7-2.3,2.6-5.4,7.6-7.1l4.6-2c.8-.3,1.6,0,2.2.5.4.5,1.5,1,4.3.6h0c.7,0,6.9-.4,10.7-3.3.2,0,.3-.2.5-.3,2.4-.8,18.7-5.4,33.3,8.3,0,0,.2,0,.3,0h0Z"/>
  <path class="st9" d="M100.2,169.6c.6.1,1.1.6,1.2,1.2,0,.6-.6,1.1-1.2,1.1s-1.1-.5-1.3-1.1c0,0,.3-1.2,1.3-1.2Z"/>
  <path class="st9" d="M113.4,169.3s-1.9.1-2.4.5c0,0-1,.7-.8,1.3,0,.4.4.7.8.7,0,0,1.8,0,2.2-.4,0,0,.8-.5.9-1.2,0-.4,0-.8-.5-.9h-.2Z"/>
  <g class="st14">
    <path class="st6" d="M81.6,65.6s-.7,4.9,12.3,0l1.5-.8.7-.8s11.6-1.1,11.9-1.5c0,0,6.2,1.1,6.9.7l.2-.5s-.3-.4-.5-3.2c0,0-5-.4-5.4-.2v2.2s0,.4-1,.3c0,0-2.6-1.6-2.2-3.6l-.8-.4s-6.5,1.1-8.3.4l-.8.2s-.3,3.5-1.8,3v-1.9l-.5-.5h-10.3"/>
  </g>
  <polygon class="st16" points="111.4 52.2 112.6 52.2 114.2 55.6 114.2 58.2 113.7 59.5 109.8 59.3 109.4 57.9 109.4 55.6 111.4 52.2"/>
  <g class="st14">
    <polygon class="st6" points="111.4 52.6 112.4 52.6 113.7 55.8 113.7 58.2 113.3 59.4 110.1 59.2 109.8 57.9 109.8 55.8 111.4 52.6"/>
  </g>
  <polygon class="st16" points="111.6 53.2 112.2 53.2 113 55.1 113 56.9 113.7 57.7 113.7 59.3 110.8 59.1 111.6 53.2"/>
  <path class="st16" d="M84.9,56.9s7.1.5,7.8.3v1.8h-7.8v-2.1Z"/>
  <polygon class="st15" points="86.2 53.2 91.9 53.3 91.9 52.2 90.7 52.2 90.7 49.7 87 49.7 87 52.2 85.9 52.2 85.9 53.2 86.2 53.2"/>
  <polygon class="st16" points="92.7 53.3 92.7 54.7 93.8 54.7 93.8 57.1 84 57.1 84 54.3 84.6 54.3 84.4 53.2 92.7 53.3"/>
  <path class="st4" d="M96.4,51.3s1.4-.4,1.6-1.2c0,0,.6-1.6-.5-2.4,0,0-1.6-1.1-3.2,0,0,0-1.7,3.6,2.2,3.6h0Z"/>
  <path class="st16" d="M96.3,51.4s1.1-.4,1.3-1.1c0,0,.5-1.4-.5-2.2,0,0-1.4-1.1-2.7,0,0,0-1.4,3.3,1.9,3.3Z"/>
  <circle class="st5" cx="96.1" cy="49.3" r=".9"/>
  <path class="st4" d="M106.5,51.1s1.3-.4,1.6-1.2c0,0,.6-1.6-.5-2.4,0,0-1.6-1.1-3.2,0,0,0-1.7,3.6,2.2,3.6h0Z"/>
  <path class="st16" d="M106.4,51.2s1.1-.4,1.3-1.1c0,0,.5-1.4-.5-2.2,0,0-1.4-1.1-2.7,0,0,0-1.4,3.3,1.9,3.3Z"/>
  <circle class="st5" cx="106.2" cy="49.1" r=".9"/>
  <g class="st14">
    <path class="st6" d="M97.3,56h6.8v1.8s-5.8.7-7,0l.2-1.9h0Z"/>
  </g>
  <path class="st9" d="M96.7,59.2h.8-.5"/>
  <path class="st9" d="M109.7,60.3h1.1"/>
  <line class="st1" x1="109.7" y1="60.9" x2="110" y2="60.8"/>
  <line class="st1" x1="109.8" y1="61.3" x2="110" y2="61.4"/>
  <g>
    <path class="st9" d="M84.5,65.8l4.6-.9c.9-.2,1.8-.4,2.7-.7"/>
    <path class="st9" d="M94.7,61.8h.3v.3h.5v.2h.3c0,0,.5.8.5.8l.2.2"/>
    <path class="st9" d="M96.6,59.2c1.7-.2,3.5.2,5.2.3"/>
    <path class="st9" d="M96.6,59.4h1.5"/>
    <line class="st1" x1="96.9" y1="59.8" x2="97.4" y2="59.8"/>
    <line class="st1" x1="109.8" y1="60.5" x2="110.4" y2="60.5"/>
    <line class="st1" x1="109.8" y1="61.5" x2="109.8" y2="61.6"/>
    <path class="st9" d="M114.5,61.9v.8h0c0,0-.5,0-.5,0"/>
    <path class="st9" d="M114.4,62.1c0,0,0,.3-.2.4,0,.2-.4.3-.6.3"/>
    <path class="st9" d="M114.2,62.2l-.3.2c-.3.2-.5.3-.9.3"/>
  </g>
  <path class="st16" d="M87.5,47c2.5-1.4,4.8-3.3,6.7-5.4,0,0,.9-.9.4-1.5,0,0-1.3-3.1-2.7-4,0,0-.7-.8-2,.3,0,0-5.6,3.9-6.7,5.8,0,0-1,1.1-.4,2.1l2.8,2.7s1.1.5,1.9,0Z"/>
  <g class="st7">
    <path class="st9" d="M91.2,36.9c1.3,1,2.2,2.4,2.7,4,0,.4.8.2.6-.2-.5-1.7-1.6-3.3-3-4.3-.2,0-.3,0-.4,0,0,0,0,.3,0,.4h0Z"/>
  </g>
  <g class="st7">
    <path class="st9" d="M90.8,36.2c-.5.7-1.5.9-2.2,1.4s-1.4,1.2-2.1,1.8c-1.4,1.3-2.9,2.5-3.8,4.1,0,.2,0,.3,0,.4s.3,0,.4,0c.9-1.7,2.5-2.9,3.9-4.2.6-.7,1.4-1.3,2.1-1.8l1.2-.6c.3-.2.6-.5.8-.8.3-.3-.3-.6-.5-.3h0Z"/>
  </g>
  <g class="st18">
    <path class="st9" d="M85.5,40.8c1.1,1.9,3,3,4.9,4.1.2,0,.3,0,.4,0s0-.3,0-.4c-1.7-1-3.5-2.1-4.6-3.9-.3-.3-.8,0-.5.3h-.2Z"/>
  </g>
  <g class="st10">
    <path class="st9" d="M93.3,42.1c-.5-.8-1.1-1.5-1.9-2.1l-2.4-2c-.3-.3-.8.2-.5.5l2.3,2c.7.5,1.3,1.2,1.8,2,0,.2.3.2.4,0,.2,0,.2-.3,0-.5h.2Z"/>
  </g>
  <path class="st16" d="M113.6,47.2c-2.4-1.5-4.6-3.4-6.5-5.7,0,0-.9-.9-.3-1.5,0,0,1.4-3.1,2.8-3.9,0,0,.7-.7,1.9.3,0,0,5.4,4.1,6.5,6,0,0,.9,1.2.3,2.1l-2.9,2.6s-1.1.4-1.9,0h0Z"/>
  <g class="st7">
    <path class="st9" d="M109.6,36.3c-1.3,1.2-2.2,2.7-2.5,4.4,0,.4.5.5.6.2.4-1.6,1.2-3,2.4-4.1.3-.3-.2-.7-.5-.5h0Z"/>
  </g>
  <g class="st7">
    <path class="st9" d="M110,36.7c.2.3.5.6.8.8.4.3.8.4,1.2.6.8.5,1.5,1.1,2.1,1.8l2.1,2c.7.6,1.3,1.4,1.8,2.2.2.4.8,0,.5-.3-.9-1.6-2.4-2.9-3.8-4.2-.6-.6-1.3-1.2-1.9-1.7-.8-.5-1.8-.8-2.3-1.6-.3-.3-.8,0-.5.3h0Z"/>
  </g>
  <g class="st7">
    <path class="st0" d="M134,116.1s-7.7,9.6-48.8,5.1c0,0,39.1,3.2,48.8-5.1Z"/>
    <path class="st0" d="M67,118.9s7.7,9.6,48.8,5.1c0,0-39.1,3.2-48.8-5.1Z"/>
  </g>
  <g class="st18">
    <path class="st9" d="M112.4,37.9c-1.7,1.3-2.6,3.3-3.5,5.2-.2.4.4.7.5.3.8-1.9,1.7-3.8,3.4-5.1.3-.3,0-.7-.5-.5h0Z"/>
  </g>
  <g class="st10">
    <path class="st9" d="M112,45.8c.7-.6,1.4-1.3,1.9-2.1.6-.9,1.2-1.8,1.8-2.6.2-.3-.3-.7-.5-.3-.5.8-1.1,1.7-1.7,2.5-.5.8-1,1.4-1.7,2,0,0-.2.3,0,.4,0,.2.3.3.4.2h-.1Z"/>
  </g>
  <g>
    <path class="st11" d="M100.2,93.7c1.4,0,2.5,1.1,2.6,2.5,0,1.4-1.1,2.5-2.5,2.6s-2.5-1.1-2.6-2.5h0c0-1.4,1.1-2.6,2.5-2.6"/>
    <path class="st11" d="M91.1,101.8h0c0,.2,0,.3.2.4.2,0,.5,0,.7,0h.5c0,0,.2,0,.2-.2s-.3-.3-.8-.3h-.3c-.5,0-1.1-.3-1.6-.5,0,0-.2-.2-.3-.3v-.4c0-.3.3-.6.6-.8.5-.2,1.1-.3,1.7-.3s1.1,0,1.6.3c.3,0,.5.4.5.8h-1.4c0,0,0-.2-.2-.3h-1.1c0,0-.2,0-.2.2s.3.3.9.3h.3c.3,0,.6.2.9.3.2,0,.3,0,.5.2,0,0,.3.2.3.3s0,.3,0,.4c0,.3-.2.6-.6.8-.6.2-1.2.3-1.8.3s-1.1,0-1.7-.3c-.3-.2-.5-.5-.5-.8h1.5ZM94.9,103v-3.3h4v.8h-2.5v.5h2.3v.7h-2.3v.6h2.6v.7s-4.1,0-4.1,0ZM99.6,103v-3.3h1.9l2,2.2v-2.2h1.4v3.3h-1.9l-1.9-2.2v2.2h-1.5ZM108.7,101.6l-.7-1.2-.8,1.2h1.5ZM106.5,103h-1.5l2.3-3.3h1.6l2.2,3.3h-1.6l-.3-.6h-2.3s-.4.6-.4.6Z"/>
    <path class="st11" d="M92.9,114.7l-1.4-1.3,4.1-7c.2-.3,0-.6-.3-.8h-6.9v-1.8h10.7s-6.2,10.9-6.2,10.9Z"/>
    <path class="st11" d="M107.3,114.7l1.4-1.3-4.1-7c-.2-.3,0-.6.3-.8h6.9v-1.8h-10.7s6.2,10.9,6.2,10.9Z"/>
    <path class="st11" d="M100.1,105.7h0l6,9.9-1.6.8-3.9-6.5c-.2-.3-.5-.4-.8-.2,0,0-.2,0-.2.2l-3.8,6.5-1.6-.8,5.9-10"/>
  </g>
</svg>
