<?xml version="1.0" encoding="UTF-8"?>
<svg id="Capa_1" xmlns="http://www.w3.org/2000/svg" version="1.1" xmlns:xlink="http://www.w3.org/1999/xlink" viewBox="0 0 510.2 212.6">
  <!-- Generator: Adobe Illustrator 30.1.0, SVG Export Plug-In . SVG Version: 2.1.1 Build 136)  -->
  <defs>
    <style>
      .st0 {
        fill: #fff;
      }

      .st1, .st2, .st3 {
        fill: none;
      }

      .st4 {
        fill: #ffce40;
      }

      .st2 {
        stroke: #fff;
      }

      .st2, .st3 {
        stroke-miterlimit: 10;
        stroke-width: 4.1px;
      }

      .st5 {
        fill: #fbfbfb;
      }

      .st6 {
        fill: #00324d;
      }

      .st3 {
        stroke: #00324d;
      }

      .st7 {
        clip-path: url(#clippath);
      }
    </style>
    <clipPath id="clippath">
      <circle class="st1" cx="101" cy="105.6" r="96.1"/>
    </clipPath>
  </defs>
  <circle class="st4" cx="101" cy="105.6" r="96.1"/>
  <g class="st7">
    <g>
      <path class="st6" d="M56.3,256.2c-.8.5-1.8.8-2.7.9h-186.8c-.7,0-.5-.4.3-.9L193.2,68c.8-.5,1.8-.8,2.7-.9h186.8c.7,0,.5.4-.3.9L56.3,256.2Z"/>
      <path class="st5" d="M383.7,67.5c.8-.5,1-.9.3-.9h-188c-1,0-1.9.4-2.7.9l-327.6,189.1c-.8.5-1,.9-.3.9H53.4c1,0,1.9-.4,2.7-.9L383.7,67.5ZM215.7,74.3c-.2.2-1.1.7-2,1.2l-7.3,4.2-3.1,1.8-7.3,4.2c-.8.5-1.8,1-2.1,1.2s-2,.8-3.1,1.1l-3.5,1.2c-1.1.4-2.2.7-2.6.8-.7.1-1.4.2-2.1.2h-16.8c-.5,0-1,0-1.5,0-.1,0,0-.5.1-.9l.5-1.2c.1-.3.3-.6.5-.9.7-.5,1.4-1,2.2-1.4l7.3-4.2,3.1-1.8,7.3-4.2c.8-.5,1.8-1,2.1-1.2s2-.8,3.1-1.1l3.5-1.2c1.1-.4,2.2-.7,2.5-.8.7-.1,1.4-.2,2.1-.2h16.8c.5,0,1,0,1.5,0,.1,0,0,.5-.1.9l-.5,1.2c-.2.4-.5.8-.8,1.1ZM245.7,74.3c-.2.2-1.1.7-2,1.2l-7.3,4.2-3.1,1.8-7.3,4.2c-.8.5-1.8,1-2.1,1.2s-2,.8-3.1,1.1l-3.5,1.2c-1.1.4-2.2.7-2.6.8-.7.1-1.4.2-2.1.2h-16.8c-.5,0-1,0-1.5,0-.1,0,0-.5.1-.9l.5-1.2c.1-.3.3-.6.5-.9.7-.5,1.4-1,2.2-1.4l7.3-4.2,3.1-1.8,7.3-4.2c.8-.5,1.8-1,2.1-1.2s2-.8,3.1-1.1l3.5-1.2c1.1-.4,2.2-.7,2.6-.8.7-.1,1.4-.2,2.1-.2h16.8c.5,0,1,0,1.5,0,.1,0,0,.5-.1.9l-.5,1.2c-.2.4-.5.8-.8,1.1ZM275.8,74.3c-.2.2-1.1.7-2,1.2l-7.3,4.2-3.1,1.8-7.3,4.2c-.8.5-1.8,1-2.1,1.2s-2,.8-3.1,1.1l-3.5,1.2c-1.1.4-2.2.7-2.6.8-.7.1-1.4.2-2.1.2h-16.8c-.5,0-1,0-1.5,0-.1,0,0-.5.1-.9l.5-1.2c.1-.3.3-.6.5-.9.7-.5,1.4-1,2.2-1.4l7.3-4.2,3.1-1.8,7.3-4.2c.8-.5,1.8-1,2.1-1.2s2-.8,3.1-1.1l3.5-1.2c1.1-.4,2.2-.7,2.6-.8.7-.1,1.4-.2,2.1-.2h16.8c.5,0,1,0,1.5,0,.1,0,0,.5-.1.9l-.5,1.2c-.2.4-.5.8-.8,1.1h0ZM305.8,74.3c-.2.2-1.1.7-2,1.2l-7.3,4.2-3.1,1.8-7.3,4.2c-.8.5-1.8,1-2.1,1.2s-2,.8-3.1,1.1l-3.5,1.2c-1.1.4-2.2.7-2.6.8-.7.1-1.4.2-2.1.2h-16.8c-.5,0-1,0-1.5,0-.1,0,0-.5.1-.9l.5-1.2c.1-.3.3-.6.5-.9.7-.5,1.4-1,2.2-1.4l7.3-4.2,3.1-1.8,7.3-4.2c.8-.5,1.8-1,2.1-1.2s2-.8,3.1-1.1l3.5-1.2c1.1-.4,2.2-.7,2.6-.8.7-.1,1.4-.2,2.1-.2h16.8c.5,0,1,0,1.5,0,.1,0,0,.5-.1.9l-.5,1.2c-.2.4-.5.8-.8,1.1h0ZM335.9,74.3c-.2.2-1.1.7-2,1.2l-7.3,4.2-3.1,1.8-7.3,4.2c-.8.5-1.8,1-2.1,1.2s-2,.8-3.1,1.1l-3.5,1.2c-1.1.4-2.2.7-2.6.8-.7.1-1.4.2-2.1.2h-16.8c-.5,0-1,0-1.5,0-.1,0,0-.5.1-.9l.5-1.2c.1-.3.3-.6.5-.9.7-.5,1.4-1,2.2-1.4l7.3-4.2,3.1-1.8,7.3-4.2c.8-.5,1.8-1,2.1-1.2s2-.8,3.1-1.1l3.5-1.2c1.1-.4,2.2-.7,2.5-.8.7-.1,1.4-.2,2.1-.2h16.8c.5,0,1,0,1.5,0,.1,0,0,.5-.1.9l-.5,1.2c-.2.4-.5.8-.8,1.1h0ZM356.6,79.7l-3.1,1.8-7.2,4.2c-.8.5-1.8,1-2.1,1.2s-2,.8-3.1,1.1l-3.5,1.2c-1.1.4-2.2.7-2.6.8-.7.1-1.4.2-2.1.2h-16.8c-.5,0-1,0-1.5,0-.1,0,0-.5.1-.9l.5-1.2c.1-.3.3-.6.5-.9.7-.5,1.4-1,2.2-1.4l7.3-4.2,3.1-1.8,7.3-4.2c.8-.5,1.8-1,2.1-1.2s2-.8,3.1-1.1l3.5-1.2c1.1-.4,2.2-.7,2.6-.8.7-.1,1.4-.2,2.1-.2h16.8c.5,0,1,0,1.5,0,.1,0,0,.5-.1.9l-.5,1.2c-.1.3-.3.6-.5.9-.7.5-1.4,1-2.2,1.4l-7.3,4.2ZM180.4,94.7c-.2.2-1.1.7-2,1.2l-7.3,4.2-3.1,1.8-7.3,4.2c-.8.5-1.8,1-2.1,1.2s-2,.8-3.1,1.1l-3.5,1.2c-1.1.4-2.2.7-2.6.8-.7.1-1.4.2-2.1.2h-16.8c-.5,0-1,0-1.5,0-.1,0,0-.5.1-.9l.5-1.2c.1-.3.3-.6.5-.9.7-.5,1.4-1,2.2-1.4l7.3-4.2,3.1-1.8,7.3-4.2c.8-.5,1.8-1,2.1-1.2s2-.8,3.1-1.1l3.5-1.2c1.1-.4,2.2-.7,2.5-.8.7-.1,1.4-.2,2.1-.2h16.8c.5,0,1,0,1.5,0,.1,0,0,.5-.1.9l-.5,1.2c-.2.4-.5.8-.8,1.1ZM210.5,94.7c-.2.2-1.1.7-2,1.2l-7.3,4.2-3.1,1.8-7.3,4.2c-.8.5-1.8,1-2.1,1.2s-2,.8-3.1,1.1l-3.5,1.2c-1.1.4-2.2.7-2.6.8-.7.1-1.4.2-2.1.2h-16.8c-.5,0-1,0-1.5,0-.1,0,0-.5.1-.9l.5-1.2c.1-.3.3-.6.5-.9.7-.5,1.4-1,2.2-1.4l7.3-4.2,3.1-1.8,7.3-4.2c.8-.5,1.8-1,2.1-1.2s2-.8,3.1-1.1l3.5-1.2c1.1-.4,2.2-.7,2.6-.8.7-.1,1.4-.2,2.1-.2h16.8c.5,0,1,0,1.5,0,.1,0,0,.5-.1.9l-.5,1.2c-.2.4-.5.8-.8,1.1h0ZM240.5,94.7c-.2.2-1.1.7-2,1.2l-7.3,4.2-3.1,1.8-7.3,4.2c-.8.5-1.8,1-2.1,1.2s-2,.8-3.1,1.1l-3.5,1.2c-1.1.4-2.2.7-2.6.8-.7.1-1.4.2-2.1.2h-16.8c-.5,0-1,0-1.5,0-.1,0,0-.5.1-.9l.5-1.2c.1-.3.3-.6.5-.9.7-.5,1.4-1,2.2-1.4l7.3-4.2,3.1-1.8,7.3-4.2c.8-.5,1.8-1,2.1-1.2s2-.8,3.1-1.1l3.5-1.2c1.1-.4,2.2-.7,2.6-.8.7-.1,1.4-.2,2.1-.2h16.8c.5,0,1,0,1.5,0,.1,0,0,.5-.1.9l-.5,1.2c-.2.4-.5.8-.8,1.1h0ZM270.5,94.7c-.2.2-1.1.7-2,1.2l-7.3,4.2-3.1,1.8-7.3,4.2c-.8.5-1.8,1-2.1,1.2s-2,.8-3.1,1.1l-3.5,1.2c-1.1.4-2.2.7-2.6.8-.7.1-1.4.2-2.1.2h-16.8c-.5,0-1,0-1.5,0-.1,0,0-.5.1-.9l.5-1.2c.1-.3.3-.6.5-.9.7-.5,1.4-1,2.2-1.4l7.3-4.2,3.1-1.8,7.3-4.2c.8-.5,1.8-1,2.1-1.2s2-.8,3.1-1.1l3.5-1.2c1.1-.4,2.2-.7,2.6-.8.7-.1,1.4-.2,2.1-.2h16.8c.5,0,1,0,1.5,0,.1,0,0,.5-.1.9l-.5,1.2c-.2.4-.5.8-.8,1.1h0ZM300.6,94.7c-.2.2-1.1.7-2,1.2l-7.3,4.2-3.1,1.8-7.3,4.2c-.8.5-1.8,1-2.1,1.2s-2,.8-3.1,1.1l-3.5,1.2c-1.1.4-2.2.7-2.6.8-.7.1-1.4.2-2.1.2h-16.8c-.5,0-1,0-1.5,0-.1,0,0-.5.1-.9l.5-1.2c.1-.3.3-.6.5-.9.7-.5,1.4-1,2.2-1.4l7.3-4.2,3.1-1.8,7.3-4.2c.8-.5,1.8-1,2.1-1.2s2-.8,3.1-1.1l3.5-1.2c1.1-.4,2.2-.7,2.5-.8.7-.1,1.4-.2,2.1-.2h16.8c.5,0,1,0,1.5,0,.1,0,0,.5-.1.9l-.5,1.2c-.2.4-.5.8-.8,1.1h0ZM330.6,94.7c-.2.2-1.1.7-2,1.2l-7.3,4.2-3.1,1.8-7.3,4.2c-.8.5-1.8,1-2.1,1.2s-2,.8-3.1,1.1l-3.5,1.2c-1.1.4-2.2.7-2.6.8-.7.1-1.4.2-2.1.2h-16.8c-.5,0-1,0-1.5,0-.1,0,0-.5.1-.9l.5-1.2c.1-.3.3-.6.5-.9.7-.5,1.4-1,2.2-1.4l7.3-4.2,3.1-1.8,7.3-4.2c.8-.5,1.8-1,2.1-1.2s2-.8,3.1-1.1l3.5-1.2c1.1-.4,2.2-.7,2.6-.8.7-.1,1.4-.2,2.1-.2h16.8c.5,0,1,0,1.5,0,.1,0,0,.5-.1.9l-.5,1.2c-.2.4-.5.8-.8,1.1h0ZM145.1,115.1c-.2.2-1.1.7-2,1.2l-7.3,4.2-3.1,1.8-7.3,4.2c-.8.5-1.8,1-2.1,1.2s-2,.8-3.1,1.1l-3.5,1.2c-1.1.4-2.2.7-2.6.8-.7.1-1.4.2-2.1.2h-16.8c-.5,0-1,0-1.5,0-.1,0,0-.5.1-.9l.5-1.2c.1-.3.3-.6.5-.9.7-.5,1.4-1,2.2-1.4l7.3-4.2,3.1-1.8,7.3-4.2c.8-.5,1.8-1,2.1-1.2s2-.8,3.1-1.1l3.5-1.2c1.1-.4,2.2-.7,2.6-.8.7-.1,1.4-.2,2.1-.2h16.8c.5,0,1,0,1.5,0,.1,0,0,.5-.1.9l-.5,1.2c-.2.4-.5.8-.8,1.1ZM175.2,115.1c-.2.2-1.1.7-2,1.2l-7.3,4.2-3.1,1.8-7.3,4.2c-.8.5-1.8,1-2.1,1.2s-2,.8-3.1,1.1l-3.5,1.2c-1.1.4-2.2.7-2.6.8-.7.1-1.4.2-2.1.2h-16.8c-.5,0-1,0-1.5,0-.1,0,0-.5.1-.9l.5-1.2c.1-.3.3-.6.5-.9.7-.5,1.4-1,2.2-1.4l7.3-4.2,3.1-1.8,7.3-4.2c.8-.5,1.8-1,2.1-1.2s2-.8,3.1-1.1l3.5-1.2c1.1-.4,2.2-.7,2.6-.8.7-.1,1.4-.2,2.1-.2h16.8c.5,0,1,0,1.5,0,.1,0,0,.5-.1.9l-.5,1.2c-.2.4-.5.8-.8,1.1ZM205.2,115.1c-.2.2-1.1.7-2,1.2l-7.3,4.2-3.1,1.8-7.3,4.2c-.8.5-1.8,1-2.1,1.2s-2,.8-3.1,1.1l-3.5,1.2c-1.1.4-2.2.7-2.5.8-.7.1-1.4.2-2.1.2h-16.8c-.5,0-1,0-1.5,0-.1,0,0-.5.1-.9l.5-1.2c.1-.3.3-.6.5-.9.7-.5,1.4-1,2.2-1.4l7.3-4.2,3.1-1.8,7.3-4.2c.8-.5,1.8-1,2.1-1.2s2-.8,3.1-1.1l3.5-1.2c1.1-.4,2.2-.7,2.6-.8.7-.1,1.4-.2,2.1-.2h16.8c.5,0,1,0,1.5,0,.1,0,0,.5-.1.9l-.5,1.2c-.2.4-.5.8-.8,1.1h0ZM235.2,115.1c-.2.2-1.1.7-2,1.2l-7.3,4.2-3.1,1.8-7.3,4.2c-.8.5-1.8,1-2.1,1.2s-2,.8-3.1,1.1l-3.5,1.2c-1.1.4-2.2.7-2.6.8-.7.1-1.4.2-2.1.2h-16.8c-.5,0-1,0-1.5,0-.1,0,0-.5.1-.9l.5-1.2c.1-.3.3-.6.5-.9.7-.5,1.4-1,2.2-1.4l7.3-4.2,3.1-1.8,7.3-4.2c.8-.5,1.8-1,2.1-1.2s2-.8,3.1-1.1l3.5-1.2c1.1-.4,2.2-.7,2.6-.8.7-.1,1.4-.2,2.1-.2h16.8c.5,0,1,0,1.5,0,.1,0,0,.5-.1.9l-.5,1.2c-.2.4-.5.8-.8,1.1h0ZM265.3,115.1c-.2.2-1.1.7-2,1.2l-7.3,4.2-3.1,1.8-7.3,4.2c-.8.5-1.8,1-2.1,1.2s-2,.8-3.1,1.1l-3.5,1.2c-1.1.4-2.2.7-2.6.8-.7.1-1.4.2-2.1.2h-16.8c-.5,0-1,0-1.5,0-.1,0,0-.5.1-.9l.5-1.2c.1-.3.3-.6.5-.9.7-.5,1.4-1,2.2-1.4l7.3-4.2,3.1-1.8,7.3-4.2c.8-.5,1.8-1,2.1-1.2s2-.8,3.1-1.1l3.5-1.2c1.1-.4,2.2-.7,2.6-.8.7-.1,1.4-.2,2.1-.2h16.8c.5,0,1,0,1.5,0,.1,0,0,.5-.1.9l-.5,1.2c-.2.4-.5.8-.8,1.1h0ZM295.3,115.1c-.2.2-1.1.7-2,1.2l-7.3,4.2-3.1,1.8-7.3,4.2c-.8.5-1.8,1-2.1,1.2s-2,.8-3.1,1.1l-3.5,1.2c-1.1.4-2.2.7-2.6.8-.7.1-1.4.2-2.1.2h-16.8c-.5,0-1,0-1.5,0-.1,0,0-.5.1-.9l.5-1.2c.1-.3.3-.6.5-.9.7-.5,1.4-1,2.2-1.4l7.3-4.2,3.1-1.8,7.3-4.2c.8-.5,1.8-1,2.1-1.2s2-.8,3.1-1.1l3.5-1.2c1.1-.4,2.2-.7,2.6-.8.7-.1,1.4-.2,2.1-.2h16.8c.5,0,1,0,1.5,0,.1,0,0,.5-.1.9l-.5,1.2c-.2.4-.5.8-.8,1.1h0ZM109.9,135.4c-.2.2-1.1.7-2,1.2l-7.3,4.2-3.1,1.8-7.3,4.2c-.8.5-1.8,1-2.1,1.2s-2,.8-3.1,1.1l-3.5,1.2c-1.1.4-2.2.7-2.6.8-.7.1-1.4.2-2.1.2h-16.8c-.5,0-1,0-1.5,0-.1,0,0-.5.1-.9l.5-1.2c.1-.3.3-.6.5-.9.7-.5,1.4-1,2.2-1.4l7.3-4.2,3.1-1.8,7.3-4.2c.8-.5,1.8-1,2.1-1.2s2-.8,3.1-1.1l3.5-1.2c1.1-.4,2.2-.7,2.6-.8.7-.1,1.4-.2,2.1-.2h16.8c.5,0,1,0,1.5,0,.1,0,0,.5-.1.9l-.5,1.2c-.2.4-.5.8-.8,1.1ZM139.9,135.4c-.2.2-1.1.7-2,1.2l-7.3,4.2-3.1,1.8-7.3,4.2c-.8.5-1.8,1-2.1,1.2s-2,.8-3.1,1.1l-3.5,1.2c-1.1.4-2.2.7-2.6.8-.7.1-1.4.2-2.1.2h-16.8c-.5,0-1,0-1.5,0-.1,0,0-.5.1-.9l.5-1.2c.1-.3.3-.6.5-.9.7-.5,1.4-1,2.2-1.4l7.3-4.2,3.1-1.8,7.3-4.2c.8-.5,1.8-1,2.1-1.2s2-.8,3.1-1.1l3.5-1.2c1.1-.4,2.2-.7,2.6-.8.7-.1,1.4-.2,2.1-.2h16.8c.5,0,1,0,1.5,0,.1,0,0,.5-.1.9l-.5,1.2c-.2.4-.5.8-.8,1.1ZM169.9,135.4c-.2.2-1.1.7-2,1.2l-7.3,4.2-3.1,1.8-7.3,4.2c-.8.5-1.8,1-2.1,1.2s-2,.8-3.1,1.1l-3.5,1.2c-1.1.4-2.2.7-2.5.8-.7.1-1.4.2-2.1.2h-16.8c-.5,0-1,0-1.5,0-.1,0,0-.5.1-.9l.5-1.2c.1-.3.3-.6.5-.9.7-.5,1.4-1,2.2-1.4l7.3-4.2,3.1-1.8,7.3-4.2c.8-.5,1.8-1,2.1-1.2s2-.8,3.1-1.1l3.5-1.2c1.1-.4,2.2-.7,2.6-.8.7-.1,1.4-.2,2.1-.2h16.8c.5,0,1,0,1.5,0,.1,0,0,.5-.1.9l-.5,1.2c-.2.4-.5.8-.8,1.1h0ZM200,135.4c-.2.2-1.1.7-2,1.2l-7.3,4.2-3.1,1.8-7.3,4.2c-.8.5-1.8,1-2.1,1.2s-2,.8-3.1,1.1l-3.5,1.2c-1.1.4-2.2.7-2.6.8-.7.1-1.4.2-2.1.2h-16.8c-.5,0-1,0-1.5,0-.1,0,0-.5.1-.9l.5-1.2c.1-.3.3-.6.5-.9.7-.5,1.4-1,2.2-1.4l7.3-4.2,3.1-1.8,7.3-4.2c.8-.5,1.8-1,2.1-1.2s2-.8,3.1-1.1l3.5-1.2c1.1-.4,2.2-.7,2.6-.8.7-.1,1.4-.2,2.1-.2h16.8c.5,0,1,0,1.5,0,.1,0,0,.5-.1.9l-.5,1.2c-.2.4-.5.8-.8,1.2h0ZM230,135.4c-.2.2-1.1.7-2,1.2l-7.3,4.2-3.1,1.8-7.3,4.2c-.8.5-1.8,1-2.1,1.2s-2,.8-3.1,1.1l-3.5,1.2c-1.1.4-2.2.7-2.6.8-.7.1-1.4.2-2.1.2h-16.8c-.5,0-1,0-1.5,0-.1,0,0-.5.1-.9l.5-1.2c.1-.3.3-.6.5-.9.7-.5,1.4-1,2.2-1.4l7.3-4.2,3.1-1.8,7.3-4.2c.8-.5,1.8-1,2.1-1.2s2-.8,3.1-1.1l3.5-1.2c1.1-.4,2.2-.7,2.6-.8.7-.1,1.4-.2,2.1-.2h16.8c.5,0,1,0,1.5,0,.1,0,0,.5-.1.9l-.6,1.2c-.2.4-.5.8-.8,1.1h0ZM260,135.4c-.2.2-1.1.7-2,1.2l-7.3,4.2-3.1,1.8-7.3,4.2c-.8.5-1.8,1-2.1,1.2s-2,.8-3.1,1.1l-3.5,1.2c-1.1.4-2.2.7-2.6.8-.7.1-1.4.2-2.1.2h-16.8c-.5,0-1,0-1.5,0-.1,0,0-.5.1-.9l.5-1.2c.1-.3.3-.6.5-.9.7-.5,1.4-1,2.2-1.4l7.3-4.2,3.1-1.8,7.3-4.2c.8-.5,1.8-1,2.1-1.2s2-.8,3.1-1.1l3.5-1.2c1.1-.4,2.2-.7,2.6-.8.7-.1,1.4-.2,2.1-.2h16.8c.5,0,1,0,1.5,0,.1,0,0,.5-.1.9l-.5,1.2c-.2.4-.5.8-.8,1.1ZM74.6,155.8c-.2.2-1.1.7-2,1.2l-7.3,4.2-3.1,1.8-7.3,4.2c-.8.5-1.8,1-2.1,1.2s-2,.8-3.1,1.1l-3.5,1.2c-1.1.4-2.2.7-2.5.8-.7.1-1.4.2-2.1.2h-16.8c-.5,0-1,0-1.5,0-.1,0,0-.5.1-.9l.5-1.2c.1-.3.3-.6.5-.9.7-.5,1.4-1,2.2-1.4l7.3-4.2,3.1-1.8,7.3-4.2c.8-.5,1.8-1,2.1-1.2s2-.8,3.1-1.1l3.5-1.2c1.1-.4,2.2-.7,2.6-.8.7-.1,1.4-.2,2.1-.2h16.8c.5,0,1,0,1.5,0,.1,0,0,.5-.1.9l-.5,1.2c-.2.4-.5.8-.8,1.1ZM104.6,155.8c-.2.2-1.1.7-2,1.2l-7.3,4.2-3.1,1.8-7.3,4.2c-.8.5-1.8,1-2.1,1.2s-2,.8-3.1,1.1l-3.5,1.2c-1.1.4-2.2.7-2.6.8-.7.1-1.4.2-2.1.2h-16.8c-.5,0-1,0-1.5,0-.1,0,0-.5.1-.9l.5-1.2c.1-.3.3-.6.5-.9.7-.5,1.4-1,2.2-1.4l7.3-4.2,3.1-1.8,7.2-4.2c.8-.5,1.8-1,2.1-1.2s2-.8,3.1-1.1l3.5-1.2c1.1-.4,2.2-.7,2.6-.8.7-.1,1.4-.2,2.1-.2h16.8c.5,0,1,0,1.5,0,.1,0,0,.5-.1.9l-.5,1.2c-.2.4-.5.8-.8,1.1ZM134.6,155.8c-.2.2-1.1.7-2,1.2l-7.3,4.2-3.1,1.8-7.3,4.2c-.8.5-1.8,1-2.1,1.2s-2,.8-3.1,1.1l-3.5,1.2c-1.1.4-2.2.7-2.5.8-.7.1-1.4.2-2.1.2h-16.8c-.5,0-1,0-1.5,0-.1,0,0-.5.1-.9l.5-1.2c.1-.3.3-.6.5-.9.7-.5,1.4-1,2.2-1.4l7.3-4.2,3.1-1.8,7.3-4.2c.8-.5,1.8-1,2.1-1.2s2-.8,3.1-1.1l3.5-1.2c1.1-.4,2.2-.7,2.6-.8.7-.1,1.4-.2,2.1-.2h16.8c.5,0,1,0,1.5,0,.1,0,0,.5-.1.9l-.5,1.1c-.2.4-.5.8-.8,1.1ZM164.7,155.8c-.2.2-1.1.7-2,1.2l-7.3,4.2-3,1.8-7.3,4.2c-.8.5-1.8,1-2.1,1.2s-2,.8-3.1,1.1l-3.5,1.2c-1.1.4-2.2.7-2.6.8-.7.1-1.4.2-2.1.2h-16.8c-.5,0-1,0-1.5,0-.1,0,0-.5.1-.9l.5-1.2c.1-.3.3-.6.5-.9.7-.5,1.4-1,2.2-1.4l7.3-4.2,3.1-1.8,7.3-4.2c.8-.5,1.8-1,2.1-1.2s2-.8,3.1-1.1l3.5-1.2c1.1-.4,2.2-.7,2.6-.8.7-.1,1.4-.2,2.1-.2h16.8c.5,0,1,0,1.5,0,.1,0,0,.5-.1.9l-.5,1.2c-.2.4-.5.8-.8,1.1ZM194.7,155.8c-.2.2-1.1.7-2,1.2l-7.3,4.2-3.1,1.8-7.3,4.2c-.8.5-1.8,1-2.1,1.2s-2,.8-3.1,1.1l-3.5,1.2c-1.1.4-2.2.7-2.5.8-.7.1-1.4.2-2.1.2h-16.8c-.5,0-1,0-1.5,0-.1,0,0-.5.1-.9l.5-1.2c.1-.3.3-.6.5-.9.7-.5,1.4-1,2.2-1.4l7.3-4.2,3.1-1.8,7.3-4.2c.8-.5,1.8-1,2.1-1.2s2-.8,3.1-1.1l3.5-1.2c1.1-.4,2.2-.7,2.6-.8.7-.1,1.4-.2,2.1-.2h16.8c.5,0,1,0,1.5,0,.1,0,0,.5-.1.9l-.5,1.2c-.2.4-.5.8-.8,1.1h0ZM224.7,155.8c-.2.2-1.1.7-2,1.2l-7.3,4.2-3.1,1.8-7.3,4.2c-.8.5-1.8,1-2.1,1.2s-2,.8-3.1,1.1l-3.5,1.2c-1.1.4-2.2.7-2.6.8-.7.1-1.4.2-2.1.2h-16.8c-.5,0-1,0-1.5,0-.1,0,0-.5.1-.9l.5-1.2c.1-.3.3-.6.5-.9.7-.5,1.4-1,2.2-1.4l7.3-4.2,3.1-1.8,7.3-4.2c.8-.5,1.8-1,2.1-1.2s2-.8,3.1-1.1l3.5-1.2c1.1-.4,2.2-.7,2.6-.8.7-.1,1.4-.2,2.1-.2h16.8c.5,0,1,0,1.5,0,.1,0,0,.5-.1.9l-.5,1.2c-.2.4-.5.8-.8,1.1ZM39.3,176.2c-.2.2-1.1.7-2,1.2l-7.3,4.2-3.1,1.8-7.3,4.2c-.8.5-1.8,1-2.1,1.2s-2,.8-3.1,1.1l-3.5,1.2c-1.1.4-2.2.7-2.5.8-.7.1-1.4.2-2.1.2H-10.5c-.5,0-1,0-1.5,0-.1,0,0-.5.1-.9l.5-1.2c.1-.3.3-.6.5-.9.7-.5,1.5-1,2.2-1.4l7.3-4.2,3.1-1.8,7.3-4.2c.8-.5,1.8-1,2.1-1.2s2-.8,3.1-1.1l3.5-1.2c1.1-.4,2.2-.7,2.6-.8.7-.1,1.4-.2,2.1-.2h16.8c.5,0,1,0,1.5,0,.1,0,0,.5-.1.9l-.5,1.2c-.2.4-.5.8-.8,1.1ZM69.3,176.2c-.2.2-1.1.7-2,1.2l-7.3,4.2-3.1,1.8-7.3,4.2c-.8.5-1.8,1-2.1,1.2s-2,.8-3.1,1.1l-3.5,1.2c-1.1.4-2.2.7-2.6.8-.7.1-1.4.2-2.1.2h-16.8c-.5,0-1,0-1.5,0-.1,0,0-.5.1-.9l.5-1.2c.1-.3.3-.6.5-.9.7-.5,1.4-1,2.2-1.4l7.3-4.2,3.1-1.8,7.3-4.2c.8-.5,1.8-1,2.1-1.2s2-.8,3.1-1.1l3.5-1.2c1.1-.4,2.2-.7,2.6-.8.7-.1,1.4-.2,2.1-.2h16.8c.5,0,1,0,1.5,0,.1,0,0,.5-.1.9l-.5,1.2c-.2.4-.5.8-.8,1.1h0ZM99.3,176.2c-.2.2-1.1.7-2,1.2l-7.3,4.2-3.1,1.8-7.3,4.2c-.8.5-1.8,1-2.1,1.2s-2,.8-3.1,1.1l-3.5,1.2c-1.1.4-2.2.7-2.5.8-.7.1-1.4.2-2.1.2h-16.8c-.5,0-1,0-1.5,0-.1,0,0-.5.1-.9l.5-1.2c.1-.3.3-.6.5-.9.7-.5,1.4-1,2.2-1.4l7.3-4.2,3.1-1.8,7.3-4.2c.8-.5,1.8-1,2.1-1.2s2-.8,3.1-1.1l3.5-1.2c1.1-.4,2.2-.7,2.6-.8.7-.1,1.4-.2,2.1-.2h16.8c.5,0,1,0,1.4.1.1,0,0,.5-.1.9l-.5,1.2c-.2.4-.5.8-.8,1.1h0ZM129.4,176.2c-.2.2-1.1.7-2,1.2l-7.3,4.2-3.1,1.8-7.3,4.2c-.8.5-1.8,1-2.1,1.2s-2,.8-3.1,1.1l-3.5,1.2c-1.1.4-2.2.7-2.6.8-.7.1-1.4.2-2.1.2h-16.8c-.5,0-1,0-1.5,0-.1,0,0-.5.1-.9l.5-1.2c.1-.3.3-.6.5-.9.7-.5,1.4-1,2.2-1.4l7.3-4.2,3.1-1.8,7.3-4.2c.8-.5,1.8-1,2.1-1.2s2-.8,3.1-1.1l3.5-1.2c1.1-.4,2.2-.7,2.6-.8.7-.1,1.4-.2,2.1-.2h16.8c.5,0,1,0,1.5,0,.1,0,0,.5-.1.9l-.5,1.2c-.2.4-.5.8-.8,1.1h0ZM159.4,176.2c-.2.2-1.1.7-2,1.2l-7.3,4.2-3.1,1.8-7.3,4.2c-.8.5-1.8,1-2.1,1.2s-2,.8-3.1,1.1l-3.5,1.2c-1.1.4-2.2.7-2.5.8-.7.1-1.4.2-2.1.2h-16.8c-.5,0-1,0-1.5,0-.1,0,0-.5.1-.9l.5-1.2c.1-.3.3-.6.5-.9.7-.5,1.4-1,2.2-1.4l7.3-4.2c.8-.5,2.2-1.3,3.1-1.8l7.3-4.2c.8-.5,1.8-1,2.1-1.2s2-.8,3.1-1.1l3.5-1.2c1.1-.4,2.2-.7,2.6-.8.7-.1,1.4-.2,2.1-.2h16.8c.5,0,1,0,1.5,0,.1,0,0,.5-.1.9l-.5,1.2c-.2.4-.5.8-.8,1.1h0ZM189.5,176.2c-.2.2-1.1.7-2,1.2l-7.3,4.2-3.1,1.8-7.3,4.2c-.8.5-1.8,1-2.1,1.2s-2,.8-3.1,1.1l-3.5,1.2c-1.1.4-2.2.7-2.6.8-.7.1-1.4.2-2.1.2h-16.8c-.5,0-1,0-1.5,0-.1,0,0-.5.1-.9l.5-1.2c.1-.3.3-.6.5-.9.7-.5,1.4-1,2.2-1.4l7.3-4.2,3.1-1.8,7.3-4.2c.8-.5,1.8-1,2.1-1.2s2-.8,3.1-1.1l3.5-1.2c1.1-.4,2.2-.7,2.6-.8.7-.1,1.4-.2,2.1-.2h16.8c.5,0,1,0,1.5,0,.1,0,0,.5-.1.9l-.5,1.2c-.2.4-.5.8-.8,1.1h0ZM4,196.6c-.2.2-1.1.7-2,1.2l-7.3,4.2c-.8.5-2.2,1.3-3.1,1.8l-7.3,4.2c-.8.5-1.8,1-2.1,1.2s-2,.8-3.1,1.1l-3.5,1.2c-1.1.4-2.2.7-2.6.8-.7.1-1.4.2-2.1.2h-16.8c-.5,0-1,0-1.5,0-.1,0,0-.5.1-.9l.5-1.2c.1-.3.3-.6.5-.9.7-.5,1.4-1,2.2-1.4l7.3-4.2,3.1-1.8,7.3-4.2c.8-.5,1.8-1,2.1-1.2s2-.8,3.1-1.1l3.5-1.2c1.1-.4,2.2-.7,2.6-.8.7-.1,1.4-.2,2.1-.2H4c.5,0,1,0,1.5,0,.1,0,0,.5-.1.9l-.5,1.2c-.2.4-.5.8-.8,1.1ZM34,196.6c-.2.2-1.1.7-2,1.2l-7.3,4.2c-.8.5-2.2,1.3-3.1,1.8l-7.3,4.2c-.8.5-1.8,1-2.1,1.2s-2,.8-3.1,1.1l-3.5,1.2c-1.1.4-2.2.7-2.6.8-.7.1-1.4.2-2.1.2H-15.8c-.5,0-1,0-1.5,0-.1,0,0-.5.1-.9l.5-1.2c.1-.3.3-.6.5-.9.7-.5,1.4-1,2.2-1.4l7.3-4.2,3.1-1.8,7.3-4.2c.8-.5,1.8-1,2.1-1.2s2-.8,3.1-1.1l3.5-1.2c1.1-.4,2.2-.7,2.6-.8.7-.1,1.4-.2,2.1-.2h16.8c.5,0,1,0,1.5,0,.1,0,0,.5-.1.9l-.5,1.2c-.2.4-.5.8-.8,1.1ZM64.1,196.6c-.2.2-1.1.7-2,1.2l-7.3,4.2c-.8.5-2.2,1.3-3.1,1.8l-7.3,4.2c-.8.5-1.8,1-2.1,1.2s-2,.8-3.1,1.1l-3.5,1.2c-1.1.4-2.2.7-2.6.8-.7.1-1.4.2-2.1.2H14.3c-.5,0-1,0-1.5,0-.1,0,0-.5.1-.9l.5-1.2c.1-.3.3-.6.5-.9.7-.5,1.4-1,2.2-1.4l7.3-4.2,3.1-1.8,7.3-4.2c.8-.5,1.8-1,2.1-1.2s2-.8,3.1-1.1l3.5-1.2c1.1-.4,2.2-.7,2.6-.8.7-.1,1.4-.2,2.1-.2h16.8c.5,0,1,0,1.5,0,.1,0,0,.5-.1.9l-.5,1.2c-.2.4-.5.8-.8,1.1h0ZM94.1,196.6c-.2.2-1.1.7-2,1.2l-7.3,4.2c-.8.5-2.2,1.3-3.1,1.8l-7.3,4.2c-.8.5-1.8,1-2.1,1.2s-2,.8-3.1,1.1l-3.5,1.2c-1.1.4-2.2.7-2.6.8-.7.1-1.4.2-2.1.2h-16.8c-.5,0-1,0-1.5,0-.1,0,0-.5.1-.9l.5-1.2c.1-.3.3-.6.5-.9.7-.5,1.4-1,2.2-1.4l7.3-4.2,3.1-1.8,7.3-4.2c.8-.5,1.8-1,2.1-1.2s2-.8,3.1-1.1l3.5-1.2c1.1-.4,2.2-.7,2.6-.8.7-.1,1.4-.2,2.1-.2h16.8c.5,0,1,0,1.5,0,.1,0,0,.5-.1.9l-.5,1.2c-.2.4-.5.8-.8,1.1h0ZM124.1,196.6c-.2.2-1.1.7-2,1.2l-7.3,4.2c-.8.5-2.2,1.3-3.1,1.8l-7.3,4.2c-.8.5-1.8,1-2.1,1.2s-2,.8-3.1,1.1l-3.5,1.2c-1.1.4-2.2.7-2.6.8-.7.1-1.4.2-2.1.2h-16.8c-.5,0-1,0-1.5,0-.1,0,0-.5.1-.9l.5-1.2c.1-.3.3-.6.5-.9.7-.5,1.4-1,2.2-1.4l7.3-4.2,3.1-1.8,7.3-4.2c.8-.5,1.8-1,2.1-1.2s2-.8,3.1-1.1l3.5-1.2c1.1-.4,2.2-.7,2.6-.8.7-.1,1.4-.2,2.1-.2h16.8c.5,0,1,0,1.5,0,.1,0,0,.5-.1.9l-.5,1.2c-.2.4-.5.8-.8,1.1h0ZM154.2,196.6c-.2.2-1.1.7-2,1.2l-7.3,4.2c-.8.5-2.2,1.3-3.1,1.8l-7.3,4.2c-.8.5-1.8,1-2.1,1.2s-2,.8-3.1,1.1l-3.5,1.2c-1.1.4-2.2.7-2.6.8-.7.1-1.4.2-2.1.2h-16.8c-.5,0-1,0-1.5,0-.1,0,0-.5.1-.9l.5-1.2c.1-.3.3-.6.5-.9.7-.5,1.4-1,2.2-1.4l7.3-4.2,3.1-1.8,7.3-4.2c.8-.5,1.8-1,2.1-1.2s2-.8,3.1-1.1l3.5-1.2c1.1-.4,2.2-.7,2.6-.8.7-.1,1.4-.2,2.1-.2h16.8c.5,0,1,0,1.5,0,.1,0,0,.5-.1.9l-.5,1.2c-.2.4-.5.8-.8,1.1h0ZM-31.3,216.9c-.2.2-1.1.7-2,1.2l-7.3,4.2-3.1,1.8-7.3,4.2c-.8.5-1.8,1-2.1,1.2s-2,.8-3.1,1.1l-3.5,1.2c-1.1.4-2.2.7-2.6.8-.7.1-1.4.2-2.1.2h-16.8c-.5,0-1,0-1.5,0-.1,0,0-.5.1-.9l.5-1.2c.1-.3.3-.6.5-.9.7-.5,1.4-1,2.2-1.4l7.3-4.2,3.1-1.8,7.3-4.2c.8-.5,1.8-1,2.1-1.2s2-.8,3.1-1.1l3.5-1.2c1.1-.4,2.2-.7,2.5-.8.7-.1,1.4-.2,2.1-.2h16.8c.5,0,1,0,1.5,0,.1,0,0,.5-.1.9l-.5,1.2c-.2.4-.5.8-.8,1.1ZM-1.3,216.9c-.2.2-1.1.7-2,1.2l-7.3,4.2-3.1,1.8-7.3,4.2c-.8.5-1.8,1-2.1,1.2s-2,.8-3.1,1.1l-3.5,1.2c-1.1.4-2.2.7-2.6.8-.7.1-1.4.2-2.1.2h-16.8c-.5,0-1,0-1.5,0-.1,0,0-.5.1-.9l.5-1.2c.1-.3.3-.6.5-.9.7-.5,1.4-1,2.2-1.4l7.3-4.2,3.1-1.8,7.3-4.2c.8-.5,1.8-1,2.1-1.2s2-.8,3.1-1.1l3.5-1.2c1.1-.4,2.2-.7,2.6-.8.7-.1,1.4-.2,2.1-.2H-1.3c.5,0,1,0,1.5,0,.1,0,0,.5-.1.9l-.5,1.2c-.2.4-.5.8-.8,1.1ZM28.8,216.9c-.2.2-1.1.7-2,1.2l-7.3,4.2-3.1,1.8-7.2,4.2c-.8.5-1.8,1-2.1,1.2s-2,.8-3.1,1.1l-3.5,1.2c-1.1.4-2.2.7-2.6.8-.7.1-1.4.2-2.1.2h-16.8c-.5,0-1,0-1.5,0-.1,0,0-.5.1-.9l.5-1.2c.1-.3.3-.6.5-.9.7-.5,1.4-1,2.2-1.4l7.3-4.2,3.1-1.8,7.3-4.2c.8-.5,1.8-1,2.1-1.2s2-.8,3.1-1.1l3.5-1.2c1.1-.4,2.2-.7,2.6-.8.7-.1,1.4-.2,2.1-.2h16.8c.5,0,1,0,1.5,0,.1,0,0,.5-.1.9l-.5,1.2c-.2.4-.5.8-.8,1.1ZM58.8,216.9c-.2.2-1.1.7-2,1.2l-7.3,4.2-3.1,1.8-7.3,4.2c-.8.5-1.8,1-2.1,1.2s-2,.8-3.1,1.1l-3.5,1.2c-1.1.4-2.2.7-2.6.8-.7.1-1.4.2-2.1.2H9c-.5,0-1,0-1.5,0-.1,0,0-.5.1-.9l.5-1.2c.1-.3.3-.6.5-.9.7-.5,1.4-1,2.2-1.4l7.3-4.2,3.1-1.8,7.3-4.2c.8-.5,1.8-1,2.1-1.2s2-.8,3.1-1.1l3.5-1.2c1.1-.4,2.2-.7,2.6-.8.7-.1,1.4-.2,2.1-.2h16.8c.5,0,1,0,1.5,0,.1,0,0,.5-.1.9l-.5,1.2c-.2.4-.5.8-.8,1.1h0ZM88.8,216.9c-.2.2-1.1.7-2,1.2l-7.3,4.2-3.1,1.8-7.3,4.2c-.8.5-1.8,1-2.1,1.2s-2,.8-3.1,1.1l-3.5,1.2c-1.1.4-2.2.7-2.6.8-.7.1-1.4.2-2.1.2h-16.8c-.5,0-1,0-1.5,0-.1,0,0-.5.1-.9l.5-1.2c.1-.3.3-.6.5-.9.7-.5,1.4-1,2.2-1.4l7.3-4.2,3.1-1.8,7.3-4.2c.8-.5,1.8-1,2.1-1.2s2-.8,3.1-1.1l3.5-1.2c1.1-.4,2.2-.7,2.5-.8.7-.1,1.4-.2,2.1-.2h16.8c.5,0,1,0,1.5,0,.1,0,0,.5-.1.9l-.5,1.2c-.2.4-.5.8-.8,1.1h0ZM118.9,216.9c-.2.2-1.1.7-2,1.2l-7.3,4.2-3.1,1.8-7.3,4.2c-.8.5-1.8,1-2.1,1.2s-2,.8-3.1,1.1l-3.5,1.2c-1.1.4-2.2.7-2.6.8-.7.1-1.4.2-2.1.2h-16.8c-.5,0-1,0-1.5,0-.1,0,0-.5.1-.9l.5-1.2c.1-.3.3-.6.5-.9.7-.5,1.4-1,2.2-1.4l7.3-4.2,3.1-1.8,7.3-4.2c.8-.5,1.8-1,2.1-1.2s2-.8,3.1-1.1l3.5-1.2c1.1-.4,2.2-.7,2.6-.8.7-.1,1.4-.2,2.1-.2h16.8c.5,0,1,0,1.5,0,.1,0,0,.5-.1.9l-.5,1.2c-.2.4-.5.8-.8,1.1ZM-66.6,237.3c-.2.2-1.1.7-2,1.2l-7.3,4.2c-.8.5-2.2,1.3-3.1,1.8l-7.3,4.2c-.8.5-1.8,1-2.1,1.2s-2,.8-3.1,1.1l-3.5,1.2c-1.1.4-2.2.7-2.6.8-.7.1-1.4.2-2.1.2h-16.8c-.5,0-1,0-1.5,0-.1,0,0-.5.1-.9l.5-1.2c.1-.3.3-.6.5-.9.7-.5,1.4-1,2.2-1.4l7.3-4.2,3.1-1.8,7.3-4.2c.8-.5,1.8-1,2.1-1.2s2-.8,3.1-1.1l3.5-1.2c1.1-.4,2.2-.7,2.6-.8.7-.1,1.4-.2,2.1-.2h16.8c.5,0,1,0,1.5,0,.1,0,0,.5-.1.9l-.5,1.2c-.2.4-.5.8-.8,1.1ZM-36.5,237.3c-.2.2-1.1.7-2,1.2l-7.3,4.2c-.8.5-2.2,1.3-3.1,1.8l-7.3,4.2c-.8.5-1.8,1-2.1,1.2s-2,.8-3.1,1.1l-3.5,1.2c-1.1.4-2.2.7-2.6.8-.7.1-1.4.2-2.1.2h-16.8c-.5,0-1,0-1.5,0-.1,0,0-.5.1-.9l.5-1.2c.1-.3.3-.6.5-.9.7-.5,1.4-1,2.2-1.4l7.3-4.2,3.1-1.8,7.3-4.2c.8-.5,1.8-1,2.1-1.2s2-.8,3.1-1.1l3.5-1.2c1.1-.4,2.2-.7,2.6-.8.7-.1,1.4-.2,2.1-.2h16.8c.5,0,1,0,1.5,0,.1,0,0,.5-.1.9l-.5,1.2c-.2.4-.5.8-.8,1.1ZM-6.5,237.3c-.2.2-1.1.7-2,1.2l-7.3,4.2c-.8.5-2.2,1.3-3.1,1.8l-7.3,4.2c-.8.5-1.8,1-2.1,1.2s-2,.8-3.1,1.1l-3.5,1.2c-1.1.4-2.2.7-2.6.8-.7.1-1.4.2-2.1.2h-16.8c-.5,0-1,0-1.5,0-.1,0,0-.5.1-.9l.5-1.2c.1-.3.3-.6.5-.9.7-.5,1.4-1,2.2-1.4l7.3-4.2,3.1-1.8,7.3-4.2c.8-.5,1.8-1,2.1-1.2s2-.8,3.1-1.1l3.5-1.2c1.1-.4,2.2-.7,2.6-.8.7-.1,1.4-.2,2.1-.2H-6.5c.5,0,1,0,1.5,0,.1,0,0,.5-.1.9l-.5,1.2c-.2.4-.5.8-.8,1.1ZM23.5,237.3c-.2.2-1.1.7-2,1.2l-7.3,4.2c-.8.5-2.2,1.3-3.1,1.8l-7.3,4.2c-.8.5-1.8,1-2.1,1.2s-2,.8-3.1,1.1l-3.5,1.2c-1.1.4-2.2.7-2.6.8-.7.1-1.4.2-2.1.2h-16.8c-.5,0-1,0-1.5,0-.1,0,0-.5.1-.9l.5-1.2c.1-.3.3-.6.5-.9.7-.5,1.4-1,2.2-1.4l7.3-4.2,3.1-1.8,7.3-4.2c.8-.5,1.8-1,2.1-1.2s2-.8,3.1-1.1l3.5-1.2c1.1-.4,2.2-.7,2.6-.8.7-.1,1.4-.2,2.1-.2h16.8c.5,0,1,0,1.5,0,.1,0,0,.5-.1.9l-.5,1.2c-.2.4-.5.8-.8,1.1ZM53.6,237.3c-.2.2-1.1.7-2,1.2l-7.3,4.2c-.8.5-2.2,1.3-3.1,1.8l-7.3,4.2c-.8.5-1.8,1-2.1,1.2s-2,.8-3.1,1.1l-3.5,1.2c-1.1.4-2.2.7-2.6.8-.7.1-1.4.2-2.1.2H3.8c-.5,0-1,0-1.5,0-.1,0,0-.5.1-.9l.5-1.2c.1-.3.3-.6.5-.9.7-.5,1.4-1,2.2-1.4l7.3-4.2,3.1-1.8,7.3-4.2c.8-.5,1.8-1,2.1-1.2s2-.8,3.1-1.1l3.5-1.2c1.1-.4,2.2-.7,2.6-.8.7-.1,1.4-.2,2.1-.2h16.8c.5,0,1,0,1.5,0,.1,0,0,.5-.1.9l-.5,1.2c-.2.4-.5.8-.8,1.1h0ZM83.6,237.3c-.2.2-1.1.7-2,1.2l-7.3,4.2c-.8.5-2.2,1.3-3.1,1.8l-7.3,4.2c-.8.5-1.8,1-2.1,1.2s-2,.8-3.1,1.1l-3.5,1.2c-1.1.4-2.2.7-2.6.8-.7.1-1.4.2-2.1.2h-16.8c-.5,0-1,0-1.5,0-.1,0,0-.5.1-.9l.5-1.2c.1-.3.3-.6.5-.9.7-.5,1.4-1,2.2-1.4l7.3-4.2,3.1-1.8,7.3-4.2c.8-.5,1.8-1,2.1-1.2s2-.8,3.1-1.1l3.5-1.2c1.1-.4,2.2-.7,2.6-.8.7-.1,1.4-.2,2.1-.2h16.8c.5,0,1,0,1.5,0,.1,0,0,.5-.1.9l-.5,1.2c-.2.4-.5.8-.8,1.1h0Z"/>
      <polygon class="st5" points="-121.6 257.1 -122.5 257.1 206.6 67.1 207.5 67.1 -121.6 257.1"/>
      <polygon class="st5" points="-107.3 257.1 -108.2 257.1 220.9 67.1 221.8 67.1 -107.3 257.1"/>
      <polygon class="st5" points="-91.5 257.1 -92.4 257.1 236.6 67.1 237.5 67.1 -91.5 257.1"/>
      <polygon class="st5" points="-77.2 257.1 -78.1 257.1 251 67.1 251.9 67.1 -77.2 257.1"/>
      <polygon class="st5" points="-61.5 257.1 -62.4 257.1 266.7 67.1 267.6 67.1 -61.5 257.1"/>
      <polygon class="st5" points="-47.2 257.1 -48.1 257.1 281 67.1 281.9 67.1 -47.2 257.1"/>
      <polygon class="st5" points="-31.5 257.1 -32.4 257.1 296.7 67.1 297.6 67.1 -31.5 257.1"/>
      <polygon class="st5" points="-17.2 257.1 -18.1 257.1 311 67.1 311.9 67.1 -17.2 257.1"/>
      <polygon class="st5" points="12.9 257.1 12 257.1 341.1 67.1 342 67.1 12.9 257.1"/>
      <polygon class="st5" points="28.6 257.1 27.7 257.1 356.8 67.1 357.7 67.1 28.6 257.1"/>
      <polygon class="st5" points="42.9 257.1 42 257.1 371.1 67.1 372 67.1 42.9 257.1"/>
      <polygon class="st5" points="-1.4 257.1 -2.3 257.1 326.7 67.1 327.6 67.1 -1.4 257.1"/>
      <path class="st0" d="M52.3,258.2h-188c-1.2,0-.9-.7.6-1.6L192.5,67.5c1.5-.9,3.6-1.5,4.8-1.5h188c1.2,0,.9.7-.6,1.5L57.1,256.6c-1.5.9-3.6,1.6-4.8,1.6ZM194.9,67.3c-.2,0-.5,0-.7.2l-327.6,189.1c-.2.1-.3.2,0,.2H54.6c.2,0,.5-.1.7-.2L382.8,67.5c.2-.1.2-.2,0-.2h-188Z"/>
      <polygon class="st0" points="19.3 21.6 80.4 21.6 55.9 26.5 148 35.4 55.1 33.8 143.1 63.9 52.7 39.9 133.3 91.2 48.6 46.4 106.4 106.3 43.7 51.3 87.3 125 37.6 55.4 62.5 132.8 31.1 57.4 39.2 152.7 24.6 58.6 19.3 94.5 19.3 21.6"/>
    </g>
  </g>
  <circle class="st2" cx="101" cy="105.6" r="96.1"/>
  <path class="st4" d="M266.3,103.7c-24,0-43.1-18.6-43.1-43.2V17.4h14.1v39.2c0,16.9,11.8,32.7,29.2,32.7h23.4v14.4h-23.5Z"/>
  <path class="st4" d="M340.6,103.7c-23.9,0-43.5-18.6-43.5-43.1s19.6-43.1,43.5-43.1h23.5v14.4h-23.4c-13.9,0-25.4,9-28.5,21.7h41.9v13.8h-42.1c3,12.8,14.7,21.9,28.6,21.9h23.4v14.4h-23.5Z"/>
  <path class="st4" d="M401.6,67.3h-9v36.4h-13.9V17.4h22.9c21.6,0,31.4,9.7,31.4,25.6,0,14-9.6,24.3-31.4,24.3ZM392.6,31.8v21.6h8.9c13.7,0,17-5.4,17-10,0-8.5-4.2-11.6-17-11.6h-8.9Z"/>
  <path class="st4" d="M439.7,91.8l10.4-9.7c4.3,5.9,10.1,8.4,15.2,8.4,9.2,0,16.9-5.2,16.9-12.8-.1-13.1-37.5-12-37.7-38.1v-.5c0-11.3,8.4-22.9,24.2-22.9s16.6,4.3,23.5,13.1l-10.4,9.7c-4.7-6.2-8.5-8.4-13.2-8.4-8.4,0-10.4,3.1-10.4,9,.1,13.3,37.7,14.4,37.7,38s-14.5,27.4-30.7,27.4c-8.9,0-18.5-4.1-25.5-13.1Z"/>
  <path class="st6" d="M213.5,160.3h10.4v2.6h-13.4v-18.8h3v16.2Z"/>
  <path class="st6" d="M233.9,153.8c0-.8-.2-1.6-.8-2.2-.6-.5-1.4-.8-2.1-.8-.8,0-1.5.2-2.2.6-.7.5-1.1,1.2-1.3,1.9l-2.6-1.1c.4-1.2,1.1-2.1,2.1-2.8,1.2-.7,2.6-1.1,4.1-1.1,1,0,2.1.2,3,.6.8.3,1.5.9,2.1,1.7.5.9.8,1.8.8,2.8v6.4c0,.5.3,1,.8,1.1,0,0,.2,0,.3,0,.3,0,.7,0,1-.1l-.2,2.1c-.5.2-1.1.3-1.7.3-.6,0-1.1-.1-1.7-.3-.5-.2-.9-.6-1.1-1-.3-.5-.4-1.1-.4-1.7v-.2h.6c-.2.7-.5,1.3-1.1,1.8-.5.5-1.2.9-1.9,1.1-.7.2-1.4.4-2.1.4-.8,0-1.6-.1-2.4-.4-1.4-.5-2.4-1.9-2.3-3.4,0-1,.3-1.9,1-2.6.8-.7,1.8-1.2,2.9-1.4l5.5-1.1v2.1s-4,.8-4,.8c-.6,0-1.2.3-1.8.7-.4.3-.6.8-.6,1.2,0,.5.2,1,.6,1.3.5.3,1.1.5,1.7.5.5,0,.9,0,1.4-.2.4-.1.8-.3,1.2-.6.4-.3.6-.6.8-1,.2-.5.3-1,.3-1.5v-3.9Z"/>
  <path class="st6" d="M248.1,163.2c-.8,0-1.6-.2-2.3-.5-.7-.3-1.3-.8-1.8-1.3-.5-.6-.8-1.2-1.1-2l.4-.5-.2,4h-2.7v-20.6h3.1v10l-.3-.5c.4-1,1-1.8,1.8-2.4.9-.7,2-1,3.2-1,1.1,0,2.2.3,3.1.9,1,.6,1.8,1.5,2.3,2.5.6,1.3.9,2.6.8,4,0,1.4-.2,2.7-.8,4-.5,1-1.3,1.9-2.3,2.5-1,.6-2.1.9-3.2.9ZM247.5,160.7c1.1,0,2.2-.4,2.9-1.3.7-.9,1-2.1,1-3.6s-.3-2.7-1-3.6c-.7-.9-1.8-1.4-2.9-1.3-.7,0-1.5.2-2.1.6-.6.4-1.1,1-1.4,1.7-.4.8-.5,1.7-.5,2.6,0,.9.1,1.8.5,2.6.3.7.8,1.3,1.4,1.7.6.4,1.3.6,2.1.6Z"/>
  <path class="st6" d="M263.1,148.4c1.3,0,2.5.3,3.7.9,1.1.6,1.9,1.5,2.5,2.5,1.2,2.5,1.2,5.4,0,7.9-.6,1.1-1.4,2-2.5,2.5-2.3,1.2-5,1.2-7.3,0-1.1-.6-1.9-1.5-2.5-2.5-1.2-2.5-1.2-5.4,0-7.9.6-1.1,1.4-2,2.5-2.5,1.1-.6,2.4-.9,3.7-.9ZM263.1,150.8c-.8,0-1.5.2-2.2.6-.6.4-1.1,1-1.4,1.7-.6,1.8-.6,3.7,0,5.5.3.7.8,1.3,1.4,1.7.7.4,1.4.6,2.2.6.8,0,1.5-.2,2.2-.6.6-.4,1.1-1,1.4-1.7.6-1.8.6-3.7,0-5.5-.3-.7-.8-1.3-1.4-1.7-.6-.4-1.4-.6-2.2-.6Z"/>
  <path class="st6" d="M272.7,162.9v-14.2h2.6l.3,2.6c.3-.9.9-1.6,1.7-2.1.8-.5,1.8-.8,2.8-.7.3,0,.6,0,.9,0,.2,0,.5.1.7.2l-.4,2.7c-.2,0-.5-.1-.7-.2-.3,0-.7,0-1,0-.6,0-1.2.2-1.7.5-.6.3-1.1.8-1.4,1.4-.4.7-.6,1.6-.6,2.4v7.5h-3.1Z"/>
  <path class="st6" d="M291,153.8c0-.8-.2-1.6-.8-2.2-.6-.5-1.4-.8-2.1-.8-.8,0-1.5.2-2.2.6-.7.5-1.1,1.2-1.3,1.9l-2.6-1.1c.4-1.2,1.1-2.1,2.1-2.8,1.2-.7,2.6-1.1,4.1-1.1,1,0,2.1.2,3,.6.8.3,1.6.9,2.1,1.7.5.9.8,1.8.8,2.8v6.4c0,.5.3,1,.8,1.1,0,0,.2,0,.3,0,.3,0,.7,0,1-.1l-.2,2.1c-.5.2-1.1.3-1.7.3-.6,0-1.1,0-1.7-.3-.5-.2-.9-.6-1.1-1-.3-.5-.4-1.1-.4-1.7v-.2h.6c-.1.7-.5,1.3-1,1.8-.5.5-1.2.9-1.8,1.1-.7.2-1.4.4-2.1.4-.8,0-1.6-.1-2.4-.4-1.4-.5-2.4-1.9-2.3-3.4,0-1,.3-1.9,1-2.6.8-.7,1.8-1.2,3-1.4l5.5-1.1v2.1s-4,.8-4,.8c-.6,0-1.2.3-1.8.7-.4.3-.6.8-.6,1.2,0,.5.2,1,.6,1.3.5.3,1.1.5,1.7.5.5,0,.9,0,1.4-.2.4-.1.8-.3,1.2-.6.4-.3.6-.6.8-1,.2-.5.3-1,.3-1.5v-3.9Z"/>
  <path class="st6" d="M306.1,148.7v2.4h-10.7v-2.4h10.7ZM301.2,144.5v14.1c0,.6.2,1.1.6,1.5.4.3,1,.5,1.5.5.5,0,.9,0,1.3-.2.4-.2.7-.4,1.1-.7l.7,2.2c-.5.4-1,.7-1.6.9-.7.2-1.4.3-2.1.3-.8,0-1.5-.1-2.2-.4-.7-.2-1.2-.7-1.6-1.3-.4-.7-.6-1.5-.6-2.3v-13.8l3-.9Z"/>
  <path class="st6" d="M313.9,148.4c1.3,0,2.5.3,3.7.9,1.1.6,1.9,1.5,2.5,2.5,1.2,2.5,1.2,5.4,0,7.9-.6,1.1-1.4,2-2.5,2.5-2.3,1.2-5,1.2-7.3,0-1.1-.6-1.9-1.5-2.5-2.5-1.2-2.5-1.2-5.4,0-7.9.6-1.1,1.4-2,2.5-2.5,1.1-.6,2.4-.9,3.7-.9ZM313.9,150.8c-.8,0-1.5.2-2.2.6-.6.4-1.1,1-1.4,1.7-.6,1.8-.6,3.7,0,5.5.3.7.8,1.3,1.4,1.7,1.3.8,3,.8,4.3,0,.6-.4,1.1-1,1.4-1.7.6-1.8.6-3.7,0-5.5-.3-.7-.8-1.3-1.4-1.7-.6-.4-1.4-.6-2.2-.6Z"/>
  <path class="st6" d="M323.4,162.9v-14.2h2.6l.3,2.6c.3-.9.9-1.6,1.7-2.1.8-.5,1.8-.8,2.8-.7.3,0,.6,0,.9,0,.2,0,.5.1.7.2l-.4,2.7c-.2,0-.5-.1-.7-.2-.3,0-.7,0-1,0-.6,0-1.2.2-1.7.5-.6.3-1.1.8-1.4,1.4-.4.7-.6,1.6-.6,2.4v7.5h-3.1Z"/>
  <path class="st6" d="M335.3,146.3c-.6,0-1.1-.1-1.5-.5-.4-.4-.6-.9-.5-1.4,0-.5.2-1,.5-1.4.4-.4,1-.5,1.5-.5.5,0,1.1.1,1.5.5.4.4.6.9.5,1.4,0,.5-.2,1-.5,1.4-.4.4-.9.5-1.5.5ZM336.8,148.7v14.2h-3v-14.2h3Z"/>
  <path class="st6" d="M346.3,148.4c1.3,0,2.5.3,3.7.9,1.1.6,1.9,1.5,2.5,2.5,1.2,2.5,1.2,5.4,0,7.9-.6,1.1-1.4,2-2.5,2.5-2.3,1.2-5,1.2-7.3,0-1.1-.6-1.9-1.5-2.5-2.5-1.2-2.5-1.2-5.4,0-7.9.6-1.1,1.4-2,2.5-2.5,1.1-.6,2.4-.9,3.7-.9ZM346.3,150.8c-.8,0-1.5.2-2.2.6-.6.4-1.1,1-1.4,1.7-.6,1.8-.6,3.7,0,5.5.3.7.8,1.3,1.4,1.7.7.4,1.4.6,2.2.6.8,0,1.5-.2,2.2-.6.6-.4,1.1-1,1.4-1.7.6-1.8.6-3.7,0-5.5-.3-.7-.8-1.3-1.4-1.7-.6-.4-1.4-.6-2.2-.6Z"/>
  <path class="st6" d="M369.2,163.2c-1.1,0-2.2-.3-3.2-.9-1-.6-1.8-1.5-2.3-2.5-.6-1.2-.9-2.6-.8-4,0-1.4.3-2.8.9-4,.5-1,1.4-1.9,2.4-2.5,1-.6,2.1-.9,3.2-.9,2.2,0,4.2,1.4,4.8,3.6l-.3.3v-10h3.1v20.6h-2.7l-.2-3.9h.4c-.1.8-.4,1.6-.9,2.2-.5.6-1.1,1.1-1.9,1.4-.7.3-1.5.5-2.3.5ZM369.8,160.7c.8,0,1.5-.2,2.1-.6.6-.4,1.1-1.1,1.4-1.8.3-.9.5-1.8.5-2.7,0-.9-.1-1.7-.5-2.5-.3-.7-.8-1.2-1.4-1.7-1.6-1-3.7-.7-5,.7-.7.9-1.1,2.1-1.1,3.6,0,1.5.3,2.7,1,3.6.7.9,1.7,1.4,2.9,1.3h0Z"/>
  <path class="st6" d="M386.4,163.2c-1.3,0-2.6-.3-3.8-.9-1.1-.6-1.9-1.5-2.5-2.5-1.2-2.5-1.2-5.4,0-7.9.6-1.1,1.4-2,2.5-2.5,1.1-.6,2.4-.9,3.6-.9,1.2,0,2.5.3,3.5.9,1,.5,1.7,1.4,2.2,2.3.5,1,.8,2.2.8,3.4,0,.3,0,.7,0,1s0,.6,0,.8h-11.4v-2.3h10.1l-1.5.5c0-1.3-.3-2.3-1-3-.7-.7-1.7-1.1-2.6-1-.8,0-1.5.2-2.1.6-.6.4-1.1,1-1.4,1.7-.3.9-.5,1.8-.5,2.7,0,.9.1,1.8.5,2.7.3.7.8,1.3,1.5,1.7.7.4,1.4.6,2.2.6.8,0,1.6-.1,2.3-.5.6-.4,1.1-.9,1.4-1.5l2.4,1.1c-.3.7-.8,1.3-1.4,1.8-.6.5-1.3.9-2.1,1.2-.8.3-1.7.4-2.6.4Z"/>
  <path class="st6" d="M403.5,162.9v-18.8h13.6v2.6h-10.6v5.4h8.3v2.6h-8.3v5.6h11v2.6h-14Z"/>
  <path class="st6" d="M419.8,162.9v-14.2h2.7l.2,3.7-.4-.4c.2-.8.6-1.4,1.2-2,.5-.5,1.1-.9,1.8-1.2.7-.3,1.5-.4,2.2-.4.9,0,1.9.2,2.7.6.8.4,1.5,1,1.9,1.8.5.9.7,1.9.7,3v9.2h-3v-8.3c0-1.4-.3-2.4-.9-2.9-.6-.6-1.4-.8-2.2-.8-.6,0-1.3.2-1.8.4-.6.3-1.1.8-1.5,1.4-.4.8-.6,1.7-.6,2.6v7.6h-3Z"/>
  <path class="st6" d="M441.4,163.2c-1.3,0-2.7-.3-3.9-.8-1.1-.5-2.1-1.3-2.8-2.3l2.1-1.8c.4.8,1,1.4,1.8,1.9.9.5,1.8.7,2.8.7.7,0,1.4-.1,2.1-.5.7-.4,1-1.3.6-2,0,0-.1-.2-.2-.3-.4-.3-.8-.6-1.4-.6l-3-.6c-1.5-.3-2.6-.8-3.2-1.5-.7-.7-1-1.6-1-2.6,0-.8.2-1.5.7-2.2.5-.7,1.2-1.3,2-1.6,1-.4,2.1-.6,3.2-.6,1.3,0,2.5.2,3.6.8,1,.5,1.8,1.2,2.3,2.1l-2.1,1.8c-.3-.7-.9-1.3-1.6-1.7-.7-.4-1.4-.6-2.2-.6-.5,0-1.1,0-1.6.2-.4.1-.7.3-1,.6-.2.3-.3.6-.3.9,0,.4.1.7.4,1,.4.4,1,.6,1.5.7l3.2.7c1.4.3,2.3.7,2.9,1.4.6.6.9,1.5.8,2.3,0,.9-.2,1.7-.7,2.4-.5.7-1.2,1.3-2.1,1.6-1,.4-2.1.6-3.1.6Z"/>
  <path class="st6" d="M457.9,153.8c0-.8-.2-1.6-.8-2.2-.6-.5-1.4-.8-2.1-.8-.8,0-1.5.2-2.2.6-.7.5-1.1,1.2-1.3,1.9l-2.6-1.1c.4-1.2,1.1-2.1,2.1-2.8,1.2-.7,2.6-1.1,4.1-1.1,1,0,2.1.2,3,.6.8.3,1.5.9,2.1,1.7.5.9.8,1.8.8,2.8v6.4c0,.5.3,1,.8,1.1,0,0,.2,0,.3,0,.3,0,.7,0,1-.1l-.2,2.1c-.5.2-1.1.3-1.7.3-.6,0-1.1-.1-1.7-.3-.5-.2-.9-.6-1.1-1-.3-.5-.4-1.1-.4-1.7v-.2h.6c-.1.7-.5,1.3-1.1,1.8-.5.5-1.2.9-1.9,1.1-.7.2-1.4.4-2.1.4-.8,0-1.6-.1-2.4-.4-1.4-.5-2.4-1.9-2.3-3.4,0-1,.3-1.9,1-2.6.8-.7,1.8-1.2,2.9-1.4l5.5-1.1v2.1s-4,.8-4,.8c-.6,0-1.2.3-1.8.7-.4.3-.6.8-.6,1.2,0,.5.2,1,.6,1.3.5.3,1.1.5,1.7.5.5,0,.9,0,1.4-.2.4-.1.8-.3,1.2-.6.4-.3.6-.6.8-1,.2-.5.3-1,.3-1.5v-3.9Z"/>
  <path class="st6" d="M476.2,148.7l-6.2,15.9c-.3.9-.8,1.8-1.3,2.6-.4.6-1,1.1-1.7,1.4-.7.3-1.4.4-2.2.4-.6,0-1.3,0-1.9-.3-.5-.2-1.1-.4-1.5-.7l.7-2.4c.3.3.7.5,1.2.7.4.2.9.2,1.3.2.5,0,1-.1,1.4-.4.5-.4.9-1,1.1-1.7l.6-1.5-1.5-3.5-4.5-10.8h3.4l3.2,8.9.8,2.7.9-2.9,3-8.7h3.2Z"/>
  <path class="st6" d="M483.5,148.4c1.3,0,2.5.3,3.7.9,1.1.6,1.9,1.5,2.5,2.5,1.2,2.5,1.2,5.4,0,7.9-.6,1.1-1.4,2-2.5,2.5-2.3,1.2-5,1.2-7.3,0-1.1-.6-1.9-1.5-2.5-2.5-1.2-2.5-1.2-5.4,0-7.9.6-1.1,1.4-2,2.5-2.5,1.1-.6,2.4-.9,3.7-.9ZM483.5,150.8c-.8,0-1.5.2-2.2.6-.6.4-1.1,1-1.4,1.7-.6,1.8-.6,3.7,0,5.5.3.7.8,1.3,1.4,1.7.7.4,1.4.6,2.2.6.8,0,1.5-.2,2.2-.6.6-.4,1.1-1,1.4-1.7.6-1.8.6-3.7,0-5.5-.3-.7-.8-1.3-1.4-1.7-.6-.4-1.4-.6-2.2-.6Z"/>
  <path class="st6" d="M498.4,163.2c-1.3,0-2.7-.3-3.9-.8-1.1-.5-2.1-1.3-2.8-2.3l2.1-1.8c.4.8,1,1.4,1.8,1.9.9.5,1.8.7,2.8.7.7,0,1.4-.1,2.1-.5.7-.4,1-1.3.6-2,0,0-.1-.2-.2-.3-.4-.3-.8-.6-1.4-.6l-3-.6c-1.5-.3-2.6-.8-3.2-1.5-.7-.7-1-1.6-1-2.6,0-.8.2-1.5.7-2.2.5-.7,1.2-1.3,2-1.6,1-.4,2.1-.6,3.2-.6,1.3,0,2.5.2,3.6.8,1,.5,1.8,1.2,2.3,2.1l-2.1,1.8c-.3-.7-.9-1.3-1.6-1.7-.7-.4-1.4-.6-2.2-.6-.5,0-1.1,0-1.6.2-.4.1-.7.3-1,.6-.2.3-.3.6-.3.9,0,.4.1.7.4,1,.4.4,1,.6,1.5.7l3.2.7c1.4.3,2.3.7,2.9,1.4.6.6.9,1.5.8,2.3,0,.9-.2,1.7-.7,2.4-.5.7-1.2,1.3-2.1,1.6-1,.4-2.1.6-3.1.6Z"/>
  <path class="st6" d="M226.4,203v-20.2h2.7l.2,4-.4-.5c.2-.7.6-1.4,1.1-2,.5-.6,1.1-1,1.8-1.3.7-.3,1.5-.5,2.3-.5,1.1,0,2.2.3,3.2.9,1,.6,1.7,1.5,2.2,2.5,1.1,2.5,1.1,5.4,0,8-.5,1-1.3,1.9-2.3,2.5-1,.6-2.1.9-3.2.9-1.1,0-2.2-.3-3.1-1-.8-.6-1.5-1.5-1.8-2.4l.3-.5v9.6h-3ZM233.4,194.9c1.1,0,2.2-.4,2.9-1.3.7-.9,1-2.1,1-3.6s-.3-2.7-1-3.6c-.7-.9-1.7-1.4-2.8-1.3-.7,0-1.5.2-2.1.6-.6.4-1.1,1-1.4,1.7-.4.8-.5,1.7-.5,2.6,0,.9.2,1.8.5,2.6.3.7.8,1.3,1.4,1.7.6.4,1.3.6,2.1.6Z"/>
  <path class="st6" d="M251.1,187.9c0-.8-.2-1.6-.8-2.2-.6-.5-1.4-.8-2.1-.8-.8,0-1.5.2-2.2.6-.7.5-1.1,1.1-1.3,1.9l-2.6-1.1c.4-1.2,1.1-2.1,2.1-2.8,1.2-.7,2.6-1.1,4.1-1.1,1,0,2.1.2,3,.6.8.3,1.5.9,2.1,1.7.5.9.8,1.8.8,2.8v6.4c0,.5.3,1,.8,1.1,0,0,.2,0,.3,0,.3,0,.7,0,1-.1l-.2,2.1c-.5.2-1.1.3-1.7.3-.6,0-1.1-.1-1.7-.3-.5-.2-.9-.6-1.1-1-.3-.5-.4-1.1-.4-1.7v-.2h.6c-.1.7-.5,1.3-1.1,1.8-.5.5-1.2.9-1.9,1.1-.7.2-1.4.4-2.1.4-.8,0-1.6-.1-2.4-.4-1.4-.5-2.4-1.9-2.3-3.4,0-1,.3-1.9,1-2.6.8-.7,1.8-1.2,2.9-1.4l5.5-1.1v2.1s-4,.8-4,.8c-.6,0-1.2.3-1.8.7-.4.3-.6.8-.6,1.2,0,.5.2,1,.6,1.3.5.3,1.1.5,1.7.5.5,0,.9,0,1.4-.2.4-.1.8-.3,1.2-.6.4-.3.6-.6.8-1,.2-.5.3-1,.3-1.5v-3.9Z"/>
  <path class="st6" d="M257.7,197.1v-14.2h2.6l.3,2.6c.3-.9.9-1.6,1.7-2.1.8-.5,1.8-.8,2.8-.7.3,0,.6,0,.9,0,.2,0,.5.1.7.2l-.4,2.7c-.2,0-.5-.1-.7-.2-.3,0-.7,0-1,0-.6,0-1.2.2-1.7.5-.6.3-1.1.8-1.4,1.4-.4.7-.6,1.6-.6,2.4v7.5h-3.1Z"/>
  <path class="st6" d="M276,187.9c0-.8-.2-1.6-.8-2.2-.6-.5-1.4-.8-2.1-.8-.8,0-1.5.2-2.2.6-.7.5-1.1,1.2-1.3,1.9l-2.6-1.1c.4-1.2,1.1-2.1,2.1-2.8,1.2-.7,2.6-1.1,4.1-1.1,1,0,2.1.2,3,.6.8.3,1.6.9,2.1,1.7.5.9.8,1.8.8,2.8v6.4c0,.5.3,1,.8,1.1,0,0,.2,0,.3,0,.3,0,.7,0,1-.1l-.2,2.1c-.5.2-1.1.3-1.7.3-.6,0-1.1-.1-1.7-.3-.5-.2-.9-.6-1.1-1-.3-.5-.4-1.1-.4-1.7v-.2h.6c-.2.7-.5,1.3-1.1,1.8-.5.5-1.2.9-1.8,1.1-.7.2-1.4.4-2.1.4-.8,0-1.6-.1-2.4-.4-1.4-.5-2.4-1.9-2.3-3.4,0-1,.3-1.9,1-2.6.8-.7,1.8-1.2,2.9-1.4l5.5-1.1v2.1s-4,.8-4,.8c-.6,0-1.3.3-1.8.6-.4.3-.6.8-.6,1.2,0,.5.2,1,.6,1.3.5.3,1.1.5,1.7.5.5,0,.9,0,1.4-.2.4-.1.8-.3,1.2-.6.4-.3.6-.6.8-1,.2-.5.3-1,.3-1.5v-3.8Z"/>
  <path class="st6" d="M297.6,178.3c1.2,0,2.4.2,3.5.7.9.4,1.7,1.1,2.3,2,1.1,2,1.1,4.3,0,6.3-.6.9-1.4,1.6-2.3,2-1.1.5-2.3.7-3.5.7h-4.2v7h-3v-18.8h7.2ZM297.1,187.5c1.3,0,2.3-.3,3-.8.7-.6,1-1.5,1-2.4,0-.9-.3-1.8-1-2.5-.6-.6-1.7-.8-3-.8h-3.7v6.6h3.7Z"/>
  <path class="st6" d="M314.6,187.9c0-.8-.2-1.6-.8-2.2-.6-.5-1.4-.8-2.1-.8-.8,0-1.5.2-2.2.6-.7.5-1.1,1.2-1.3,1.9l-2.6-1.1c.4-1.2,1.1-2.1,2.1-2.8,1.2-.7,2.6-1.1,4.1-1.1,1,0,2.1.2,3,.6.8.3,1.6.9,2.1,1.7.5.9.8,1.8.8,2.8v6.4c0,.5.3,1,.8,1.1,0,0,.2,0,.3,0,.3,0,.7,0,1-.1l-.2,2.1c-.5.2-1.1.3-1.7.3-.6,0-1.1-.1-1.7-.3-.5-.2-.9-.6-1.1-1-.3-.5-.4-1.1-.4-1.7v-.2h.6c-.2.7-.5,1.3-1.1,1.8-.5.5-1.2.9-1.9,1.1-.7.2-1.4.4-2.1.4-.8,0-1.6-.1-2.4-.4-1.4-.5-2.4-1.9-2.3-3.4,0-1,.3-1.9,1-2.6.8-.7,1.8-1.2,2.9-1.4l5.5-1.1v2.1s-4,.8-4,.8c-.6,0-1.2.3-1.8.7-.4.3-.6.8-.6,1.2,0,.5.2,1,.6,1.3.5.3,1.1.5,1.7.5.5,0,.9,0,1.4-.2.4-.1.8-.3,1.2-.6.4-.3.6-.6.8-1,.2-.5.3-1,.3-1.5v-3.9Z"/>
  <path class="st6" d="M321.2,197.1v-14.2h2.7l.2,3.7-.4-.4c.2-.8.6-1.4,1.2-2,.5-.5,1.1-.9,1.8-1.2.7-.2,1.5-.4,2.2-.4.9,0,1.9.2,2.7.6.8.4,1.5,1,1.9,1.8.5.9.8,1.9.7,3v9.2h-3v-8.3c0-1.4-.3-2.4-.9-2.9-.6-.6-1.4-.8-2.2-.8-.6,0-1.3.2-1.8.4-.6.3-1.1.8-1.5,1.4-.4.8-.6,1.7-.6,2.6v7.6h-3Z"/>
  <path class="st6" d="M343.7,197.4c-1.3,0-2.6-.3-3.8-.9-1.1-.6-2-1.5-2.5-2.5-1.2-2.5-1.2-5.4,0-7.9.6-1.1,1.4-2,2.5-2.5,1.1-.6,2.4-.9,3.6-.9,1.2,0,2.5.3,3.5.9.9.5,1.7,1.4,2.2,2.3.5,1,.8,2.2.8,3.4,0,.3,0,.7,0,1,0,.3,0,.6,0,.8h-11.4v-2.3h10.1l-1.5.5c0-1.3-.3-2.3-1-3-.7-.7-1.7-1.1-2.6-1-.8,0-1.5.2-2.1.6-.6.4-1.1,1-1.4,1.7-.3.9-.5,1.8-.5,2.7,0,.9.1,1.8.5,2.7.3.7.8,1.3,1.5,1.7.7.4,1.4.6,2.2.6.8,0,1.6-.2,2.3-.5.6-.4,1.1-.9,1.4-1.5l2.4,1.1c-.3.7-.8,1.3-1.4,1.8-.6.5-1.3.9-2.1,1.2-.8.3-1.7.4-2.6.4Z"/>
  <path class="st6" d="M355.4,176.4v16.7c0,.5,0,1,.4,1.5.3.3.8.5,1.2.4.3,0,.6,0,.9,0,.3,0,.6-.2.9-.3l-.3,2.3c-.4.2-.7.3-1.1.4-.4,0-.8.1-1.2.1-1.3,0-2.2-.3-2.8-1s-.9-1.7-.9-3v-16.9h3Z"/>
  <path class="st6" d="M366.2,197.4c-1.3,0-2.6-.3-3.8-.9-1.1-.6-2-1.5-2.5-2.5-1.2-2.5-1.2-5.4,0-7.9.6-1.1,1.4-2,2.5-2.5,1.1-.6,2.4-.9,3.6-.9,1.2,0,2.5.3,3.5.9.9.5,1.7,1.4,2.2,2.3.5,1,.8,2.2.8,3.4,0,.3,0,.7,0,1,0,.3,0,.5,0,.8h-11.4v-2.3h10.1l-1.5.5c0-1.3-.3-2.3-1-3-.7-.7-1.7-1.1-2.6-1-.8,0-1.5.2-2.1.6-.6.4-1.1,1-1.4,1.7-.3.9-.5,1.8-.5,2.7,0,.9.2,1.8.5,2.7.3.7.8,1.3,1.4,1.7.7.4,1.4.6,2.2.6.8,0,1.6-.2,2.3-.5.6-.4,1.1-.9,1.4-1.5l2.4,1.1c-.3.7-.8,1.3-1.4,1.8-.6.5-1.3.9-2.1,1.2-.8.3-1.7.4-2.6.4Z"/>
  <path class="st6" d="M380.4,197.4c-1.3,0-2.7-.3-3.9-.8-1.1-.5-2.1-1.3-2.8-2.3l2.1-1.8c.4.8,1,1.4,1.8,1.9.9.5,1.8.7,2.8.7.7,0,1.4-.1,2.1-.5.7-.4,1-1.3.6-2,0,0-.1-.2-.2-.3-.4-.3-.8-.6-1.4-.6l-3-.6c-1.5-.3-2.6-.8-3.2-1.5-.7-.7-1-1.6-1-2.6,0-.8.2-1.5.7-2.2.5-.7,1.2-1.3,2-1.6,1-.4,2.1-.6,3.2-.6,1.3,0,2.5.2,3.6.8,1,.5,1.8,1.2,2.3,2.1l-2.1,1.8c-.3-.7-.9-1.3-1.6-1.7-.7-.4-1.4-.6-2.2-.6-.5,0-1.1,0-1.6.2-.4.1-.7.3-1,.6-.2.3-.3.6-.3.9,0,.4.1.7.4,1,.4.4,1,.6,1.5.7l3.2.7c1.4.3,2.3.7,2.9,1.3.6.6.9,1.5.8,2.3,0,.9-.2,1.7-.7,2.4-.5.7-1.2,1.3-2.1,1.6-1,.4-2.1.6-3.1.6Z"/>
  <path class="st6" d="M403.4,178c1.5,0,3,.3,4.4,1,1.3.7,2.3,1.6,3.1,2.8l-2.1,2c-.6-1-1.4-1.8-2.4-2.4-1-.5-2.1-.8-3.2-.7-.8,0-1.5.1-2.2.4-.5.2-1,.5-1.3,1-.3.4-.4.9-.4,1.4,0,.6.2,1.1.6,1.5.4.4,1.2.8,2.3,1l3.8.9c1.8.4,3.1,1,3.9,1.8.8.8,1.2,2,1.1,3.1,0,1.1-.3,2.1-.9,3-.7.9-1.6,1.6-2.6,2-1.2.5-2.6.7-3.9.7-1.2,0-2.4-.2-3.6-.5-1-.3-1.9-.8-2.8-1.4-.8-.6-1.4-1.2-2-2l2.1-2.1c.4.7.9,1.3,1.5,1.8.6.5,1.3.9,2.1,1.2.9.3,1.8.4,2.7.4.8,0,1.5,0,2.3-.3.6-.2,1.1-.5,1.5-.9.3-.4.5-.9.5-1.5,0-.5-.2-1.1-.6-1.4-.4-.4-1.1-.7-2.1-1l-4.1-.9c-1-.2-1.9-.5-2.8-1.1-1.4-.8-2.2-2.3-2.2-3.9,0-1,.3-2,.9-2.9.6-.9,1.5-1.6,2.5-2.1,1.2-.6,2.6-.8,3.9-.8Z"/>
  <path class="st6" d="M419.6,182.5c1.3,0,2.5.3,3.7.9,1.1.6,1.9,1.5,2.5,2.5,1.2,2.5,1.2,5.4,0,7.9-.6,1.1-1.4,2-2.5,2.5-2.3,1.2-5,1.2-7.3,0-1.1-.6-1.9-1.5-2.5-2.5-1.2-2.5-1.2-5.4,0-7.9.6-1.1,1.4-2,2.5-2.5,1.1-.6,2.4-.9,3.7-.9ZM419.6,184.9c-.8,0-1.5.2-2.2.6-.6.4-1.1,1-1.4,1.7-.6,1.8-.6,3.7,0,5.5.3.7.8,1.3,1.4,1.7.7.4,1.4.6,2.2.6.8,0,1.5-.2,2.2-.6.6-.4,1.1-1,1.4-1.7.6-1.8.6-3.7,0-5.5-.3-.7-.8-1.3-1.4-1.7-.6-.4-1.4-.6-2.2-.6h0Z"/>
  <path class="st6" d="M432.1,176.4v16.7c0,.5,0,1,.4,1.5.3.3.8.5,1.2.4.3,0,.6,0,.9,0,.3,0,.6-.2.9-.3l-.3,2.3c-.4.2-.7.3-1.1.4-.4,0-.8.1-1.2.1-1.3,0-2.2-.3-2.8-1s-.9-1.7-.9-3v-16.9h3Z"/>
  <path class="st6" d="M444.9,187.9c0-.8-.2-1.6-.8-2.2-.6-.5-1.4-.8-2.1-.8-.8,0-1.5.2-2.2.6-.7.5-1.1,1.2-1.3,1.9l-2.6-1.1c.4-1.2,1.1-2.1,2.1-2.8,1.2-.7,2.6-1.1,4.1-1.1,1,0,2.1.2,3,.6.8.3,1.6.9,2.1,1.7.5.9.8,1.8.8,2.8v6.4c0,.5.3,1,.8,1.1,0,0,.2,0,.3,0,.3,0,.7,0,1-.1l-.2,2.1c-.5.2-1.1.3-1.7.3-.6,0-1.1-.1-1.7-.3-.5-.2-.9-.6-1.1-1-.3-.5-.4-1.1-.4-1.7v-.2h.6c-.1.7-.5,1.3-1.1,1.8-.5.5-1.2.9-1.8,1.1-.7.2-1.4.4-2.1.4-.8,0-1.6-.1-2.4-.4-1.4-.5-2.4-1.9-2.3-3.4,0-1,.3-1.9,1-2.6.8-.7,1.8-1.2,3-1.4l5.5-1.1v2.1s-4,.8-4,.8c-.6,0-1.2.3-1.8.7-.4.3-.6.8-.6,1.2,0,.5.2,1,.6,1.3.5.3,1.1.5,1.7.5.5,0,.9,0,1.4-.2.4-.1.8-.3,1.2-.6.4-.3.6-.6.8-1,.2-.5.3-1,.3-1.5v-3.9Z"/>
  <path class="st6" d="M451.5,197.1v-14.2h2.6l.3,2.6c.3-.9.9-1.6,1.7-2.1.8-.5,1.8-.8,2.8-.7.3,0,.6,0,.9,0,.2,0,.5.1.7.2l-.4,2.7c-.2,0-.5-.1-.7-.2-.3,0-.7,0-1,0-.6,0-1.2.2-1.7.5-.6.3-1.1.8-1.4,1.4-.4.7-.6,1.6-.6,2.4v7.5h-3.1Z"/>
  <path class="st6" d="M467.8,197.4c-1.3,0-2.6-.3-3.8-.9-1.1-.6-1.9-1.5-2.5-2.5-1.2-2.5-1.2-5.4,0-7.9.6-1.1,1.4-2,2.5-2.5,1.1-.6,2.4-.9,3.6-.9,1.2,0,2.5.3,3.5.9,1,.5,1.7,1.4,2.2,2.3.5,1,.8,2.2.8,3.4,0,.3,0,.7,0,1s0,.6,0,.8h-11.4v-2.3h10.1l-1.5.5c0-1.3-.3-2.3-1-3-.7-.7-1.7-1.1-2.6-1-.8,0-1.5.2-2.1.6-.6.4-1.1,1-1.4,1.7-.3.9-.5,1.8-.5,2.7,0,.9.1,1.8.5,2.7.3.7.8,1.3,1.5,1.7.7.4,1.4.6,2.2.6.8,0,1.6-.1,2.3-.5.6-.4,1.1-.9,1.4-1.5l2.4,1.1c-.3.7-.8,1.3-1.4,1.8-.6.5-1.3.9-2.1,1.2-.8.3-1.7.4-2.6.4Z"/>
  <path class="st6" d="M482,197.4c-1.3,0-2.7-.3-3.9-.8-1.1-.5-2.1-1.3-2.8-2.3l2.1-1.8c.4.8,1,1.4,1.8,1.9.9.5,1.8.7,2.8.7.7,0,1.4-.1,2.1-.5.7-.4,1-1.3.6-2,0,0-.1-.2-.2-.3-.4-.3-.8-.6-1.4-.6l-3-.6c-1.5-.3-2.6-.8-3.2-1.5-.7-.7-1-1.6-1-2.6,0-.8.2-1.5.7-2.2.5-.7,1.2-1.3,2-1.6,1-.4,2.1-.6,3.2-.6,1.3,0,2.5.2,3.6.8,1,.5,1.8,1.2,2.3,2.1l-2.1,1.8c-.3-.7-.9-1.3-1.6-1.7-.7-.4-1.4-.6-2.2-.6-.5,0-1.1,0-1.6.2-.4.1-.7.3-1,.6-.2.3-.3.6-.3.9,0,.4.1.7.4,1,.4.4,1,.6,1.5.7l3.2.7c1.4.3,2.3.7,2.9,1.3.6.6.8,1.5.8,2.3,0,.9-.2,1.7-.7,2.4-.5.7-1.2,1.3-2.1,1.6-1,.4-2.1.6-3.1.6Z"/>
  <line class="st3" x1="209.2" y1="126.2" x2="387" y2="126.2"/>
  <path class="st6" d="M396.6,121.2c.8,0,1.6.1,2.3.4.7.3,1.3.7,1.8,1.2l-1.2,1.6c-.4-.4-.8-.7-1.3-1-.5-.2-1.1-.3-1.6-.3-.3,0-.6,0-.9.1-.2,0-.4.2-.5.3,0,.1-.1.3-.1.5,0,.2.1.4.3.5.3.2.6.3.9.4l1.6.4c.8.1,1.5.5,2.1,1,.5.4.7,1.1.7,1.7,0,.6-.2,1.2-.5,1.7-.4.5-.9.8-1.4,1.1-.7.2-1.4.4-2.1.4-.6,0-1.2,0-1.8-.2-.5-.1-1.1-.3-1.6-.6-.4-.2-.8-.5-1.2-.9l1.2-1.7c.3.3.6.5.9.7.4.2.7.4,1.2.5.4.1.8.2,1.3.2.3,0,.6,0,.8,0,.2,0,.4-.2.5-.3.1-.1.2-.3.2-.5,0-.2,0-.4-.2-.5-.2-.2-.5-.3-.8-.4l-1.8-.4c-.5-.1-1-.3-1.4-.5-.4-.2-.7-.5-1-.8-.3-.4-.4-.9-.4-1.3,0-.6.2-1.1.5-1.6.4-.5.9-.9,1.4-1.1.7-.3,1.4-.4,2.2-.4Z"/>
  <path class="st6" d="M401.5,130.9v-9.5h7.4v1.9h-5v1.9h3.9v1.8h-3.9v2h5.1v1.9h-7.6Z"/>
  <path class="st6" d="M418.5,121.4v9.5h-2.8l-3-5.2-.7-1.4h0v1.8c0,0,0,4.8,0,4.8h-2.2v-9.5h2.8l3,5.2.7,1.4h0v-1.8c0,0,0-4.8,0-4.8h2.2Z"/>
  <path class="st6" d="M418.9,130.9l3.4-9.5h3l3.3,9.5h-2.6l-1.9-6.1-.4-1.5h0l-.4,1.5-1.9,6.1h-2.5ZM421.1,128.8v-1.7h5.3v1.7h-5.3Z"/>
  <path class="st6" d="M447.3,128.2c-.2.6-.5,1.2-.9,1.7-.4.4-.9.7-1.4.9-.6.2-1.2.3-1.8.3-.9,0-1.7-.2-2.5-.6-.7-.4-1.3-1-1.6-1.7-.7-1.7-.7-3.6,0-5.3.4-.7.9-1.3,1.6-1.7.8-.4,1.6-.6,2.5-.6.6,0,1.2,0,1.8.3.5.2,1,.5,1.4.9.4.4.7.9.8,1.5l-2.2.9c0-.5-.3-.9-.7-1.2-.3-.2-.7-.3-1.2-.3-.9,0-1.7.5-1.9,1.3-.2.5-.3,1.1-.3,1.7,0,.6,0,1.1.2,1.6.1.4.4.8.7,1,.4.2.8.3,1.2.3.4,0,.8-.1,1.2-.4.3-.3.6-.7.7-1.2l2.2.6Z"/>
  <path class="st6" d="M448,130.9v-9.5h7.4v1.9h-5v1.9h3.9v1.8h-3.9v2h5.2v1.9h-7.6Z"/>
  <path class="st6" d="M456.4,130.9v-9.5h7.4v1.9h-5v1.9h3.9v1.8h-3.9v2h5.1v1.9h-7.6Z"/>
  <path class="st6" d="M472.8,121.4v1.9h-3.1v7.6h-2.5v-7.6h-3.1v-1.9h8.7Z"/>
  <line class="st3" x1="477.3" y1="126.2" x2="505.4" y2="126.2"/>
  <line class="st3" x1="431" y1="126.2" x2="435.3" y2="126.2"/>
</svg>